<?xml version="1.0" encoding="UTF-8"?><svg id="HEADERS" xmlns="http://www.w3.org/2000/svg" xmlns:xlink="http://www.w3.org/1999/xlink" viewBox="0 0 1080 192"><defs><style>.cls-1{clip-path:url(#clippath);}.cls-2{fill:none;}.cls-3{opacity:.64;}.cls-4{fill:#ececec;}</style><clipPath id="clippath"><rect class="cls-2" x=".17" y="5" width="1080.15" height="187.34"/></clipPath></defs><g class="cls-1"><g><g class="cls-3"><g><path class="cls-4" d="M159.11,133.05s13.22-3.3,10.35-11.05c-4.39-11.83-9.11-23.53-13.73-35.27-1.65-4.21-2.57-9.4-7.8-10.23-4.55-.72-4.46-3.56-4.46-3.56l-8.37,2.93s1.21,1.45-.88,4.99c-2.09,3.54-1.76,6.49,.16,10.73,4.44,9.8,8.27,19.86,12.28,29.84,1.37,3.42,2.42,7.28,4.96,10.06,.9,.99,2,1.92,3.31,2.3,1.76,.51,2.62-.38,4.19-.73h0Z"/><path class="cls-4" d="M134.53,77.1c.06,0,.11-.01,.16-.02,3.3-.53,6.49-1.7,9.34-3.43,.17-.1,.34-.21,.42-.39,.08-.21,.02-.44-.06-.66-.47-1.38-1.06-2.73-1.74-4.02-.16-.31-.38-.64-.72-.7-.2-.03-.4,.03-.59,.1-2.29,.82-4.57,1.66-6.85,2.52-.41,.15-.82,.32-1.15,.6-1.25,1.08,.17,4.21,.58,5.49,.06,.18,.13,.38,.3,.47,.1,.05,.2,.06,.32,.05h0Z"/></g><g><path class="cls-4" d="M208.42,135.34s17.41-4.35,13.63-14.55c-5.78-15.58-12-31-18.08-46.46-2.18-5.55-3.38-12.38-10.27-13.47-5.99-.95-5.87-4.69-5.87-4.69l-11.02,3.85s1.59,1.91-1.16,6.57c-2.76,4.66-2.32,8.55,.21,14.13,5.85,12.91,10.89,26.16,16.17,39.31,1.81,4.5,3.2,9.59,6.53,13.25,1.19,1.31,2.63,2.53,4.35,3.02,2.32,.67,3.44-.51,5.52-.95h0Z"/><path class="cls-4" d="M176.05,61.65c.07,0,.14-.02,.21-.03,4.34-.7,8.55-2.24,12.31-4.52,.22-.14,.45-.29,.55-.52,.11-.28,.02-.59-.07-.87-.62-1.82-1.39-3.6-2.3-5.29-.21-.41-.5-.85-.95-.93-.26-.05-.53,.05-.78,.14-3.02,1.08-6.03,2.19-9.02,3.32-.53,.2-1.09,.42-1.52,.79-1.65,1.42,.23,5.55,.76,7.23,.08,.24,.17,.5,.39,.62,.12,.07,.27,.08,.42,.07h0Z"/></g><g><path class="cls-4" d="M221.12,90.6s12.54,5.13,14.79-2.78c3.44-12.06,1.51-5.73,4.71-17.85,1.15-4.35,3.47-9.05-.24-12.79-3.22-3.25-1.48-5.48-1.48-5.48l-8.43-2.57s.12,1.87-3.65,3.48c-3.76,1.6-5.23,4.17-6.18,8.7-2.2,10.47-.03,2.28-2.68,12.65-.91,3.55-2.33,7.26-1.94,10.98,.14,1.32,.47,2.71,1.31,3.78,1.11,1.44,2.32,1.23,3.79,1.88h0Z"/><path class="cls-4" d="M229.29,49.78s.1,.05,.14,.08c2.95,1.51,6.21,2.45,9.51,2.74,.19,.02,.41,.03,.57-.07,.19-.12,.28-.34,.34-.56,.44-1.39,.76-2.81,.96-4.25,.05-.34,.07-.74-.16-.99-.14-.15-.34-.21-.53-.26-2.32-.69-4.64-1.36-6.98-2-.42-.12-.84-.23-1.28-.2-1.64,.12-2.34,3.48-2.76,4.74-.06,.18-.12,.38-.03,.55,.04,.1,.13,.17,.23,.23h0Z"/></g><path class="cls-4" d="M1042.17,57.3s3.16-1.31,4.46-3.12c1.29-1.81,5.07-11.8,1.43-14.13-3.65-2.32-9.81,7.77-9.81,7.77,0,0-1.34,3.23-.14,7.08,1.21,3.84-2.71,9.81-7.65,19.77-4.94,9.96-1.05,9.5-1.05,9.5,0,0,2.58,.98,5-7.05,2.42-8.03,4.3-17.74,7.75-19.81h0Z"/><g><path class="cls-4" d="M729.73,41.44c-.66,6.19-1.33,12.39-2,18.58-.25,2.28-.54,4.56-.73,6.84-.14,1.61-.09,2.85,1.02,4.11,1.81,2.06,4.86,2.94,7.43,3.56,3.74,.91,8.02,1.45,10.31-2.27,1.42-2.31,10.18-24.03,10.18-24.03"/><path class="cls-4" d="M756.36,48.34c.07-.29,.09-.59,.04-.88-.06-.38-.19-.74-.4-1.11-.36-.64-.92-1.25-1.65-1.86-1.09-.91-2.55-1.79-4.3-2.6-1.74-.8-3.76-1.52-5.94-2.09-2.04-.53-4.01-.87-5.82-1.02s-3.45-.14-4.83,.06c-1.1,.16-2.03,.42-2.76,.82-.37,.2-.68,.43-.92,.71-.25,.28-.43,.6-.52,.96-.07,.29-.09,.59-.04,.88,.06,.38,.19,.74,.4,1.11,.36,.64,.92,1.25,1.65,1.86,1.09,.91,2.55,1.79,4.3,2.6,1.74,.8,3.76,1.52,5.94,2.09,2.04,.53,4.01,.87,5.82,1.02,1.81,.16,3.45,.14,4.83-.06,1.1-.16,2.03-.42,2.76-.82,.37-.2,.68-.43,.92-.71,.25-.28,.43-.6,.52-.96"/></g><path class="cls-4" d="M161.43,50.32s-.95-1.93,.6-5.58c1.56-3.65,7.34-12.34,7.34-12.34,0,0,1.94-.84-2.49,7.66,0,0-.46,4.18,4.69-5.79,0,0,3.26-3.76-2.75,8.27,0,0-.28,3.81,5.02-6.76,0,0,3.09-2.49-1.58,7.65-4.66,10.14-7.83,7.94-8.33,8.47-.5,.53-14.36,28.63-16.33,29.25-1.97,.62-5.27-1.68,6.41-19.87l7.41-10.98h0Z"/><path class="cls-4" d="M172.3,77.09c1.17-4.86,2.38-9.89,5.7-14.08l6.66-8.39c.62-.79,.49-1.92-.29-2.55l-6.3-5c-.79-.62-1.92-.49-2.55,.29l-6.66,8.39c-3.32,4.19-7.94,6.51-12.41,8.75-4.1,2.06-7.97,4.01-10.54,7.24l-26.64,33.58c-3.27,4.12-1.1,8.29,1.16,10.08l10.49,8.33c2.26,1.79,6.81,2.96,10.08-1.16l26.64-33.58c2.57-3.24,3.58-7.45,4.65-11.91h-.01Z"/><path class="cls-4" d="M262.15,68.18c2.6-3.81,1.76-8.76,1.65-14.56-.13-6.94,2.14-8.53,5.21-9.73,3.07-1.2,12.67,2.01,14.67,3.62,0,0,5.33,5.61,7.05,14.55,1.73,8.94-.82,15.88-.82,15.88l-2.44,5.67c1.89,4.34,3.93,8.95,4.69,11.01,1.46,4.01,2.12,19.48,2.37,28.82,.26,9.34,5.32,12.41,4.25,22.28-1.07,9.87-10.55,9.86-10.55,9.86,0,0-22.68,4.11-30.82,5.44-8.14,1.33-13.21,.65-18.54-.42-5.33-1.07-18.14,.38-21.61,.95-3.47,.57-9.2,1.29-13.07-6.59-3.86-7.88-1.32-11.88-.38-15.88,.94-4-.52-12.67-1.98-20.94-1.46-8.27-1.58-21.75-.71-27.1,.87-5.35,2.41-13.65,.51-27.13-1.91-13.48,2.48-17.21,4.47-18.27,2-1.06,11.27,1.15,11.27,1.15,3.34,.68,7.86,10.27,7.86,10.27,0,0,3.33,6.27,5.33,9.07,2,2.8,8.8,1.87,10.94,1.61s20.41,.55,20.41,.55"/><g><path class="cls-4" d="M984.66,122.11s12.84,4.54,14.72-3.51c2.86-12.28,5.38-24.65,8.01-36.99,.95-4.43,3.05-9.25-.86-12.84-3.39-3.11-1.75-5.43-1.75-5.43l-8.59-2.18s.21,1.88-3.49,3.67c-3.7,1.79-5.05,4.44-5.79,9.03-1.7,10.62-4.06,21.12-6.23,31.66-.74,3.61-1.99,7.41-1.42,11.13,.2,1.32,.61,2.7,1.49,3.74,1.19,1.4,2.39,1.13,3.9,1.71h0Z"/><path class="cls-4" d="M995.03,61.88s.1,.05,.15,.07c3.04,1.38,6.35,2.16,9.69,2.3,.2,0,.41,.01,.57-.1,.19-.12,.26-.36,.32-.58,.37-1.42,.62-2.86,.77-4.31,.03-.35,.04-.74-.21-.98-.15-.14-.35-.19-.55-.24-2.36-.58-4.73-1.14-7.1-1.67-.43-.1-.86-.19-1.29-.14-1.64,.21-2.18,3.61-2.55,4.89-.05,.19-.1,.39-.01,.56,.05,.1,.14,.16,.24,.21h0Z"/></g><path class="cls-4" d="M1026.53,82.71c3.66-3.41,7.44-6.94,12.52-8.59l10.19-3.32c.95-.31,1.47-1.33,1.16-2.29l-2.49-7.64c-.31-.95-1.33-1.47-2.29-1.16l-10.19,3.32c-5.08,1.66-10.21,1.05-15.18,.46-4.56-.55-8.85-1.06-12.79,.23l-40.75,13.3c-5.01,1.64-5.49,6.31-4.59,9.05l4.16,12.74c.89,2.74,4.04,6.23,9.05,4.59l40.75-13.3c3.93-1.28,7.09-4.24,10.45-7.37h0Z"/><g><path class="cls-4" d="M834.42,60.84s-13.62-.26-12.87,7.97c1.15,12.56,2.65,25.1,4.04,37.63,.5,4.5,.02,9.74,4.86,11.91,4.2,1.88,3.37,4.6,3.37,4.6l8.84-.64s-.79-1.72,2.15-4.59c2.95-2.87,3.4-5.81,2.65-10.4-1.73-10.62-2.8-21.33-4.06-32.01-.43-3.66-.44-7.66-2.16-11.01-.61-1.19-1.42-2.37-2.59-3.08-1.57-.95-2.62-.32-4.24-.4h0Z"/><path class="cls-4" d="M843.54,121.26c-.05-.01-.11-.02-.16-.02-3.32-.35-6.71-.05-9.92,.87-.19,.06-.39,.12-.51,.28-.14,.18-.14,.42-.12,.65,.09,1.46,.3,2.91,.64,4.34,.08,.34,.2,.72,.51,.87,.19,.08,.39,.07,.6,.06,2.42-.19,4.85-.41,7.27-.65,.43-.05,.88-.09,1.27-.28,1.5-.71,.93-4.11,.88-5.45-.01-.19-.03-.4-.17-.53-.08-.07-.18-.11-.29-.13h0Z"/></g><path class="cls-4" d="M811.02,100.16c-2.4,4.39-4.88,8.92-9.18,12.1l-8.62,6.36c-.8,.6-.98,1.73-.38,2.54l4.77,6.46c.6,.8,1.73,.98,2.54,.38l8.62-6.36c4.3-3.17,9.37-4.21,14.27-5.21,4.49-.92,8.74-1.78,12.06-4.24l34.49-25.46c4.24-3.13,3.22-7.71,1.51-10.03l-7.95-10.78c-1.71-2.32-5.79-4.64-10.03-1.51l-34.49,25.46c-3.32,2.46-5.4,6.26-7.6,10.28h0Z"/><path class="cls-4" d="M119.82,85.34c-3.18-3.34-8.21-3.53-13.91-4.62-6.81-1.31-7.91-3.86-8.44-7.11-.54-3.25,4.59-11.98,6.57-13.61,0,0,6.59-4.06,15.69-3.9,9.1,.16,15.36,4.08,15.36,4.08l5.05,3.56c4.63-.95,9.58-2,11.74-2.31,4.22-.6,19.49,1.96,28.69,3.63,9.19,1.68,13.24-2.64,22.68,.45,9.43,3.09,7.47,12.36,7.47,12.36,0,0-.66,23.04-1.05,31.28s-2.09,13.06-4.24,18.06c-2.15,5-3.38,17.83-3.54,21.34-.16,3.51-.64,9.27-9.14,11.43-8.5,2.15-11.89-1.16-15.61-2.9-3.72-1.74-12.51-2.11-20.91-2.39-8.39-.28-21.6-2.95-26.66-4.91-5.06-1.96-12.86-5.19-26.44-6.1-13.58-.92-16.33-5.97-16.95-8.16-.63-2.18,3.46-10.8,3.46-10.8,1.36-3.12,11.67-5.57,11.67-5.57,0,0,6.82-1.96,9.98-3.34,3.16-1.38,3.66-8.22,3.84-10.37,.18-2.14,4.76-19.85,4.76-19.85"/><path class="cls-4" d="M968.57,71.58s-1.72,1.29-5.59,.45c-3.87-.85-13.49-4.9-13.49-4.9,0,0-1.19-1.75,7.99,1.01,0,0,4.19-.34-6.57-3.53,0,0-4.31-2.49,8.64,1.15,0,0,3.8-.44-7.57-3.67,0,0-3.02-2.57,7.81,.12,10.83,2.69,9.27,6.21,9.87,6.6,.61,.39,30.81,8.75,31.79,10.58s-.66,5.49-20.72-2.58l-12.16-5.23h0Z"/><path class="cls-4" d="M551.02,80.39s-.6-1.9,.89-3.04,7.5-3.7,11.62-4.32c4.12-.62,9.32-1.07,10.63,.19,1.31,1.27,1.5,1.47,2.17,5.15,.66,3.68,2.27,17.25,2.27,17.25l-12.39,16.81s-2.58,1.85-3.43,1.45c0,0-2.45,3.27-6.83,1.9-4.38-1.37-7.21-3.98-8.89-6.78-1.69-2.8-2.68-6.78-1.68-8.75s6.66-7.78,6.66-7.78l-2.24-9.28s-.2-1.88,1.25-2.8h0Z"/><path class="cls-4" d="M775.1,69.44c.44-5.65,.91-11.49,3.88-16.76l5.96-10.58c.56-.99,.21-2.24-.78-2.8l-7.93-4.47c-.99-.56-2.24-.21-2.8,.78l-5.96,10.58c-2.98,5.27-7.73,8.69-12.33,11.99-4.22,3.03-8.21,5.9-10.51,9.97l-23.86,42.31c-2.93,5.2,.24,9.47,3.09,11.07l13.22,7.45c2.85,1.6,8.14,2.11,11.07-3.09l23.86-42.31c2.3-4.08,2.68-8.97,3.09-14.15h0Z"/><path class="cls-4" d="M744.34,137.11c2.86,3.62,7.85,4.28,13.41,5.9,6.66,1.94,7.51,4.59,7.74,7.87,.23,3.29-5.69,11.5-7.81,12.93,0,0-6.94,3.42-15.99,2.41-9.05-1.01-14.91-5.5-14.91-5.5l-4.69-4.01c-4.7,.51-9.72,1.1-11.9,1.2-4.26,.21-19.23-3.77-28.22-6.3-9-2.53-13.43,1.4-22.54-2.57-9.1-3.96-6.28-13-6.28-13,0,0,2.82-22.88,3.97-31.04,1.15-8.16,3.3-12.8,5.91-17.58,2.61-4.78,5.03-17.43,5.52-20.92,.49-3.48,1.51-9.18,10.17-10.52,8.67-1.34,11.73,2.27,15.27,4.35,3.54,2.09,12.25,3.27,20.59,4.34,8.33,1.07,21.23,4.96,26.08,7.38,4.85,2.42,12.32,6.37,25.75,8.55,13.43,2.18,15.7,7.48,16.11,9.7,.42,2.23-4.46,10.42-4.46,10.42-1.64,2.98-12.14,4.45-12.14,4.45,0,0-6.98,1.31-10.25,2.39-3.27,1.07-4.41,7.85-4.79,9.96-.38,2.12-6.6,19.32-6.6,19.32"/><path class="cls-4" d="M800.06,79.54s2.78-1.99,3.63-4.05c.84-2.06,2.26-12.65-1.82-14.08-4.07-1.43-7.79,9.79-7.79,9.79,0,0-.57,3.46,1.48,6.93,2.05,3.47-.41,10.17-2.95,20.99-2.54,10.82,1.14,9.49,1.14,9.49,0,0,2.73,.37,3.26-8,.53-8.37,.15-18.26,3.05-21.06h0Z"/><path class="cls-4" d="M787.25,74.38s1.95-1.46,3.88-.21c1.94,1.25,7.34,7.16,9.73,11.67,2.4,4.51,5.05,10.33,4.12,12.36-.92,2.03-1.08,2.33-5.06,4.6-3.98,2.27-19.01,9.66-19.01,9.66l-24.48-7.46s-3.18-2.23-3.07-3.38c0,0-4.78-1.5-4.99-7.12s1.65-9.95,4.2-13.04c2.55-3.09,6.74-5.86,9.42-5.51,2.68,.35,11.7,4.52,11.7,4.52l9.8-6.37s2.1-1,3.74,.3v-.02Z"/><g><path class="cls-4" d="M120.63,127.91s17.41-4.35,13.63-14.55c-5.78-15.58-12-31-18.08-46.46-2.18-5.55-3.38-12.38-10.27-13.47-5.99-.95-5.87-4.69-5.87-4.69l-11.02,3.85s1.59,1.91-1.16,6.57c-2.76,4.66-2.32,8.55,.21,14.13,5.85,12.91,10.89,26.16,16.17,39.31,1.81,4.5,3.2,9.59,6.53,13.25,1.19,1.31,2.63,2.53,4.35,3.02,2.32,.67,3.44-.51,5.52-.95h0Z"/><path class="cls-4" d="M88.26,54.21c.07,0,.14-.02,.21-.03,4.34-.7,8.55-2.24,12.31-4.52,.22-.14,.45-.29,.55-.52,.11-.28,.02-.59-.07-.87-.62-1.82-1.39-3.6-2.3-5.29-.21-.41-.5-.85-.95-.93-.26-.05-.53,.05-.78,.14-3.02,1.08-6.03,2.19-9.02,3.32-.53,.2-1.09,.42-1.52,.79-1.65,1.42,.23,5.55,.76,7.23,.08,.24,.17,.5,.39,.62,.12,.07,.27,.08,.42,.07h0Z"/></g><g><path class="cls-4" d="M109.34,132.15s15.31-9.36,8.64-17.97c-10.18-13.13-20.73-25.98-31.16-38.91-3.74-4.64-6.93-10.8-13.84-9.78-6,.88-7-2.72-7-2.72l-9.36,6.98s2.09,1.35,.86,6.62c-1.24,5.27,.34,8.85,4.43,13.42,9.45,10.57,18.22,21.7,27.2,32.66,3.07,3.75,5.92,8.19,10.2,10.69,1.52,.89,3.26,1.62,5.06,1.58,2.41-.06,3.13-1.51,4.98-2.56h0Z"/><path class="cls-4" d="M56.39,71.52c.07-.03,.13-.06,.19-.09,3.93-1.96,7.49-4.7,10.39-8,.17-.19,.35-.41,.37-.66,.03-.29-.15-.56-.33-.8-1.14-1.55-2.4-3.02-3.78-4.37-.33-.32-.73-.66-1.18-.6-.26,.03-.49,.2-.7,.36-2.55,1.93-5.09,3.89-7.61,5.87-.45,.35-.91,.72-1.22,1.21-1.15,1.85,1.87,5.23,2.89,6.67,.15,.2,.32,.43,.56,.47,.14,.03,.28,0,.42-.06h0Z"/></g><path class="cls-4" d="M1059.82,61.86c1.54-4.35-.55-8.92-2.14-14.5-1.9-6.67-.12-8.8,2.54-10.75,2.66-1.95,12.76-1.31,15.11-.26,0,0,6.59,4.06,10.55,12.25,3.96,8.2,3.28,15.56,3.28,15.56l-.9,6.1c2.94,3.71,6.1,7.65,7.35,9.44,2.44,3.49,7.04,18.28,9.68,27.25,2.64,8.96,8.33,10.63,9.82,20.45,1.49,9.82-7.67,12.24-7.67,12.24,0,0-20.87,9.79-28.4,13.16s-12.6,4.02-18.03,4.35c-5.43,.33-17.44,5.02-20.65,6.46-3.21,1.43-8.57,3.61-14.32-3.02-5.75-6.62-4.32-11.14-4.44-15.25-.12-4.11-3.75-12.12-7.29-19.74-3.53-7.62-7.11-20.61-7.63-26.01s-1.17-13.82-6.47-26.36c-5.31-12.53-2.03-17.27-.36-18.81,1.66-1.54,11.2-1.77,11.2-1.77,3.4-.2,10.23,7.91,10.23,7.91,0,0,4.83,5.21,7.48,7.41,2.65,2.2,8.99-.44,10.99-1.25s19.87-4.7,19.87-4.7"/><path class="cls-4" d="M16.18,71.19c-3.27-5.56-6.66-11.3-7.97-18.32l-2.63-14.08c-.25-1.32-1.28-2.23-2.31-2.04l-8.25,1.54c-1.03,.19-1.67,1.41-1.42,2.73l2.63,14.08c1.31,7.02,.23,13.6-.82,19.96-.96,5.83-1.87,11.35-.86,16.78l10.51,56.3c1.29,6.91,6.17,8.6,9.13,8.05l13.75-2.57c2.96-.55,6.9-3.88,5.6-10.8l-10.51-56.31c-1.02-5.43-3.85-10.24-6.86-15.34h0Z"/><path class="cls-4" d="M68.23,83.39s2.93,.94,3.05,3.85c.12,2.91-2.04,12.8-4.94,18.56-2.9,5.76-6.98,12.74-9.75,13.27-2.77,.52-3.2,.59-8.44-1.87s-23.84-12.57-23.84-12.57l-10.16-30.71s-.02-4.91,1.24-5.63c0,0-1.94-6.03,3.71-10.34,5.65-4.31,11.48-5.55,16.53-5.18,5.05,.37,10.96,2.68,12.56,5.7,1.6,3.02,3.88,15.38,3.88,15.38l13.73,5.46s2.56,1.43,2.42,4.08h0Z"/><path class="cls-4" d="M32.23,78.64c-2.49-5.95-5.05-12.1-5.4-19.23l-.68-14.31c-.06-1.34-.96-2.38-2.01-2.33l-8.38,.4c-1.05,.05-1.84,1.18-1.78,2.51l.68,14.31c.34,7.13-1.63,13.5-3.54,19.66-1.75,5.65-3.4,10.99-3.14,16.5l2.73,57.21c.34,7.03,4.93,9.36,7.94,9.22l13.97-.66c3.01-.14,7.36-2.9,7.03-9.93l-2.73-57.21c-.26-5.51-2.42-10.67-4.7-16.12h0Z"/><g><path class="cls-4" d="M936.98,127.65s13.29,2.98,14.21-5.23c1.39-12.53,2.42-25.12,3.56-37.68,.41-4.51,1.92-9.55-2.38-12.64-3.74-2.69-2.38-5.18-2.38-5.18l-8.79-1.14s.43,1.84-3.03,4.06c-3.46,2.22-4.49,5.01-4.68,9.66-.43,10.75-1.52,21.46-2.42,32.18-.31,3.67-1.1,7.59-.08,11.22,.36,1.29,.92,2.61,1.92,3.53,1.35,1.24,2.51,.83,4.07,1.24h0Z"/><path class="cls-4" d="M940.13,66.62c.05,.02,.1,.04,.15,.05,3.18,1.01,6.57,1.39,9.9,1.13,.2-.02,.41-.04,.55-.17,.17-.15,.21-.39,.25-.61,.2-1.45,.28-2.91,.24-4.38-.01-.35-.05-.74-.33-.95-.16-.12-.37-.15-.57-.17-2.41-.3-4.83-.57-7.25-.82-.43-.05-.88-.09-1.3,.02-1.61,.4-1.74,3.84-1.95,5.16-.03,.19-.05,.4,.06,.55,.06,.09,.16,.15,.26,.19h0Z"/></g><g><path class="cls-4" d="M1000.38,158.9s17.51,3.93,18.71-6.89c1.83-16.51,3.19-33.09,4.69-49.63,.54-5.94,2.54-12.58-3.13-16.65-4.93-3.54-3.14-6.83-3.14-6.83l-11.58-1.5s.56,2.42-3.99,5.35c-4.56,2.93-5.91,6.6-6.15,12.72-.57,14.16-2.01,28.26-3.19,42.38-.41,4.83-1.45,10-.11,14.77,.47,1.7,1.22,3.44,2.54,4.65,1.77,1.64,3.3,1.1,5.36,1.63h0Z"/><path class="cls-4" d="M1004.53,78.52c.07,.03,.14,.05,.2,.07,4.2,1.33,8.65,1.83,13.03,1.49,.26-.02,.53-.05,.73-.22,.23-.19,.28-.51,.32-.8,.26-1.91,.37-3.84,.32-5.77-.01-.46-.07-.98-.43-1.25-.21-.16-.5-.2-.76-.23-3.18-.39-6.36-.75-9.55-1.08-.57-.06-1.15-.12-1.72,.02-2.12,.52-2.29,5.06-2.57,6.8-.04,.25-.07,.52,.07,.73,.08,.12,.21,.19,.34,.24h.01Z"/></g><path class="cls-4" d="M973.88,65c3.23-3.82,6.57-7.77,11.41-10.02l9.72-4.51c.91-.42,1.31-1.5,.88-2.41l-3.39-7.29c-.42-.91-1.5-1.31-2.41-.88l-9.72,4.51c-4.84,2.25-10.01,2.25-15.02,2.25-4.59,0-8.92,0-12.67,1.74l-38.88,18.05c-4.78,2.22-4.7,6.91-3.49,9.53l5.64,12.15c1.22,2.62,4.75,5.7,9.53,3.49l38.88-18.05c3.75-1.74,6.54-5.05,9.5-8.56h0Z"/><path class="cls-4" d="M875.4,115.98c-4.17-6.98-8.47-14.21-9.37-22.85l-1.8-17.33c-.17-1.62-1.62-2.8-3.24-2.63l-13,1.35c-1.62,.17-2.8,1.62-2.63,3.24l1.8,17.33c.9,8.64-1.83,16.59-4.48,24.29-2.42,7.05-4.71,13.72-4.02,20.4l7.2,69.34c.88,8.52,8.15,10.88,12.81,10.4l21.66-2.25c4.66-.48,11.29-4.29,10.4-12.81l-7.2-69.34c-.7-6.68-4.31-12.73-8.13-19.14h0Z"/><path class="cls-4" d="M943.64,74.46c-1.35-4.41-5.76-6.84-10.35-10.37-5.5-4.23-5.33-7-4.35-10.14,.98-3.14,9.48-8.65,11.98-9.21,0,0,7.71-.67,15.77,3.56,8.06,4.23,11.9,10.54,11.9,10.54l2.91,5.44c4.57,1.23,9.45,2.51,11.53,3.2,4.04,1.36,16.55,10.5,24.01,16.12s13.02,3.58,20.07,10.58,1.13,14.4,1.13,14.4c0,0-10.94,20.29-14.98,27.48s-7.73,10.73-11.89,14.23c-4.17,3.5-11.02,14.42-12.74,17.48-1.72,3.07-4.74,8-13.3,6.1-8.56-1.9-10.1-6.37-12.65-9.6-2.54-3.23-10.23-7.5-17.61-11.52-7.38-4.02-17.98-12.33-21.62-16.35-3.64-4.02-9.16-10.41-20.89-17.32-11.72-6.91-11.9-12.66-11.49-14.9s7.94-8.09,7.94-8.09c2.62-2.18,12.93,.26,12.93,.26,0,0,6.98,1.31,10.42,1.5s6.96-5.71,8.08-7.54c1.13-1.83,13.16-15.61,13.16-15.61"/><g><path class="cls-4" d="M904.91,120.42s17.51,3.93,18.71-6.89c1.83-16.51,3.19-33.09,4.69-49.63,.54-5.94,2.54-12.58-3.13-16.65-4.93-3.54-3.14-6.83-3.14-6.83l-11.58-1.5s.56,2.42-3.99,5.35c-4.56,2.93-5.91,6.6-6.15,12.72-.57,14.16-2.01,28.26-3.19,42.38-.41,4.83-1.45,10-.11,14.77,.47,1.7,1.22,3.44,2.54,4.65,1.77,1.64,3.3,1.1,5.36,1.63h0Z"/><path class="cls-4" d="M909.05,40.03c.07,.03,.14,.05,.2,.07,4.2,1.33,8.65,1.83,13.03,1.49,.26-.02,.53-.05,.73-.22,.23-.19,.28-.51,.32-.8,.26-1.91,.37-3.84,.32-5.77-.01-.46-.07-.98-.43-1.25-.21-.16-.5-.2-.76-.23-3.18-.39-6.36-.75-9.55-1.08-.57-.06-1.15-.12-1.72,.02-2.12,.52-2.29,5.06-2.57,6.8-.04,.25-.07,.52,.07,.73,.08,.12,.21,.19,.34,.24h.01Z"/></g><g><path class="cls-4" d="M892.91,121.39s17.88-1.49,15.79-12.18c-3.2-16.3-6.86-32.52-10.38-48.76-1.26-5.83-1.34-12.76-7.98-14.95-5.76-1.9-5.04-5.58-5.04-5.58l-11.49,2.03s1.27,2.14-2.21,6.3c-3.47,4.16-3.67,8.06-2.06,13.98,3.7,13.68,6.55,27.57,9.64,41.39,1.06,4.74,1.61,9.97,4.31,14.13,.96,1.47,2.19,2.91,3.81,3.68,2.18,1.03,3.48,.06,5.6-.05h0Z"/><path class="cls-4" d="M872.8,43.45c.07,0,.14,0,.21,0,4.4,.01,8.8-.84,12.88-2.49,.24-.1,.49-.21,.63-.43,.16-.25,.12-.57,.07-.87-.32-1.9-.79-3.77-1.42-5.6-.15-.43-.35-.92-.79-1.07-.25-.09-.53-.04-.79,0-3.15,.58-6.3,1.19-9.43,1.83-.56,.11-1.14,.24-1.63,.53-1.86,1.14-.67,5.51-.41,7.26,.04,.25,.09,.52,.29,.68,.11,.08,.25,.12,.4,.13h0Z"/></g><path class="cls-4" d="M523.24,59.83c-5.24-3.76-10.66-7.65-14.69-13.54l-8.1-11.81c-.76-1.11-2.07-1.52-2.94-.93l-6.92,4.74c-.87,.59-.95,1.97-.19,3.07l8.1,11.81c4.03,5.89,5.7,12.34,7.31,18.59,1.48,5.73,2.87,11.13,6,15.69l32.38,47.26c3.98,5.81,9.11,5.38,11.6,3.67l11.54-7.9c2.49-1.7,4.74-6.34,.76-12.14l-32.38-47.26c-3.12-4.55-7.66-7.81-12.47-11.26Z"/><path class="cls-4" d="M841.49,120.68s2.19,2.15,1,4.81c-1.19,2.66-7.57,10.52-12.74,14.37-5.18,3.85-11.96,8.25-14.67,7.48-2.71-.78-3.12-.91-6.71-5.46-3.59-4.55-15.66-21.93-15.66-21.93l4.71-32.01s2.18-4.4,3.64-4.47c0,0,.97-6.26,7.95-7.58,6.98-1.32,12.75,.19,17.1,2.79,4.35,2.6,8.6,7.32,8.67,10.73,.07,3.41-3.44,15.48-3.44,15.48l9.82,11.04s1.65,2.43,.33,4.73h-.01Z"/><path class="cls-4" d="M548.19,65.61c-3.03-5.69-6.16-11.58-7.16-18.65l-2.01-14.18c-.19-1.33-1.18-2.28-2.22-2.13l-8.31,1.18c-1.04,.15-1.72,1.34-1.54,2.67l2.01,14.18c1,7.07-.37,13.59-1.69,19.9-1.22,5.79-2.36,11.26-1.59,16.72l8.06,56.71c.99,6.96,5.78,8.86,8.76,8.44l13.85-1.97c2.98-.42,7.06-3.58,6.07-10.54l-8.06-56.71c-.78-5.47-3.4-10.4-6.18-15.62h0Z"/><path class="cls-4" d="M972.57,57.15s-2.15-.1-4.6-3.21c-2.45-3.12-7.29-12.37-7.29-12.37,0,0,.2-2.11,5.52,5.87,0,0,3.45,2.41-2.82-6.9,0,0-1.73-4.66,5.93,6.39,0,0,3.21,2.08-3.5-7.65,0,0-.69-3.9,5.95,5.06,6.64,8.97,3.2,10.68,3.41,11.38,.22,.69,18.19,26.36,17.78,28.39-.41,2.03-4.01,3.81-14.33-15.18l-6.05-11.77Z"/><g><path class="cls-4" d="M428.93,109.66s10.94,7.99,15.03,.87c6.24-10.88,2.85-5.19,8.88-16.19,2.16-3.95,5.55-7.94,2.85-12.47-2.35-3.93-.11-5.67-.11-5.67l-7.56-4.53s-.34,1.85-4.38,2.5c-4.03,.65-6.08,2.78-8.1,6.95-4.66,9.63-.58,2.21-5.65,11.63-1.74,3.22-4.02,6.49-4.53,10.19-.18,1.32-.19,2.75,.35,3.98,.74,1.67,1.96,1.76,3.22,2.75Z"/><path class="cls-4" d="M446.69,72.01s.08,.07,.12,.11c2.5,2.18,5.43,3.88,8.57,4.95,.19,.06,.38,.12,.57,.07,.21-.07,.35-.27,.47-.46,.76-1.24,1.41-2.54,1.96-3.89,.13-.32,.25-.7,.08-1-.1-.17-.28-.29-.46-.39-2.08-1.23-4.18-2.44-6.28-3.62-.38-.21-.77-.43-1.19-.5-1.63-.28-3.11,2.81-3.83,3.93-.1,.16-.21,.34-.17,.53,.02,.11,.08,.19,.16,.27h0Z"/></g><g><path class="cls-4" d="M459.14,68.88c3.65,5.05,7.3,10.1,10.94,15.15,1.34,1.86,2.64,3.75,4.03,5.58,.97,1.28,1.84,2.18,3.51,2.37,2.72,.32,5.57-1.06,7.9-2.32,3.38-1.82,6.93-4.29,6.15-8.58-.48-2.66-8.5-24.67-8.5-24.67"/><path class="cls-4" d="M483.55,56.19c-.14-.26-.33-.5-.56-.69-.29-.24-.64-.43-1.04-.56-.69-.23-1.52-.32-2.47-.28-1.42,.05-3.1,.38-4.93,.94-1.83,.57-3.81,1.38-5.82,2.42-1.87,.97-3.56,2.04-5.01,3.13-1.45,1.09-2.66,2.2-3.55,3.27-.71,.85-1.23,1.67-1.5,2.45-.14,.39-.21,.78-.21,1.15,0,.37,.08,.74,.25,1.06,.14,.26,.33,.5,.56,.69,.29,.24,.64,.43,1.04,.56,.69,.23,1.52,.32,2.47,.28,1.42-.05,3.1-.38,4.93-.94,1.83-.57,3.81-1.38,5.82-2.42,1.87-.97,3.56-2.04,5.01-3.13,1.45-1.09,2.66-2.2,3.55-3.27,.71-.85,1.23-1.67,1.5-2.45,.14-.39,.21-.78,.21-1.15,0-.37-.08-.74-.25-1.06"/></g><path class="cls-4" d="M459.96,104.66c4.59-.44,7.85-4.28,12.23-8.07,5.24-4.55,7.93-3.83,10.81-2.24,2.89,1.59,6.58,11.02,6.63,13.58,0,0-.88,7.68-6.64,14.75-5.76,7.05-12.7,9.55-12.7,9.55l-5.91,1.77c-2.12,4.23-4.35,8.76-5.44,10.66-2.13,3.69-13.59,14.12-20.59,20.3-7,6.18-6.11,12.04-14.37,17.55-8.26,5.5-14.33-1.77-14.33-1.77,0,0-17.7-14.77-23.94-20.16-6.23-5.4-8.97-9.72-11.57-14.5-2.6-4.78-11.93-13.68-14.59-15.98-2.66-2.3-6.89-6.24-3.32-14.25,3.57-8.01,8.26-8.63,11.94-10.48,3.67-1.85,9.39-8.53,14.81-14.95,5.41-6.42,15.67-15.16,20.34-17.92,4.67-2.76,12.03-6.9,21.15-17.01,9.12-10.11,14.79-9.14,16.89-8.28,2.1,.86,6.34,9.4,6.34,9.4,1.61,3-2.84,12.62-2.84,12.62,0,0-2.68,6.58-3.55,9.91-.87,3.33,4.2,7.96,5.78,9.43,1.57,1.47,12.66,16.02,12.66,16.02"/><path class="cls-4" d="M467.46,69.44s1.07-1.67,2.91-1.27c1.83,.4,7.65,3.39,10.77,6.15,3.12,2.76,6.8,6.46,6.67,8.28-.13,1.82-.16,2.09-2.56,4.96-2.4,2.87-11.79,12.8-11.79,12.8l-20.84,1.27s-3.07-.8-3.31-1.7c0,0-4.08,.21-5.84-4.02-1.76-4.24-1.57-8.08-.5-11.17,1.07-3.09,3.49-6.4,5.63-6.9,2.15-.5,10.24,.12,10.24,.12l5.68-7.67s1.32-1.36,2.95-.83h0Z"/><path class="cls-4" d="M511.59,69.48c-3.45-4.5-7.01-9.15-8.33-15.06l-2.64-11.85c-.25-1.11-1.34-1.81-2.45-1.56l-8.89,1.98c-1.11,.25-1.81,1.34-1.56,2.45l2.64,11.85c1.32,5.91,.06,11.63-1.15,17.17-1.11,5.07-2.16,9.87-1.14,14.44l10.56,47.41c1.3,5.82,6.51,6.87,9.7,6.17l14.81-3.3c3.19-.71,7.47-3.88,6.17-9.7l-10.56-47.41c-1.02-4.57-4.01-8.47-7.17-12.59h0Z"/><path class="cls-4" d="M540.18,122.35c4.55,.78,8.7-2.06,13.92-4.59,6.25-3.01,8.65-1.61,11.02,.67,2.37,2.29,3.46,12.35,2.84,14.84,0,0-2.87,7.18-10.27,12.48-7.4,5.3-14.77,5.88-14.77,5.88l-6.17,.16c-3.15,3.53-6.49,7.31-8.04,8.85-3.03,3-16.82,10.05-25.19,14.19-8.38,4.13-9.06,10.02-18.48,13.16-9.42,3.14-13.37-5.47-13.37-5.47,0,0-13.21-18.89-17.81-25.73-4.6-6.84-6.11-11.73-7.36-17.02-1.25-5.29-7.92-16.33-9.88-19.24-1.96-2.91-5.02-7.83,.53-14.62,5.54-6.8,10.24-6.16,14.27-6.98,4.03-.82,11.3-5.77,18.21-10.55,6.91-4.78,19.1-10.51,24.33-11.95,5.23-1.44,13.42-3.51,24.87-10.87,11.45-7.36,16.67-4.94,18.47-3.56,1.81,1.37,3.66,10.73,3.66,10.73,.77,3.31-6.05,11.43-6.05,11.43,0,0-4.31,5.64-6.03,8.63-1.71,2.99,1.97,8.78,3.11,10.61,1.13,1.83,8.02,18.78,8.02,18.78"/><path class="cls-4" d="M429.01,58.96s2.35-2.49,2.78-4.68c.43-2.18-.23-12.84-4.5-13.47-4.28-.62-5.76,11.11-5.76,11.11,0,0,.11,3.5,2.78,6.51,2.68,3,1.56,10.05,1.15,21.16-.41,11.11,2.95,9.09,2.95,9.09,0,0,2.75-.17,1.66-8.48-1.09-8.31-3.37-17.94-1.07-21.25h0Z"/><g><path class="cls-4" d="M362.75,155.52s16.78,7.15,20.28-6.45c5.34-20.76,10.24-41.65,15.27-62.49,1.81-7.48,5.23-15.67,.39-21.55-4.2-5.1-1.7-9.06-1.7-9.06l-11.32-3.34s.05,3.15-5.15,6.31c-5.2,3.16-7.35,7.66-8.89,15.41-3.58,17.92-8.02,35.67-12.21,53.47-1.43,6.09-3.58,12.53-3.25,18.76,.12,2.22,.5,4.52,1.56,6.23,1.43,2.3,3.09,1.8,5.05,2.73h-.01Z"/><path class="cls-4" d="M384,53.87c.06,.04,.12,.08,.19,.11,3.94,2.2,8.31,3.39,12.79,3.49,.26,0,.55,0,.78-.19,.26-.22,.39-.61,.5-.98,.67-2.39,1.19-4.83,1.55-7.29,.08-.59,.14-1.25-.17-1.65-.18-.23-.46-.31-.71-.38-3.12-.89-6.24-1.74-9.38-2.55-.56-.15-1.14-.29-1.73-.18-2.24,.41-3.38,6.14-4.03,8.33-.09,.31-.18,.66-.08,.93,.06,.16,.17,.26,.29,.35h0Z"/></g><g><path class="cls-4" d="M375.41,112.83s14.11-1.6,12.2-10c-2.91-12.82-6.19-25.56-9.36-38.32-1.14-4.58-1.36-10.06-6.66-11.64-4.6-1.37-4.12-4.29-4.12-4.29l-9.05,1.88s1.05,1.67-1.6,5.04c-2.65,3.37-2.71,6.46-1.31,11.11,3.25,10.73,5.83,21.65,8.6,32.52,.95,3.72,1.51,7.85,3.75,11.08,.79,1.15,1.8,2.26,3.1,2.82,1.75,.77,2.76-.04,4.43-.17h0Z"/><path class="cls-4" d="M357.68,51.65h.17c3.48-.1,6.94-.87,10.13-2.27,.19-.08,.38-.17,.49-.35,.12-.2,.08-.46,.03-.69-.3-1.5-.71-2.96-1.25-4.39-.13-.34-.3-.71-.65-.83-.2-.06-.42-.02-.62,.02-2.48,.53-4.95,1.09-7.42,1.67-.44,.1-.89,.21-1.28,.46-1.45,.94-.4,4.38-.16,5.75,.03,.2,.08,.41,.25,.53,.09,.07,.2,.09,.32,.1h0Z"/></g><polygon class="cls-4" points="1.9 118.3 150.29 87.55 228.57 113.08 280.89 92.27 337.15 110.83 387.22 102.96 457.09 105.99 504.18 79 575.36 100.68 642.43 98.39 697.18 79 795.52 85.34 877.23 75.95 923.36 92.83 1016.18 106.89 1122.9 117.37 1122.9 294.43 1.9 294.43 1.9 118.3"/><polygon class="cls-4" points="998.59 38.82 983.35 70.76 1005.03 83.64 1025.34 54.71 1027.18 55.8 1028.93 52.85 1028.46 49.14 1001.85 33.33 998.46 34.76 996.65 37.82 998.59 38.82"/><polygon class="cls-4" points="293.7 60.32 278.45 92.26 300.13 105.14 320.44 76.21 322.28 77.3 324.03 74.36 323.57 70.64 296.96 54.84 293.57 56.27 291.76 59.32 293.7 60.32"/><polygon class="cls-4" points="123.16 53.54 143.7 82.35 165.48 69.63 150.02 37.84 151.86 36.76 150.13 33.81 146.66 32.41 119.94 48.03 119.55 51.68 121.34 54.75 123.16 53.54"/><polygon class="cls-4" points="126.92 58.12 111.67 90.06 133.36 102.94 153.66 74.01 155.5 75.1 157.25 72.15 156.79 68.44 130.18 52.63 126.79 54.06 124.98 57.11 126.92 58.12"/><polygon class="cls-4" points="690.43 46.29 702.47 79.58 726.87 73.18 720.53 38.4 722.6 37.86 721.72 34.55 718.76 32.26 688.82 40.12 687.46 43.54 688.36 46.97 690.43 46.29"/><polygon class="cls-4" points="586.09 59.08 557.11 38.77 540.82 58.02 566 82.83 564.61 84.46 567.23 86.68 570.97 86.84 590.96 63.2 590.11 59.63 587.4 57.34 586.09 59.08"/><g><path class="cls-4" d="M627.32,145.34s17.51,3.93,18.71-6.89c1.83-16.51,3.19-33.09,4.69-49.63,.54-5.94,2.54-12.58-3.13-16.65-4.93-3.54-3.14-6.83-3.14-6.83l-11.58-1.5s.56,2.42-3.99,5.35c-4.56,2.93-5.91,6.6-6.15,12.72-.57,14.16-2.01,28.26-3.19,42.38-.41,4.83-1.45,10-.11,14.77,.47,1.7,1.22,3.44,2.54,4.65,1.77,1.64,3.3,1.1,5.36,1.63h0Z"/><path class="cls-4" d="M631.47,64.95c.07,.03,.14,.05,.2,.07,4.2,1.33,8.65,1.83,13.03,1.49,.26-.02,.53-.05,.73-.22,.23-.19,.28-.51,.32-.8,.26-1.91,.37-3.84,.32-5.77-.01-.46-.07-.98-.43-1.25-.21-.16-.5-.2-.76-.23-3.18-.39-6.36-.75-9.55-1.08-.57-.06-1.15-.12-1.72,.02-2.12,.52-2.29,5.06-2.57,6.8-.04,.25-.07,.52,.07,.73,.08,.12,.21,.19,.34,.24h.01Z"/></g><g><path class="cls-4" d="M619.83,137.31s17.88-1.49,15.79-12.18c-3.2-16.3-6.86-32.52-10.38-48.76-1.26-5.83-1.34-12.76-7.98-14.95-5.76-1.9-5.04-5.58-5.04-5.58l-11.49,2.03s1.27,2.14-2.21,6.3c-3.47,4.16-3.67,8.06-2.06,13.98,3.7,13.68,6.55,27.57,9.64,41.39,1.06,4.74,1.61,9.97,4.31,14.13,.96,1.47,2.19,2.91,3.81,3.68,2.18,1.03,3.48,.06,5.6-.05h0Z"/><path class="cls-4" d="M599.72,59.37c.07,0,.14,0,.21,0,4.4,.01,8.8-.84,12.88-2.49,.24-.1,.49-.21,.63-.43,.16-.25,.12-.57,.07-.87-.32-1.9-.79-3.77-1.42-5.6-.15-.43-.35-.92-.79-1.07-.25-.09-.53-.04-.79,0-3.15,.58-6.3,1.19-9.43,1.83-.56,.11-1.14,.24-1.63,.53-1.86,1.14-.67,5.51-.41,7.26,.04,.25,.09,.52,.29,.68,.11,.08,.25,.12,.4,.13h0Z"/></g><path class="cls-4" d="M614.54,115.79s2.19,2.15,1,4.81-7.57,10.52-12.74,14.37c-5.18,3.85-11.96,8.25-14.67,7.48-2.71-.78-3.12-.91-6.71-5.46s-15.66-21.93-15.66-21.93l4.71-32.01s2.18-4.4,3.64-4.47c0,0,.97-6.26,7.95-7.58,6.98-1.32,12.75,.19,17.1,2.79,4.35,2.6,8.6,7.32,8.67,10.73,.07,3.41-3.44,15.48-3.44,15.48l9.82,11.04s1.65,2.43,.33,4.73h-.01Z"/><g><path class="cls-4" d="M656,130.44s17.51,3.93,18.71-6.89c1.83-16.51,3.19-33.09,4.69-49.63,.54-5.94,2.54-12.58-3.13-16.65-4.93-3.54-3.14-6.83-3.14-6.83l-11.58-1.5s.56,2.42-3.99,5.35c-4.56,2.93-5.91,6.6-6.15,12.72-.57,14.16-2.01,28.26-3.19,42.38-.41,4.83-1.45,10-.11,14.77,.47,1.7,1.22,3.44,2.54,4.65,1.77,1.64,3.3,1.1,5.36,1.63h0Z"/><path class="cls-4" d="M660.15,50.06c.07,.03,.14,.05,.2,.07,4.2,1.33,8.65,1.83,13.03,1.49,.26-.02,.53-.05,.73-.22,.23-.19,.28-.51,.32-.8,.26-1.91,.37-3.84,.32-5.77-.01-.46-.07-.98-.43-1.25-.21-.16-.5-.2-.76-.23-3.18-.39-6.36-.75-9.55-1.08-.57-.06-1.15-.12-1.72,.02-2.12,.52-2.29,5.06-2.57,6.8-.04,.25-.07,.52,.07,.73,.08,.12,.21,.19,.34,.24h.01Z"/></g><g><path class="cls-4" d="M394.29,69.1c3.65,5.05,7.3,10.1,10.94,15.15,1.34,1.86,2.64,3.75,4.03,5.58,.97,1.28,1.84,2.18,3.51,2.37,2.72,.32,5.57-1.06,7.9-2.32,3.38-1.82,6.93-4.29,6.15-8.58-.48-2.66-8.5-24.67-8.5-24.67"/><path class="cls-4" d="M418.7,56.41c-.14-.26-.33-.5-.56-.69-.29-.24-.64-.43-1.04-.56-.69-.23-1.52-.32-2.47-.28-1.42,.05-3.1,.38-4.93,.94-1.83,.57-3.81,1.38-5.82,2.42-1.87,.97-3.56,2.04-5.01,3.13-1.45,1.09-2.66,2.2-3.55,3.27-.71,.85-1.23,1.67-1.5,2.45-.14,.39-.21,.78-.21,1.15,0,.37,.08,.74,.25,1.06,.14,.26,.33,.5,.56,.69,.29,.24,.64,.43,1.04,.56,.69,.23,1.52,.32,2.47,.28,1.42-.05,3.1-.38,4.93-.94,1.83-.57,3.81-1.38,5.82-2.42,1.87-.97,3.56-2.04,5.01-3.13,1.45-1.09,2.66-2.2,3.55-3.27,.71-.85,1.23-1.67,1.5-2.45,.14-.39,.21-.78,.21-1.15,0-.37-.08-.74-.25-1.06"/></g><polygon class="cls-4" points="373.98 77.84 345.01 57.52 328.72 76.78 353.89 101.59 352.52 103.23 355.13 105.44 358.87 105.6 378.86 81.96 378.01 78.38 375.3 76.09 373.98 77.84"/><path class="cls-4" d="M340.38,77.86c-3.03-5.69-6.16-11.58-7.16-18.65l-2.01-14.18c-.19-1.33-1.18-2.28-2.22-2.13l-8.31,1.18c-1.04,.15-1.72,1.34-1.54,2.67l2.01,14.18c1,7.07-.37,13.59-1.69,19.9-1.22,5.79-2.36,11.26-1.59,16.72l8.06,56.71c.99,6.96,5.78,8.86,8.76,8.44l13.85-1.97c2.98-.42,7.06-3.58,6.07-10.54l-8.06-56.71c-.78-5.47-3.4-10.4-6.18-15.62h0Z"/><path class="cls-4" d="M380.26,87.59c5.52-3.34,11.23-6.78,18.23-8.17l14.05-2.78c1.32-.26,2.22-1.31,2.01-2.33l-1.63-8.23c-.2-1.03-1.43-1.65-2.75-1.39l-14.05,2.78c-7,1.38-13.59,.38-19.97-.6-5.85-.9-11.36-1.75-16.78-.68l-56.19,11.13c-6.9,1.37-8.53,6.26-7.95,9.21l2.72,13.72c.59,2.95,3.95,6.85,10.86,5.49l56.19-11.13c5.42-1.07,10.19-3.97,15.26-7.02h0Z"/><path class="cls-4" d="M496.21,122.3c-3.03-5.69-6.16-11.58-7.16-18.65l-2.01-14.18c-.19-1.33-1.18-2.28-2.22-2.13l-8.31,1.18c-1.04,.15-1.72,1.34-1.54,2.67l2.01,14.18c1,7.07-.37,13.59-1.69,19.9-1.22,5.79-2.36,11.26-1.59,16.72l8.06,56.71c.99,6.96,5.78,8.86,8.76,8.44l13.85-1.97c2.98-.42,7.06-3.58,6.07-10.54l-8.06-56.71c-.78-5.47-3.4-10.4-6.18-15.62h0Z"/><g><path class="cls-4" d="M729.5,90.16s4.19,12.96,11.73,9.57c11.5-5.18,22.86-10.69,34.26-16.1,4.09-1.94,9.2-3.2,9.68-8.48,.41-4.59,3.25-4.69,3.25-4.69l-3.49-8.15s-1.37,1.31-5.04-.55c-3.67-1.85-6.59-1.32-10.69,.89-9.47,5.1-19.25,9.6-28.94,14.28-3.32,1.6-7.09,2.91-9.7,5.63-.93,.97-1.78,2.12-2.06,3.45-.38,1.79,.56,2.58,1.01,4.13h0Z"/><path class="cls-4" d="M783.65,61.84c0,.05,.02,.11,.03,.16,.75,3.25,2.14,6.36,4.06,9.09,.11,.16,.24,.33,.42,.39,.21,.07,.44-.01,.65-.1,1.35-.56,2.66-1.24,3.89-2.01,.29-.19,.61-.42,.65-.77,.02-.2-.06-.4-.14-.59-.97-2.23-1.97-4.45-2.98-6.66-.18-.39-.37-.8-.68-1.11-1.16-1.18-4.19,.46-5.43,.95-.17,.07-.37,.16-.45,.33-.04,.1-.04,.21-.03,.32h0Z"/></g><path class="cls-4" d="M383.92,111.34c5.52-3.34,11.23-6.78,18.23-8.17l14.05-2.78c1.32-.26,2.22-1.31,2.01-2.33l-1.63-8.23c-.2-1.03-1.43-1.65-2.75-1.39l-14.05,2.78c-7,1.38-13.59,.38-19.97-.6-5.85-.9-11.36-1.75-16.78-.68l-56.19,11.13c-6.9,1.37-8.53,6.26-7.95,9.21l2.72,13.72c.59,2.95,3.95,6.85,10.86,5.49l56.19-11.13c5.42-1.07,10.19-3.97,15.26-7.02h0Z"/></g><g class="cls-3"><g><path class="cls-4" d="M1088.19,160.79s13.22-3.3,10.35-11.05c-4.39-11.83-9.11-23.53-13.73-35.27-1.65-4.21-2.57-9.4-7.8-10.23-4.55-.72-4.46-3.56-4.46-3.56l-8.37,2.93s1.21,1.45-.88,4.99c-2.09,3.54-1.76,6.49,.16,10.73,4.44,9.8,8.27,19.86,12.28,29.84,1.37,3.42,2.42,7.28,4.96,10.06,.9,.99,2,1.92,3.31,2.3,1.76,.51,2.62-.38,4.19-.73h0Z"/><path class="cls-4" d="M1063.61,104.84c.06,0,.11-.01,.16-.02,3.3-.53,6.49-1.7,9.34-3.43,.17-.1,.34-.21,.42-.39,.08-.21,.02-.44-.06-.66-.47-1.38-1.06-2.73-1.74-4.02-.16-.31-.38-.64-.72-.7-.2-.03-.4,.03-.59,.1-2.29,.82-4.57,1.66-6.85,2.52-.41,.15-.82,.32-1.15,.6-1.25,1.08,.17,4.21,.58,5.49,.06,.18,.13,.38,.3,.47,.1,.05,.2,.06,.32,.05Z"/></g><g><path class="cls-4" d="M56.79,171.52s17.41-4.35,13.63-14.55c-5.78-15.58-12-31-18.08-46.46-2.18-5.55-3.38-12.38-10.27-13.47-5.99-.95-5.87-4.69-5.87-4.69l-11.02,3.85s1.59,1.91-1.16,6.57c-2.76,4.66-2.32,8.55,.21,14.13,5.85,12.91,10.89,26.16,16.17,39.31,1.81,4.5,3.2,9.59,6.53,13.25,1.19,1.31,2.63,2.53,4.35,3.02,2.32,.67,3.44-.51,5.52-.95h0Z"/><path class="cls-4" d="M24.41,97.82c.07,0,.14-.02,.21-.03,4.34-.7,8.55-2.24,12.31-4.52,.22-.14,.45-.29,.55-.52,.11-.28,.02-.59-.07-.87-.62-1.82-1.39-3.6-2.3-5.29-.21-.41-.5-.85-.95-.93-.26-.05-.53,.05-.78,.14-3.02,1.08-6.03,2.19-9.02,3.32-.53,.2-1.09,.42-1.52,.79-1.65,1.42,.23,5.55,.76,7.23,.08,.24,.17,.5,.39,.62,.12,.07,.27,.08,.42,.07h0Z"/></g><g><path class="cls-4" d="M69.49,126.77s12.54,5.13,14.79-2.78c3.44-12.06,1.51-5.73,4.71-17.85,1.15-4.35,3.47-9.05-.24-12.79-3.22-3.25-1.48-5.48-1.48-5.48l-8.43-2.57s.12,1.87-3.65,3.48c-3.76,1.6-5.23,4.17-6.18,8.7-2.2,10.47-.03,2.28-2.68,12.65-.91,3.55-2.33,7.26-1.94,10.98,.14,1.32,.47,2.71,1.31,3.78,1.11,1.44,2.32,1.23,3.79,1.88h0Z"/><path class="cls-4" d="M77.66,85.95s.1,.05,.14,.08c2.95,1.51,6.21,2.45,9.51,2.74,.19,.02,.41,.03,.57-.07,.19-.12,.28-.34,.34-.56,.44-1.39,.76-2.81,.96-4.25,.05-.34,.07-.74-.16-.99-.14-.15-.34-.21-.53-.26-2.32-.69-4.64-1.36-6.98-2-.42-.12-.84-.23-1.28-.2-1.64,.12-2.34,3.48-2.76,4.74-.06,.18-.12,.38-.03,.55,.05,.1,.13,.17,.23,.23h0Z"/></g><path class="cls-4" d="M890.54,110.35s3.16-1.31,4.46-3.12,5.07-11.8,1.43-14.13c-3.65-2.32-9.81,7.77-9.81,7.77,0,0-1.34,3.23-.14,7.08,1.21,3.84-2.71,9.81-7.65,19.77-4.94,9.96-1.05,9.5-1.05,9.5,0,0,2.58,.98,5-7.05s4.3-17.74,7.75-19.81h0Z"/><g><path class="cls-4" d="M578.1,77.62c-.66,6.19-1.33,12.39-2,18.58-.25,2.28-.54,4.56-.73,6.84-.14,1.61-.09,2.85,1.02,4.11,1.81,2.06,4.86,2.94,7.43,3.56,3.74,.91,8.02,1.45,10.31-2.27,1.42-2.31,10.18-24.03,10.18-24.03"/><path class="cls-4" d="M604.74,84.51c.07-.29,.09-.59,.04-.88-.06-.38-.19-.74-.4-1.11-.36-.64-.92-1.25-1.65-1.86-1.09-.91-2.55-1.79-4.3-2.6-1.74-.8-3.76-1.52-5.94-2.09-2.04-.53-4.01-.87-5.82-1.02s-3.45-.14-4.83,.06c-1.1,.16-2.03,.42-2.76,.82-.37,.2-.68,.43-.92,.71-.25,.28-.43,.6-.52,.96-.07,.29-.09,.59-.04,.88,.06,.38,.19,.74,.4,1.11,.36,.64,.92,1.25,1.65,1.86,1.09,.91,2.55,1.79,4.3,2.6,1.74,.8,3.76,1.52,5.94,2.09,2.04,.53,4.01,.87,5.82,1.02,1.81,.16,3.45,.14,4.83-.06,1.1-.16,2.03-.42,2.76-.82,.37-.2,.68-.43,.92-.71,.25-.28,.43-.6,.52-.96"/></g><path class="cls-4" d="M1090.51,78.06s-.95-1.93,.6-5.58c1.56-3.65,7.34-12.34,7.34-12.34,0,0,1.94-.84-2.49,7.66,0,0-.46,4.18,4.69-5.79,0,0,3.26-3.76-2.75,8.27,0,0-.28,3.81,5.02-6.76,0,0,3.09-2.49-1.58,7.65-4.66,10.14-7.83,7.94-8.33,8.47-.5,.53-14.36,28.63-16.33,29.25-1.97,.62-5.27-1.68,6.41-19.87l7.41-10.98h0Z"/><path class="cls-4" d="M1101.38,104.83c1.17-4.86,2.38-9.89,5.7-14.08l6.66-8.39c.62-.79,.49-1.92-.29-2.55l-6.3-5c-.79-.62-1.92-.49-2.55,.29l-6.66,8.39c-3.32,4.19-7.94,6.51-12.41,8.75-4.1,2.06-7.97,4.01-10.54,7.24l-26.64,33.58c-3.27,4.12-1.1,8.29,1.16,10.08l10.49,8.33c2.26,1.79,6.81,2.96,10.08-1.16l26.64-33.58c2.57-3.24,3.58-7.45,4.65-11.91h-.01Z"/><path class="cls-4" d="M1020.35,162.91c-6.86-4.37-13.95-8.89-18.63-16.21l-9.39-14.68c-.88-1.37-2.7-1.78-4.08-.89l-11.01,7.04c-1.37,.88-1.78,2.7-.89,4.08l9.39,14.68c4.68,7.32,5.81,15.65,6.9,23.71,1,7.39,1.94,14.37,5.56,20.03l37.55,58.73c4.61,7.21,12.16,6.07,16.11,3.54l18.35-11.74c3.95-2.53,8.16-8.9,3.54-16.11l-37.55-58.73c-3.62-5.66-9.56-9.45-15.86-13.45h0Z"/><path class="cls-4" d="M110.53,104.36c2.6-3.81,1.76-8.76,1.65-14.56-.13-6.94,2.14-8.53,5.21-9.73,3.07-1.2,12.67,2.01,14.67,3.62,0,0,5.33,5.61,7.05,14.55,1.73,8.94-.82,15.88-.82,15.88l-2.44,5.67c1.89,4.34,3.93,8.95,4.69,11.01,1.46,4.01,2.12,19.48,2.37,28.82,.26,9.34,5.32,12.41,4.25,22.28s-10.55,9.86-10.55,9.86c0,0-22.68,4.11-30.82,5.44-8.14,1.33-13.21,.65-18.54-.42-5.33-1.07-18.14,.38-21.61,.95s-9.2,1.29-13.07-6.59c-3.86-7.88-1.32-11.88-.38-15.88,.94-4-.52-12.67-1.98-20.94-1.46-8.27-1.58-21.75-.71-27.1,.87-5.35,2.41-13.65,.51-27.13-1.91-13.48,2.48-17.21,4.47-18.27s11.27,1.15,11.27,1.15c3.34,.68,7.86,10.27,7.86,10.27,0,0,3.33,6.27,5.33,9.07,2,2.8,8.8,1.87,10.94,1.61,2.13-.26,20.41,.55,20.41,.55"/><g><path class="cls-4" d="M833.02,175.16s12.84,4.54,14.72-3.51c2.86-12.28,5.38-24.65,8.01-36.99,.95-4.43,3.05-9.25-.86-12.84-3.39-3.11-1.75-5.43-1.75-5.43l-8.59-2.18s.21,1.88-3.49,3.67c-3.7,1.79-5.05,4.44-5.79,9.03-1.7,10.62-4.06,21.12-6.23,31.66-.74,3.61-1.99,7.41-1.42,11.13,.2,1.32,.61,2.7,1.49,3.74,1.19,1.4,2.39,1.13,3.9,1.71h0Z"/><path class="cls-4" d="M843.4,114.93s.1,.05,.15,.07c3.04,1.38,6.35,2.16,9.69,2.3,.2,0,.41,.01,.57-.1,.19-.12,.26-.36,.32-.58,.37-1.42,.62-2.86,.77-4.31,.03-.35,.04-.74-.21-.98-.15-.14-.35-.19-.55-.24-2.36-.58-4.73-1.14-7.1-1.67-.43-.1-.86-.19-1.29-.14-1.64,.21-2.18,3.61-2.55,4.89-.05,.19-.1,.39-.01,.56,.05,.1,.14,.16,.24,.21h0Z"/></g><path class="cls-4" d="M874.9,135.77c3.66-3.41,7.44-6.94,12.52-8.59l10.19-3.32c.95-.31,1.47-1.33,1.16-2.29l-2.49-7.64c-.31-.95-1.33-1.47-2.29-1.16l-10.19,3.32c-5.08,1.66-10.21,1.05-15.18,.46-4.56-.55-8.85-1.06-12.79,.23l-40.75,13.3c-5.01,1.64-5.49,6.31-4.59,9.05l4.16,12.74c.89,2.74,4.04,6.23,9.05,4.59l40.75-13.3c3.93-1.28,7.09-4.24,10.45-7.37h0Z"/><g><path class="cls-4" d="M682.23,64.39s-13.62-.26-12.87,7.97c1.15,12.56,2.65,25.1,4.04,37.63,.5,4.5,.02,9.74,4.86,11.91,4.2,1.88,3.37,4.6,3.37,4.6l8.84-.64s-.79-1.72,2.15-4.59c2.95-2.87,3.4-5.81,2.65-10.4-1.73-10.62-2.8-21.33-4.06-32.01-.43-3.66-.44-7.66-2.16-11.01-.61-1.19-1.42-2.37-2.59-3.08-1.57-.95-2.62-.32-4.24-.4h0Z"/><path class="cls-4" d="M691.35,124.81c-.05-.01-.11-.02-.16-.02-3.32-.35-6.71-.05-9.92,.87-.19,.06-.39,.12-.51,.28-.14,.18-.14,.42-.12,.65,.09,1.46,.3,2.91,.64,4.34,.08,.34,.2,.72,.51,.87,.19,.08,.39,.07,.6,.06,2.42-.19,4.85-.41,7.27-.65,.43-.05,.88-.09,1.27-.28,1.5-.71,.93-4.11,.88-5.45-.01-.19-.03-.4-.17-.53-.08-.07-.18-.11-.29-.13h0Z"/></g><path class="cls-4" d="M654.89,114.96c-2.4,4.39-4.88,8.92-9.18,12.1l-8.62,6.36c-.8,.6-.98,1.73-.38,2.54l4.77,6.46c.6,.8,1.73,.98,2.54,.38l8.62-6.36c4.3-3.17,9.37-4.21,14.27-5.21,4.49-.92,8.74-1.78,12.06-4.24l34.49-25.46c4.24-3.13,3.22-7.71,1.51-10.03l-7.95-10.78c-1.71-2.32-5.79-4.64-10.03-1.51l-34.49,25.46c-3.32,2.46-5.4,6.26-7.6,10.28h0Z"/><path class="cls-4" d="M-31.81,121.52c-3.18-3.34-8.21-3.53-13.91-4.62-6.81-1.31-7.91-3.86-8.44-7.11-.54-3.25,4.59-11.98,6.57-13.61,0,0,6.59-4.06,15.69-3.9,9.1,.16,15.36,4.08,15.36,4.08l5.05,3.56c4.63-.95,9.58-2,11.74-2.31,4.22-.6,19.49,1.96,28.69,3.63s13.24-2.64,22.68,.45c9.43,3.09,7.47,12.36,7.47,12.36,0,0-.66,23.04-1.05,31.28-.38,8.24-2.09,13.06-4.24,18.06-2.15,5-3.38,17.83-3.54,21.34-.16,3.51-.64,9.27-9.14,11.43-8.5,2.15-11.89-1.16-15.61-2.9-3.72-1.74-12.51-2.11-20.91-2.39-8.39-.28-21.6-2.95-26.66-4.91-5.06-1.96-12.86-5.19-26.44-6.1-13.58-.92-16.33-5.97-16.95-8.16-.63-2.18,3.46-10.8,3.46-10.8,1.36-3.12,11.67-5.57,11.67-5.57,0,0,6.82-1.96,9.98-3.34,3.16-1.38,3.66-8.22,3.84-10.37s4.76-19.85,4.76-19.85"/><path class="cls-4" d="M816.94,124.64s-1.72,1.29-5.59,.45c-3.87-.85-13.49-4.9-13.49-4.9,0,0-1.19-1.75,7.99,1.01,0,0,4.19-.34-6.57-3.53,0,0-4.31-2.49,8.64,1.15,0,0,3.8-.44-7.57-3.67,0,0-3.02-2.57,7.81,.12,10.83,2.69,9.27,6.21,9.87,6.6,.61,.39,30.81,8.75,31.79,10.58,.97,1.82-.66,5.49-20.72-2.58l-12.16-5.23h0Z"/><path class="cls-4" d="M399.38,116.56s-.6-1.9,.89-3.04,7.5-3.7,11.62-4.32c4.12-.62,9.32-1.07,10.63,.19,1.31,1.27,1.5,1.47,2.17,5.15,.66,3.68,2.27,17.25,2.27,17.25l-12.39,16.81s-2.58,1.85-3.43,1.45c0,0-2.45,3.27-6.83,1.9-4.38-1.37-7.21-3.98-8.89-6.78s-2.68-6.78-1.68-8.75c1-1.97,6.66-7.78,6.66-7.78l-2.24-9.28s-.2-1.88,1.25-2.8h0Z"/><path class="cls-4" d="M623.46,105.62c.44-5.65,.91-11.49,3.88-16.76l5.96-10.58c.56-.99,.21-2.24-.78-2.8l-7.93-4.47c-.99-.56-2.24-.21-2.8,.78l-5.96,10.58c-2.98,5.27-7.73,8.69-12.33,11.99-4.22,3.03-8.21,5.9-10.51,9.97l-23.86,42.31c-2.93,5.2,.24,9.47,3.09,11.07l13.22,7.45c2.85,1.6,8.14,2.11,11.07-3.09l23.86-42.31c2.3-4.08,2.68-8.97,3.09-14.15h0Z"/><path class="cls-4" d="M592.71,173.29c2.86,3.62,7.85,4.28,13.41,5.9,6.66,1.94,7.51,4.59,7.74,7.87,.23,3.29-5.69,11.5-7.81,12.93,0,0-6.94,3.42-15.99,2.41-9.05-1.01-14.91-5.5-14.91-5.5l-4.69-4.01c-4.7,.51-9.72,1.1-11.9,1.2-4.26,.21-19.23-3.77-28.22-6.3-9-2.53-13.43,1.4-22.54-2.57-9.1-3.96-6.28-13-6.28-13,0,0,2.82-22.88,3.97-31.04,1.15-8.16,3.3-12.8,5.91-17.58,2.61-4.78,5.03-17.43,5.52-20.92,.49-3.48,1.51-9.18,10.17-10.52,8.67-1.34,11.73,2.27,15.27,4.35,3.54,2.09,12.25,3.27,20.59,4.34,8.33,1.07,21.23,4.96,26.08,7.38,4.85,2.42,12.32,6.37,25.75,8.55,13.43,2.18,15.7,7.48,16.11,9.7,.42,2.23-4.46,10.42-4.46,10.42-1.64,2.98-12.14,4.45-12.14,4.45,0,0-6.98,1.31-10.25,2.39-3.27,1.07-4.41,7.85-4.79,9.96-.38,2.12-6.6,19.32-6.6,19.32"/><path class="cls-4" d="M631.05,97.01s3,1.64,5.23,1.51c2.22-.13,12.37-3.47,11.89-7.76-.48-4.29-12.2-2.76-12.2-2.76,0,0-3.36,.99-5.59,4.34-2.23,3.35-9.33,4.05-20.19,6.46-10.86,2.41-8.05,5.15-8.05,5.15,0,0,.86,2.62,8.62-.53,7.77-3.16,16.51-7.8,20.29-6.4h0Z"/><path class="cls-4" d="M655.87,101.56s1.95-1.46,3.88-.21c1.94,1.25,7.34,7.16,9.73,11.67,2.4,4.51,5.05,10.33,4.12,12.36-.92,2.03-1.08,2.33-5.06,4.6-3.98,2.27-19.01,9.66-19.01,9.66l-24.48-7.46s-3.18-2.23-3.07-3.38c0,0-4.78-1.5-4.99-7.12-.21-5.61,1.65-9.95,4.2-13.04,2.55-3.09,6.74-5.86,9.42-5.51,2.68,.35,11.7,4.52,11.7,4.52l9.8-6.37s2.1-1,3.74,.3v-.02Z"/><g><path class="cls-4" d="M1049.72,155.65s17.41-4.35,13.63-14.55c-5.78-15.58-12-31-18.08-46.46-2.18-5.55-3.38-12.38-10.27-13.47-5.99-.95-5.87-4.69-5.87-4.69l-11.02,3.85s1.59,1.91-1.16,6.57c-2.76,4.66-2.32,8.55,.21,14.13,5.85,12.91,10.89,26.16,16.17,39.31,1.81,4.5,3.2,9.59,6.53,13.25,1.19,1.31,2.63,2.53,4.35,3.02,2.32,.67,3.44-.51,5.52-.95h0Z"/><path class="cls-4" d="M1017.34,81.95c.07,0,.14-.02,.21-.03,4.34-.7,8.55-2.24,12.31-4.52,.22-.14,.45-.29,.55-.52,.11-.28,.02-.59-.07-.87-.62-1.82-1.39-3.6-2.3-5.29-.21-.41-.5-.85-.95-.93-.26-.05-.53,.05-.78,.14-3.02,1.08-6.03,2.19-9.02,3.32-.53,.2-1.09,.42-1.52,.79-1.65,1.42,.23,5.55,.76,7.23,.08,.24,.17,.5,.39,.62,.12,.07,.27,.08,.42,.07h0Z"/></g><g><path class="cls-4" d="M1038.42,159.89s15.31-9.36,8.64-17.97c-10.18-13.13-20.73-25.98-31.16-38.91-3.74-4.64-6.93-10.8-13.84-9.78-6,.88-7-2.72-7-2.72l-9.36,6.98s2.09,1.35,.86,6.62c-1.24,5.27,.34,8.85,4.43,13.42,9.45,10.57,18.22,21.7,27.19,32.66,3.07,3.75,5.92,8.19,10.2,10.69,1.52,.89,3.26,1.62,5.06,1.58,2.41-.06,3.13-1.51,4.98-2.56h0Z"/><path class="cls-4" d="M985.47,99.26c.07-.03,.13-.06,.19-.09,3.93-1.96,7.49-4.7,10.39-8,.17-.19,.35-.41,.37-.66,.03-.29-.15-.56-.33-.8-1.14-1.55-2.4-3.02-3.78-4.37-.33-.32-.73-.66-1.18-.6-.26,.03-.49,.2-.7,.36-2.55,1.93-5.09,3.89-7.61,5.87-.45,.35-.91,.72-1.22,1.21-1.15,1.85,1.87,5.23,2.89,6.67,.15,.2,.32,.43,.56,.47,.14,.03,.28,0,.42-.06h0Z"/></g><path class="cls-4" d="M901.44,126.73c1.54-4.35-.55-8.92-2.14-14.5-1.9-6.67-.12-8.8,2.54-10.75,2.66-1.95,12.76-1.31,15.11-.26,0,0,6.59,4.06,10.55,12.25,3.96,8.2,3.28,15.56,3.28,15.56l-.9,6.1c2.94,3.71,6.1,7.65,7.35,9.44,2.44,3.49,7.04,18.28,9.68,27.25,2.64,8.96,8.33,10.63,9.82,20.45,1.49,9.82-7.67,12.24-7.67,12.24,0,0-20.87,9.79-28.4,13.16s-12.6,4.02-18.03,4.35c-5.43,.33-17.44,5.02-20.65,6.46-3.21,1.43-8.57,3.61-14.32-3.02-5.75-6.62-4.32-11.14-4.44-15.25-.12-4.11-3.75-12.12-7.29-19.74-3.53-7.62-7.11-20.61-7.63-26.01-.53-5.4-1.17-13.82-6.47-26.36-5.31-12.53-2.03-17.27-.36-18.81,1.66-1.54,11.2-1.77,11.2-1.77,3.4-.2,10.23,7.91,10.23,7.91,0,0,4.83,5.21,7.48,7.41,2.65,2.2,8.99-.44,10.99-1.25,2-.8,19.87-4.7,19.87-4.7"/><path class="cls-4" d="M945.26,98.93c-3.27-5.56-6.66-11.3-7.97-18.32l-2.63-14.08c-.25-1.32-1.28-2.23-2.31-2.04l-8.25,1.54c-1.03,.19-1.67,1.41-1.42,2.73l2.63,14.08c1.31,7.02,.23,13.6-.82,19.96-.96,5.83-1.87,11.35-.86,16.78l10.51,56.31c1.29,6.91,6.17,8.6,9.12,8.05l13.75-2.57c2.96-.55,6.9-3.88,5.6-10.8l-10.51-56.31c-1.02-5.43-3.85-10.24-6.86-15.34h0Z"/><path class="cls-4" d="M997.31,111.12s2.93,.94,3.05,3.85c.12,2.91-2.04,12.8-4.94,18.56-2.9,5.76-6.98,12.74-9.75,13.27-2.77,.52-3.2,.59-8.44-1.87-5.25-2.45-23.84-12.57-23.84-12.57l-10.16-30.71s-.02-4.91,1.24-5.63c0,0-1.94-6.03,3.71-10.34,5.65-4.31,11.48-5.55,16.53-5.18,5.05,.37,10.96,2.68,12.56,5.7,1.6,3.02,3.88,15.38,3.88,15.38l13.73,5.46s2.56,1.43,2.42,4.08h0Z"/><path class="cls-4" d="M961.31,106.38c-2.49-5.95-5.05-12.1-5.4-19.23l-.68-14.31c-.06-1.34-.96-2.38-2.01-2.33l-8.38,.4c-1.05,.05-1.84,1.18-1.78,2.51l.68,14.31c.34,7.13-1.63,13.5-3.54,19.66-1.75,5.65-3.4,10.99-3.14,16.5l2.73,57.21c.34,7.03,4.93,9.36,7.94,9.22l13.97-.66c3.01-.14,7.36-2.9,7.03-9.93l-2.73-57.21c-.26-5.51-2.42-10.67-4.7-16.12h0Z"/><g><path class="cls-4" d="M785.35,180.7s13.29,2.98,14.21-5.23c1.39-12.53,2.42-25.12,3.56-37.68,.41-4.51,1.92-9.55-2.38-12.64-3.74-2.69-2.38-5.18-2.38-5.18l-8.79-1.14s.43,1.84-3.03,4.06c-3.46,2.22-4.49,5.01-4.68,9.66-.43,10.75-1.52,21.46-2.42,32.18-.31,3.67-1.1,7.59-.08,11.22,.36,1.29,.92,2.61,1.92,3.53,1.35,1.24,2.51,.83,4.07,1.24h0Z"/><path class="cls-4" d="M788.5,119.68c.05,.02,.1,.04,.15,.05,3.18,1.01,6.57,1.39,9.9,1.13,.2-.02,.41-.04,.55-.17,.17-.15,.21-.39,.25-.61,.2-1.45,.28-2.91,.24-4.38-.01-.35-.05-.74-.33-.95-.16-.12-.37-.15-.57-.17-2.41-.3-4.83-.57-7.25-.82-.43-.05-.88-.09-1.3,.02-1.61,.4-1.74,3.84-1.95,5.16-.03,.19-.05,.4,.06,.55,.06,.09,.16,.15,.26,.19h0Z"/></g><g><path class="cls-4" d="M848.75,211.96s17.51,3.93,18.71-6.89c1.83-16.51,3.19-33.09,4.69-49.63,.54-5.94,2.54-12.58-3.13-16.65-4.93-3.54-3.14-6.83-3.14-6.83l-11.58-1.5s.56,2.42-3.99,5.35c-4.56,2.93-5.91,6.6-6.15,12.72-.57,14.16-2.01,28.26-3.19,42.38-.41,4.83-1.45,10-.11,14.77,.47,1.7,1.22,3.44,2.54,4.65,1.77,1.64,3.3,1.1,5.36,1.63h0Z"/><path class="cls-4" d="M852.89,131.57c.07,.03,.14,.05,.2,.07,4.2,1.33,8.65,1.83,13.03,1.49,.26-.02,.53-.05,.73-.22,.23-.19,.28-.51,.32-.8,.26-1.91,.37-3.84,.32-5.77-.01-.46-.07-.98-.43-1.25-.21-.16-.5-.2-.76-.23-3.18-.39-6.36-.75-9.55-1.08-.57-.06-1.15-.12-1.72,.02-2.12,.52-2.29,5.06-2.57,6.8-.04,.25-.07,.52,.07,.73,.08,.12,.21,.19,.34,.24h.01Z"/></g><path class="cls-4" d="M822.25,136.62c3.23-3.82,6.57-7.77,11.41-10.02l9.72-4.51c.91-.42,1.31-1.5,.88-2.41l-3.39-7.29c-.42-.91-1.5-1.31-2.41-.88l-9.72,4.51c-4.84,2.25-10.01,2.25-15.02,2.25-4.59,0-8.92,0-12.67,1.74l-38.88,18.05c-4.78,2.22-4.7,6.91-3.49,9.53l5.64,12.15c1.22,2.62,4.75,5.7,9.53,3.49l38.88-18.05c3.75-1.74,6.54-5.05,9.5-8.56h0Z"/><path class="cls-4" d="M723.78,152.15c-4.17-6.98-8.47-14.21-9.37-22.85l-1.8-17.33c-.17-1.62-1.62-2.8-3.24-2.63l-13,1.35c-1.62,.17-2.8,1.62-2.63,3.24l1.8,17.33c.9,8.64-1.83,16.59-4.48,24.29-2.42,7.05-4.71,13.72-4.02,20.4l7.2,69.34c.88,8.52,8.15,10.88,12.81,10.4l21.66-2.25c4.66-.48,11.29-4.29,10.4-12.81l-7.2-69.34c-.7-6.68-4.31-12.73-8.13-19.14h0Z"/><path class="cls-4" d="M792.01,127.52c-1.35-4.41-5.76-6.84-10.35-10.37-5.5-4.23-5.33-7-4.35-10.14,.98-3.14,9.48-8.65,11.98-9.21,0,0,7.71-.67,15.77,3.56,8.06,4.23,11.9,10.54,11.9,10.54l2.91,5.44c4.57,1.23,9.45,2.51,11.53,3.2,4.04,1.36,16.55,10.5,24.01,16.12,7.46,5.63,13.02,3.58,20.07,10.58,7.04,7,1.13,14.4,1.13,14.4,0,0-10.94,20.29-14.98,27.48-4.04,7.19-7.73,10.73-11.89,14.23-4.17,3.5-11.02,14.42-12.74,17.48-1.72,3.07-4.74,8-13.3,6.1-8.56-1.9-10.1-6.37-12.65-9.6-2.54-3.23-10.23-7.5-17.61-11.52-7.38-4.02-17.98-12.33-21.62-16.35-3.64-4.02-9.16-10.41-20.89-17.32-11.72-6.91-11.9-12.66-11.49-14.9s7.94-8.09,7.94-8.09c2.62-2.18,12.93,.26,12.93,.26,0,0,6.98,1.31,10.42,1.5,3.44,.19,6.96-5.71,8.08-7.54,1.13-1.83,13.16-15.61,13.16-15.61"/><g><path class="cls-4" d="M753.27,158.84s17.51,3.93,18.71-6.89c1.83-16.51,3.19-33.09,4.69-49.63,.54-5.94,2.54-12.58-3.13-16.65-4.93-3.54-3.14-6.83-3.14-6.83l-11.58-1.5s.56,2.42-3.99,5.35c-4.56,2.93-5.91,6.6-6.15,12.72-.57,14.16-2.01,28.26-3.19,42.38-.41,4.83-1.45,10-.11,14.77,.47,1.7,1.22,3.44,2.54,4.65,1.77,1.64,3.3,1.1,5.36,1.63h0Z"/><path class="cls-4" d="M757.42,78.46c.07,.03,.14,.05,.2,.07,4.2,1.33,8.65,1.83,13.03,1.49,.26-.02,.53-.05,.73-.22,.23-.19,.28-.51,.32-.8,.26-1.91,.37-3.84,.32-5.77-.01-.46-.07-.98-.43-1.25-.21-.16-.5-.2-.76-.23-3.18-.39-6.36-.75-9.55-1.08-.57-.06-1.15-.12-1.72,.02-2.12,.52-2.29,5.06-2.57,6.8-.04,.25-.07,.52,.07,.73,.08,.12,.21,.19,.34,.24h.01Z"/></g><g><path class="cls-4" d="M741.28,157.57s17.88-1.49,15.79-12.18c-3.2-16.3-6.86-32.52-10.38-48.76-1.26-5.83-1.34-12.76-7.98-14.95-5.76-1.9-5.04-5.58-5.04-5.58l-11.49,2.03s1.27,2.14-2.21,6.3c-3.47,4.16-3.67,8.06-2.06,13.98,3.7,13.68,6.55,27.57,9.64,41.39,1.06,4.74,1.61,9.97,4.31,14.13,.96,1.47,2.19,2.91,3.81,3.68,2.18,1.03,3.48,.06,5.6-.05h0Z"/><path class="cls-4" d="M721.17,79.62c.07,0,.14,0,.21,0,4.4,.01,8.8-.84,12.88-2.49,.24-.1,.49-.21,.63-.43,.16-.25,.12-.57,.07-.87-.32-1.9-.79-3.77-1.42-5.6-.15-.43-.35-.92-.79-1.07-.25-.09-.53-.04-.79,0-3.15,.58-6.3,1.19-9.43,1.83-.56,.11-1.14,.24-1.63,.53-1.86,1.14-.67,5.51-.41,7.26,.04,.25,.09,.52,.29,.68,.11,.08,.25,.12,.4,.13h0Z"/></g><path class="cls-4" d="M694.92,115.23s2.19,2.15,1,4.81c-1.19,2.66-7.57,10.52-12.74,14.37-5.18,3.85-11.96,8.25-14.67,7.48-2.71-.78-3.12-.91-6.71-5.46-3.59-4.55-15.66-21.93-15.66-21.93l4.71-32.01s2.18-4.4,3.64-4.47c0,0,.97-6.26,7.95-7.58,6.98-1.32,12.75,.19,17.1,2.79,4.35,2.6,8.6,7.32,8.67,10.73,.07,3.41-3.44,15.48-3.44,15.48l9.82,11.04s1.65,2.43,.33,4.73h-.01Z"/><path class="cls-4" d="M396.56,101.79c-3.03-5.69-6.16-11.58-7.16-18.65l-2.01-14.18c-.19-1.33-1.18-2.28-2.22-2.13l-8.31,1.18c-1.04,.15-1.72,1.34-1.54,2.67l2.01,14.18c1,7.07-.37,13.59-1.69,19.9-1.22,5.79-2.36,11.26-1.59,16.72l8.06,56.71c.99,6.96,5.78,8.86,8.76,8.44l13.85-1.97c2.98-.42,7.06-3.58,6.07-10.54l-8.06-56.71c-.78-5.47-3.4-10.4-6.18-15.62h0Z"/><path class="cls-4" d="M820.94,110.2s-2.15-.1-4.6-3.21c-2.45-3.12-7.29-12.37-7.29-12.37,0,0,.2-2.11,5.52,5.87,0,0,3.45,2.41-2.82-6.9,0,0-1.73-4.66,5.93,6.39,0,0,3.21,2.08-3.5-7.65,0,0-.69-3.9,5.95,5.06,6.64,8.97,3.2,10.68,3.41,11.38,.22,.69,18.19,26.36,17.78,28.39-.41,2.03-4.01,3.81-14.33-15.18l-6.05-11.77h0Z"/><g><path class="cls-4" d="M274.48,153.71s10.94,7.99,15.03,.87c6.24-10.88,2.85-5.19,8.88-16.19,2.16-3.95,5.55-7.94,2.85-12.47-2.35-3.93-.11-5.67-.11-5.67l-7.56-4.53s-.34,1.85-4.38,2.5c-4.03,.65-6.08,2.78-8.1,6.95-4.66,9.63-.58,2.21-5.65,11.63-1.74,3.22-4.02,6.49-4.53,10.19-.18,1.32-.19,2.75,.35,3.98,.74,1.67,1.96,1.76,3.22,2.75Z"/><path class="cls-4" d="M292.24,116.06s.08,.07,.12,.11c2.5,2.18,5.43,3.88,8.57,4.95,.19,.06,.38,.12,.57,.07,.21-.07,.35-.27,.47-.46,.76-1.24,1.41-2.54,1.96-3.89,.13-.32,.25-.7,.08-1-.1-.17-.28-.29-.46-.39-2.08-1.23-4.18-2.44-6.28-3.62-.38-.21-.77-.43-1.19-.5-1.63-.28-3.11,2.81-3.83,3.93-.1,.16-.21,.34-.17,.53,.02,.11,.08,.19,.16,.27h0Z"/></g><g><path class="cls-4" d="M307.51,105.05c3.65,5.05,7.3,10.1,10.94,15.15,1.34,1.86,2.64,3.75,4.03,5.58,.97,1.28,1.84,2.18,3.51,2.37,2.72,.32,5.57-1.06,7.9-2.32,3.38-1.82,6.93-4.29,6.15-8.58-.48-2.66-8.5-24.67-8.5-24.67"/><path class="cls-4" d="M331.92,92.37c-.14-.26-.33-.5-.56-.69-.29-.24-.64-.43-1.04-.56-.69-.23-1.52-.32-2.47-.28-1.42,.05-3.1,.38-4.93,.94-1.83,.57-3.81,1.38-5.82,2.42-1.87,.97-3.56,2.04-5.01,3.13-1.45,1.09-2.66,2.2-3.55,3.27-.71,.85-1.23,1.67-1.5,2.45-.14,.39-.21,.78-.21,1.15,0,.37,.08,.74,.25,1.06,.14,.26,.33,.5,.56,.69,.29,.24,.64,.43,1.04,.56,.69,.23,1.52,.32,2.47,.28,1.42-.05,3.1-.38,4.93-.94,1.83-.57,3.81-1.38,5.82-2.42,1.87-.97,3.56-2.04,5.01-3.13,1.45-1.09,2.66-2.2,3.55-3.27,.71-.85,1.23-1.67,1.5-2.45,.14-.39,.21-.78,.21-1.15,0-.37-.08-.74-.25-1.06"/></g><path class="cls-4" d="M296.52,157.72c4.59-.44,7.85-4.28,12.23-8.07,5.24-4.55,7.93-3.83,10.81-2.24,2.89,1.59,6.58,11.02,6.63,13.57,0,0-.88,7.68-6.64,14.75-5.76,7.05-12.7,9.55-12.7,9.55l-5.91,1.77c-2.12,4.23-4.35,8.76-5.44,10.66-2.13,3.69-13.59,14.12-20.59,20.3-7,6.18-6.11,12.04-14.37,17.55-8.26,5.5-14.33-1.77-14.33-1.77,0,0-17.7-14.77-23.94-20.16-6.23-5.4-8.97-9.72-11.57-14.5-2.6-4.78-11.93-13.68-14.59-15.98-2.66-2.3-6.89-6.24-3.32-14.25,3.57-8.01,8.26-8.63,11.94-10.48,3.67-1.85,9.39-8.53,14.81-14.95,5.41-6.42,15.67-15.16,20.34-17.92,4.67-2.76,12.03-6.9,21.15-17.01,9.12-10.11,14.79-9.14,16.89-8.28,2.1,.86,6.34,9.4,6.34,9.4,1.61,3-2.84,12.62-2.84,12.62,0,0-2.68,6.58-3.55,9.91-.87,3.33,4.2,7.96,5.78,9.43,1.57,1.47,12.66,16.02,12.66,16.02"/><path class="cls-4" d="M312.46,116.87s1.07-1.67,2.91-1.27c1.83,.4,7.65,3.39,10.77,6.15,3.12,2.76,6.8,6.46,6.67,8.28-.13,1.82-.16,2.09-2.56,4.96-2.4,2.87-11.79,12.8-11.79,12.8l-20.84,1.27s-3.07-.8-3.31-1.7c0,0-4.08,.21-5.84-4.02-1.76-4.24-1.57-8.08-.5-11.17,1.07-3.09,3.49-6.4,5.63-6.9,2.15-.5,10.24,.12,10.24,.12l5.68-7.67s1.32-1.36,2.95-.83h0Z"/><path class="cls-4" d="M362.21,122.53c-3.45-4.5-7.01-9.15-8.33-15.06l-2.64-11.85c-.25-1.11-1.34-1.81-2.45-1.56l-8.89,1.98c-1.11,.25-1.81,1.34-1.56,2.45l2.64,11.85c1.32,5.91,.06,11.63-1.15,17.17-1.11,5.07-2.16,9.87-1.14,14.44l10.56,47.41c1.3,5.82,6.51,6.87,9.7,6.17l14.81-3.3c3.19-.71,7.47-3.88,6.17-9.7l-10.56-47.41c-1.02-4.57-4.01-8.47-7.17-12.59h0Z"/><path class="cls-4" d="M371.11,161.9c4.55,.78,8.7-2.06,13.92-4.59,6.25-3.01,8.65-1.61,11.02,.67,2.37,2.29,3.46,12.35,2.84,14.84,0,0-2.87,7.18-10.27,12.48-7.4,5.3-14.77,5.88-14.77,5.88l-6.17,.16c-3.15,3.53-6.49,7.31-8.04,8.85-3.03,3-16.82,10.05-25.19,14.19-8.38,4.13-9.06,10.02-18.48,13.16-9.42,3.14-13.37-5.47-13.37-5.47,0,0-13.21-18.89-17.81-25.73-4.6-6.84-6.11-11.73-7.36-17.02s-7.92-16.33-9.88-19.24-5.02-7.83,.53-14.62c5.54-6.8,10.24-6.16,14.27-6.98,4.03-.82,11.3-5.77,18.21-10.55,6.91-4.78,19.1-10.51,24.33-11.95,5.23-1.44,13.42-3.51,24.87-10.87,11.45-7.36,16.67-4.94,18.47-3.56,1.81,1.37,3.66,10.73,3.66,10.73,.77,3.31-6.05,11.43-6.05,11.43,0,0-4.31,5.64-6.03,8.63-1.71,2.99,1.97,8.78,3.11,10.61,1.13,1.83,8.02,18.78,8.02,18.78"/><path class="cls-4" d="M262.75,103.01s2.35-2.49,2.78-4.68-.23-12.84-4.5-13.47c-4.28-.62-5.76,11.11-5.76,11.11,0,0,.11,3.5,2.78,6.51s1.56,10.05,1.15,21.16c-.41,11.11,2.95,9.09,2.95,9.09,0,0,2.75-.17,1.66-8.48-1.09-8.31-3.37-17.94-1.07-21.25h0Z"/><g><path class="cls-4" d="M211.12,191.7s16.78,7.15,20.28-6.45c5.34-20.76,10.24-41.65,15.27-62.49,1.81-7.48,5.23-15.67,.39-21.55-4.2-5.1-1.7-9.06-1.7-9.06l-11.32-3.34s.05,3.15-5.15,6.31c-5.2,3.16-7.35,7.66-8.89,15.41-3.58,17.92-8.02,35.67-12.21,53.47-1.43,6.09-3.58,12.53-3.25,18.76,.12,2.22,.5,4.52,1.56,6.23,1.43,2.3,3.09,1.8,5.05,2.73h-.01Z"/><path class="cls-4" d="M232.38,90.05c.06,.04,.12,.08,.19,.11,3.94,2.2,8.31,3.39,12.79,3.49,.26,0,.55,0,.78-.19,.26-.22,.39-.61,.5-.98,.67-2.39,1.19-4.83,1.55-7.29,.08-.59,.14-1.25-.17-1.65-.18-.23-.46-.31-.71-.38-3.12-.89-6.24-1.74-9.38-2.55-.56-.15-1.14-.29-1.73-.18-2.24,.41-3.38,6.14-4.03,8.33-.09,.31-.18,.66-.08,.93,.06,.16,.17,.26,.29,.35h0Z"/></g><g><path class="cls-4" d="M223.79,149.01s14.11-1.6,12.2-10c-2.91-12.82-6.19-25.56-9.36-38.32-1.14-4.58-1.36-10.06-6.66-11.64-4.6-1.37-4.12-4.29-4.12-4.29l-9.05,1.88s1.05,1.67-1.6,5.04c-2.65,3.37-2.71,6.46-1.31,11.11,3.25,10.73,5.83,21.65,8.6,32.52,.95,3.72,1.51,7.85,3.75,11.08,.79,1.15,1.8,2.26,3.1,2.82,1.75,.77,2.76-.04,4.43-.17h0Z"/><path class="cls-4" d="M206.05,87.83h.17c3.48-.1,6.94-.87,10.13-2.27,.19-.08,.38-.17,.49-.35,.12-.2,.08-.46,.03-.69-.3-1.5-.71-2.96-1.25-4.39-.13-.34-.3-.71-.65-.83-.2-.06-.42-.02-.62,.02-2.48,.53-4.95,1.09-7.42,1.67-.44,.1-.89,.21-1.28,.46-1.45,.94-.4,4.38-.16,5.75,.03,.2,.08,.41,.25,.53,.09,.07,.2,.09,.32,.1h0Z"/></g><path class="cls-4" d="M193.23,115.2c3.17-3.35,3.09-8.39,3.89-14.13,.95-6.87,3.44-8.1,6.66-8.8,3.22-.71,12.21,3.95,13.93,5.85,0,0,4.39,6.37,4.71,15.47,.32,9.1-3.27,15.56-3.27,15.56l-3.29,5.22c1.19,4.57,2.5,9.46,2.92,11.6,.82,4.18-.93,19.57-2.13,28.84s3.33,13.09,.74,22.67c-2.6,9.59-11.95,8.11-11.95,8.11,0,0-23.05,.54-31.29,.59-8.25,.04-13.15-1.41-18.26-3.29-5.1-1.89-17.98-2.44-21.5-2.42-3.52,.02-9.29-.16-11.89-8.53-2.59-8.38,.54-11.94,2.09-15.74,1.55-3.81,1.45-12.6,1.29-21s1.82-21.73,3.51-26.88c1.69-5.15,4.51-13.11,4.71-26.73,.21-13.61,5.11-16.61,7.26-17.36,2.14-.74,10.96,2.89,10.96,2.89,3.19,1.19,6.17,11.36,6.17,11.36,0,0,2.31,6.71,3.85,9.79,1.54,3.08,8.4,3.22,10.55,3.29,2.15,.07,20.08,3.72,20.08,3.72"/><polygon class="cls-4" points="-24.84 159.54 123.55 128.79 165.57 102.96 240.87 109.32 311.84 160.9 351.22 124.9 379.35 118.71 477.44 120.23 548.62 141.92 615.69 139.63 670.45 120.23 768.78 126.58 851.89 154.71 905.87 154.71 980.71 116.97 1096.16 158.62 1096.16 335.67 -24.84 335.67 -24.84 159.54"/><polygon class="cls-4" points="846.96 91.87 831.71 123.81 853.4 136.69 873.7 107.76 875.54 108.85 877.29 105.91 876.83 102.19 850.22 86.38 846.83 87.82 845.02 90.87 846.96 91.87"/><polygon class="cls-4" points="158.38 73.44 143.14 105.38 164.82 118.26 185.13 89.32 186.97 90.42 188.72 87.47 188.25 83.76 161.64 67.95 158.25 69.38 156.44 72.43 158.38 73.44"/><polygon class="cls-4" points="1052.24 81.27 1072.78 110.1 1094.56 97.36 1079.1 65.58 1080.94 64.5 1079.21 61.54 1075.74 60.14 1049.02 75.76 1048.63 79.42 1050.42 82.49 1052.24 81.27"/><polygon class="cls-4" points="1056 85.86 1040.75 117.8 1062.44 130.67 1082.74 101.74 1084.58 102.84 1086.33 99.89 1085.88 96.18 1059.26 80.37 1055.87 81.8 1054.06 84.85 1056 85.86"/><polygon class="cls-4" points="538.81 82.47 550.84 115.75 575.24 109.35 568.89 74.58 570.96 74.04 570.1 70.73 567.13 68.44 537.19 76.29 535.83 79.71 536.73 83.14 538.81 82.47"/><polygon class="cls-4" points="434.46 95.26 405.48 74.94 389.18 94.2 414.37 119.01 412.98 120.64 415.6 122.85 419.34 123.02 439.33 99.38 438.48 95.81 435.77 93.51 434.46 95.26"/><g><path class="cls-4" d="M475.69,181.52s17.51,3.93,18.71-6.89c1.83-16.51,3.19-33.09,4.69-49.63,.54-5.94,2.54-12.58-3.13-16.65-4.93-3.54-3.14-6.83-3.14-6.83l-11.58-1.5s.56,2.42-3.99,5.35c-4.56,2.93-5.91,6.6-6.15,12.72-.57,14.16-2.01,28.26-3.19,42.38-.41,4.83-1.45,10-.11,14.77,.47,1.7,1.22,3.44,2.54,4.65,1.77,1.64,3.3,1.1,5.36,1.63h0Z"/><path class="cls-4" d="M479.84,101.13c.07,.03,.14,.05,.2,.07,4.2,1.33,8.65,1.83,13.03,1.49,.26-.02,.53-.05,.73-.22,.23-.19,.28-.51,.32-.8,.26-1.91,.37-3.84,.32-5.77-.01-.46-.07-.98-.43-1.25-.21-.16-.5-.2-.76-.23-3.18-.39-6.36-.75-9.55-1.08-.57-.06-1.15-.12-1.72,.02-2.12,.52-2.29,5.06-2.57,6.8-.04,.25-.07,.52,.07,.73,.08,.12,.21,.19,.34,.24h.01Z"/></g><g><path class="cls-4" d="M468.2,173.49s17.88-1.49,15.79-12.18c-3.2-16.3-6.86-32.52-10.38-48.76-1.26-5.83-1.34-12.76-7.98-14.95-5.76-1.9-5.04-5.58-5.04-5.58l-11.49,2.03s1.27,2.14-2.21,6.3c-3.47,4.16-3.67,8.06-2.06,13.98,3.7,13.68,6.55,27.57,9.64,41.39,1.06,4.74,1.61,9.97,4.31,14.13,.96,1.47,2.19,2.91,3.81,3.68,2.18,1.03,3.48,.06,5.6-.05h0Z"/><path class="cls-4" d="M448.09,95.55c.07,0,.14,0,.21,0,4.4,.01,8.8-.84,12.88-2.49,.24-.1,.49-.21,.63-.43,.16-.25,.12-.57,.07-.87-.32-1.9-.79-3.77-1.42-5.6-.15-.43-.35-.92-.79-1.07-.25-.09-.53-.04-.79,0-3.15,.58-6.3,1.19-9.43,1.83-.56,.11-1.14,.24-1.63,.53-1.86,1.14-.67,5.51-.41,7.26,.04,.25,.09,.52,.29,.68,.11,.08,.25,.12,.4,.13h0Z"/></g><path class="cls-4" d="M462.91,151.97s2.19,2.15,1,4.81c-1.19,2.66-7.57,10.52-12.74,14.37-5.18,3.85-11.96,8.25-14.67,7.48-2.71-.78-3.12-.91-6.71-5.46-3.59-4.55-15.66-21.93-15.66-21.93l4.71-32.01s2.18-4.4,3.64-4.47c0,0,.97-6.26,7.95-7.58,6.98-1.32,12.75,.19,17.1,2.79,4.35,2.6,8.6,7.32,8.67,10.73,.07,3.41-3.44,15.48-3.44,15.48l9.82,11.04s1.65,2.43,.33,4.73h-.01Z"/><g><path class="cls-4" d="M504.37,166.62s17.51,3.93,18.71-6.89c1.83-16.51,3.19-33.09,4.69-49.63,.54-5.94,2.54-12.58-3.13-16.65-4.93-3.54-3.14-6.83-3.14-6.83l-11.58-1.5s.56,2.42-3.99,5.35c-4.56,2.93-5.91,6.6-6.15,12.72-.57,14.16-2.01,28.26-3.19,42.38-.41,4.83-1.45,10-.11,14.77,.47,1.7,1.22,3.44,2.54,4.65,1.77,1.64,3.3,1.1,5.36,1.63h0Z"/><path class="cls-4" d="M508.52,86.23c.07,.03,.14,.05,.2,.07,4.2,1.33,8.65,1.83,13.03,1.49,.26-.02,.53-.05,.73-.22,.23-.19,.28-.51,.32-.8,.26-1.91,.37-3.84,.32-5.77-.01-.46-.07-.98-.43-1.25-.21-.16-.5-.2-.76-.23-3.18-.39-6.36-.75-9.55-1.08-.57-.06-1.15-.12-1.72,.02-2.12,.52-2.29,5.06-2.57,6.8-.04,.25-.07,.52,.07,.73,.08,.12,.21,.19,.34,.24h.01Z"/></g></g><g><g><path class="cls-4" d="M584.4,204.92s13.22-3.3,10.35-11.05c-4.39-11.83-9.11-23.53-13.73-35.27-1.65-4.21-2.57-9.4-7.8-10.23-4.55-.72-4.46-3.56-4.46-3.56l-8.37,2.93s1.21,1.45-.88,4.99c-2.09,3.54-1.76,6.49,.16,10.73,4.44,9.8,8.27,19.86,12.28,29.84,1.37,3.42,2.42,7.28,4.96,10.06,.9,.99,2,1.92,3.31,2.3,1.76,.51,2.62-.38,4.19-.73h0Z"/><path class="cls-4" d="M559.83,148.96c.06,0,.11-.01,.16-.02,3.3-.53,6.49-1.7,9.34-3.43,.17-.1,.34-.21,.42-.39,.08-.21,.02-.44-.06-.66-.47-1.38-1.06-2.73-1.74-4.02-.16-.31-.38-.64-.72-.7-.2-.03-.4,.03-.59,.1-2.29,.82-4.57,1.66-6.85,2.52-.41,.15-.82,.32-1.15,.6-1.25,1.08,.17,4.21,.58,5.49,.06,.18,.13,.38,.3,.47,.1,.05,.2,.06,.32,.05h0Z"/></g><g><path class="cls-4" d="M655.09,204.39s17.41-4.35,13.63-14.55c-5.78-15.58-12-31-18.08-46.46-2.18-5.55-3.38-12.38-10.27-13.47-5.99-.95-5.87-4.69-5.87-4.69l-11.02,3.85s1.59,1.91-1.16,6.57c-2.76,4.66-2.32,8.55,.21,14.13,5.85,12.91,10.89,26.16,16.17,39.31,1.81,4.5,3.2,9.59,6.53,13.25,1.19,1.31,2.63,2.53,4.35,3.02,2.32,.67,3.44-.51,5.52-.95h0Z"/><path class="cls-4" d="M622.72,130.7c.07,0,.14-.02,.21-.03,4.34-.7,8.55-2.24,12.31-4.52,.22-.14,.45-.29,.55-.52,.11-.28,.02-.59-.07-.87-.62-1.82-1.39-3.6-2.3-5.29-.21-.41-.5-.85-.95-.93-.26-.05-.53,.05-.78,.14-3.02,1.08-6.03,2.19-9.02,3.32-.53,.2-1.09,.42-1.52,.79-1.65,1.42,.23,5.55,.76,7.23,.08,.24,.17,.5,.39,.62,.12,.07,.27,.08,.42,.07h0Z"/></g><g><path class="cls-4" d="M693.31,148.76s13.15-3.27,10.3-10.98c-4.35-11.76-2.16-5.51-6.73-17.19-1.64-4.19-2.54-9.35-7.75-10.18-4.52-.73-4.43-3.55-4.43-3.55l-8.32,2.9s1.2,1.45-.89,4.96c-2.09,3.52-1.76,6.45,.14,10.67,4.4,9.75,1.33,1.86,5.3,11.79,1.36,3.4,2.4,7.24,4.92,10.01,.89,.98,1.98,1.91,3.29,2.28,1.75,.51,2.6-.38,4.17-.71h0Z"/><path class="cls-4" d="M675.81,111c.05,0,.11-.01,.16-.02,3.28-.52,6.46-1.69,9.3-3.4,.17-.1,.34-.21,.42-.39,.08-.21,.02-.44-.06-.65-.47-1.38-1.05-2.72-1.73-4-.16-.3-.38-.64-.71-.7-.2-.03-.4,.03-.59,.1-2.28,.81-4.55,1.64-6.81,2.5-.41,.15-.82,.32-1.15,.6-1.25,1.07,.16,4.19,.57,5.46,.06,.18,.13,.38,.3,.47,.1,.05,.2,.06,.32,.05h0Z"/></g><path class="cls-4" d="M386.75,154.48s3.16-1.31,4.46-3.12,5.07-11.8,1.43-14.13c-3.65-2.32-9.81,7.77-9.81,7.77,0,0-1.34,3.23-.14,7.08,1.21,3.84-2.71,9.81-7.65,19.77-4.94,9.96-1.05,9.5-1.05,9.5,0,0,2.58,.98,5-7.05,2.42-8.03,4.3-17.74,7.75-19.81h0Z"/><g><path class="cls-4" d="M74.31,121.75c-.66,6.19-1.33,12.39-2,18.58-.25,2.28-.54,4.56-.73,6.84-.14,1.61-.09,2.85,1.02,4.11,1.81,2.06,4.86,2.94,7.43,3.56,3.74,.91,8.02,1.45,10.31-2.27,1.42-2.31,10.18-24.03,10.18-24.03"/><path class="cls-4" d="M100.94,128.64c.07-.29,.09-.59,.05-.88-.06-.38-.19-.74-.4-1.11-.36-.64-.92-1.25-1.65-1.86-1.09-.91-2.55-1.79-4.3-2.6-1.74-.8-3.76-1.52-5.94-2.09-2.04-.53-4.01-.87-5.82-1.02-1.81-.16-3.45-.14-4.83,.06-1.1,.16-2.03,.42-2.76,.82-.37,.2-.68,.43-.92,.71-.25,.28-.43,.6-.52,.96-.07,.29-.09,.59-.05,.88,.06,.38,.19,.74,.4,1.11,.36,.64,.92,1.25,1.65,1.86,1.09,.91,2.55,1.79,4.3,2.6,1.74,.8,3.76,1.52,5.94,2.09,2.04,.53,4.01,.87,5.82,1.02,1.81,.16,3.45,.14,4.83-.06,1.1-.16,2.03-.42,2.76-.82,.37-.2,.68-.43,.92-.71,.25-.28,.43-.6,.52-.96"/></g><path class="cls-4" d="M586.72,122.18s-.95-1.93,.6-5.58c1.56-3.65,7.34-12.34,7.34-12.34,0,0,1.94-.84-2.49,7.66,0,0-.46,4.18,4.69-5.79,0,0,3.26-3.76-2.75,8.27,0,0-.28,3.81,5.02-6.76,0,0,3.09-2.49-1.58,7.65-4.66,10.14-7.83,7.94-8.33,8.47-.5,.53-14.36,28.63-16.33,29.25s-5.27-1.68,6.41-19.87l7.41-10.98h0Z"/><path class="cls-4" d="M597.59,148.96c1.17-4.86,2.38-9.89,5.7-14.08l6.66-8.39c.62-.79,.49-1.92-.29-2.55l-6.3-5c-.79-.62-1.92-.49-2.55,.29l-6.66,8.39c-3.32,4.19-7.94,6.51-12.41,8.75-4.1,2.06-7.97,4.01-10.54,7.24l-26.64,33.58c-3.27,4.12-1.1,8.29,1.16,10.08l10.49,8.33c2.26,1.79,6.81,2.96,10.08-1.16l26.64-33.58c2.57-3.24,3.58-7.45,4.65-11.91h-.01Z"/><path class="cls-4" d="M516.56,207.03c-6.86-4.37-13.95-8.89-18.63-16.21l-9.39-14.68c-.88-1.37-2.7-1.78-4.08-.89l-11.01,7.04c-1.37,.88-1.78,2.7-.89,4.08l9.39,14.68c4.68,7.32,5.81,15.65,6.9,23.71,1,7.39,1.94,14.37,5.56,20.03l37.55,58.73c4.61,7.21,12.16,6.07,16.11,3.54l18.35-11.74c3.95-2.53,8.16-8.9,3.54-16.11l-37.55-58.73c-3.62-5.66-9.56-9.45-15.86-13.45h0Z"/><path class="cls-4" d="M710.51,134.42c2.6-3.81,1.76-8.76,1.65-14.56-.13-6.94,2.14-8.53,5.21-9.73,3.07-1.2,12.67,2.01,14.67,3.62,0,0,5.33,5.61,7.05,14.55,1.73,8.94-.82,15.88-.82,15.88l-2.44,5.67c1.89,4.34,3.93,8.95,4.69,11.01,1.46,4.01,2.12,19.48,2.37,28.82,.26,9.34,5.32,12.41,4.25,22.28-1.07,9.87-10.55,9.86-10.55,9.86,0,0-22.68,4.11-30.82,5.44-8.14,1.33-13.21,.65-18.54-.42-5.33-1.07-18.14,.38-21.61,.95s-9.2,1.29-13.07-6.59c-3.86-7.88-1.32-11.88-.38-15.88,.94-4-.52-12.67-1.98-20.94s-1.58-21.75-.71-27.1c.87-5.35,2.41-13.65,.51-27.13-1.91-13.48,2.48-17.21,4.47-18.27,2-1.06,11.27,1.15,11.27,1.15,3.34,.68,7.86,10.27,7.86,10.27,0,0,3.33,6.27,5.33,9.07,2,2.8,8.8,1.87,10.94,1.61,2.13-.26,20.41,.55,20.41,.55"/><g><path class="cls-4" d="M329.24,219.29s12.84,4.54,14.72-3.51c2.86-12.28,5.38-24.65,8.01-36.99,.95-4.43,3.05-9.25-.86-12.84-3.39-3.11-1.75-5.43-1.75-5.43l-8.59-2.18s.21,1.88-3.49,3.67c-3.7,1.79-5.05,4.44-5.79,9.03-1.7,10.62-4.06,21.12-6.23,31.66-.74,3.61-1.99,7.41-1.42,11.13,.2,1.32,.61,2.7,1.49,3.74,1.19,1.4,2.39,1.13,3.9,1.71h0Z"/><path class="cls-4" d="M339.61,159.06s.1,.05,.15,.07c3.04,1.38,6.35,2.16,9.69,2.3,.2,0,.41,.01,.57-.1,.19-.12,.26-.36,.32-.58,.37-1.42,.62-2.86,.77-4.31,.03-.35,.04-.74-.21-.98-.15-.14-.35-.19-.55-.24-2.36-.58-4.73-1.14-7.1-1.67-.43-.1-.86-.19-1.29-.14-1.64,.21-2.18,3.61-2.55,4.89-.05,.19-.1,.39-.01,.56,.05,.1,.14,.16,.24,.21h0Z"/></g><path class="cls-4" d="M371.11,179.89c3.66-3.41,7.44-6.94,12.52-8.59l10.19-3.32c.95-.31,1.47-1.33,1.16-2.29l-2.49-7.64c-.31-.95-1.33-1.47-2.29-1.16l-10.19,3.32c-5.08,1.66-10.21,1.05-15.18,.46-4.56-.55-8.85-1.06-12.79,.23l-40.75,13.3c-5.01,1.64-5.49,6.31-4.59,9.05l4.16,12.74c.89,2.74,4.04,6.23,9.05,4.59l40.75-13.3c3.93-1.28,7.09-4.24,10.45-7.37h0Z"/><g><path class="cls-4" d="M178.44,108.51s-13.62-.26-12.87,7.97c1.15,12.56,2.65,25.1,4.04,37.63,.5,4.5,.02,9.74,4.86,11.91,4.2,1.88,3.37,4.6,3.37,4.6l8.84-.64s-.79-1.72,2.15-4.59c2.95-2.87,3.4-5.81,2.65-10.4-1.73-10.62-2.8-21.33-4.06-32.01-.43-3.66-.44-7.66-2.16-11.01-.61-1.19-1.42-2.37-2.59-3.08-1.57-.95-2.62-.32-4.24-.4h0Z"/><path class="cls-4" d="M187.55,168.94c-.05-.01-.11-.02-.16-.02-3.32-.35-6.71-.05-9.92,.87-.19,.06-.39,.12-.51,.28-.14,.18-.14,.42-.12,.65,.09,1.46,.3,2.91,.64,4.34,.08,.34,.2,.72,.51,.87,.19,.08,.39,.07,.6,.06,2.42-.19,4.85-.41,7.27-.65,.43-.04,.88-.09,1.27-.28,1.5-.71,.93-4.11,.88-5.45-.01-.19-.03-.4-.17-.53-.08-.07-.18-.11-.29-.13h0Z"/></g><path class="cls-4" d="M151.1,159.08c-2.4,4.39-4.88,8.92-9.18,12.1l-8.62,6.36c-.8,.6-.98,1.73-.38,2.54l4.77,6.46c.6,.8,1.73,.98,2.54,.38l8.62-6.36c4.3-3.17,9.37-4.21,14.27-5.21,4.49-.92,8.74-1.78,12.06-4.24l34.49-25.46c4.24-3.13,3.22-7.71,1.51-10.03l-7.95-10.78c-1.71-2.32-5.79-4.64-10.03-1.51l-34.49,25.46c-3.32,2.46-5.4,6.26-7.6,10.28h0Z"/><path class="cls-4" d="M566.49,154.4c-3.18-3.34-8.21-3.53-13.91-4.62-6.81-1.31-7.91-3.86-8.44-7.11-.54-3.25,4.59-11.98,6.57-13.61,0,0,6.59-4.06,15.69-3.9,9.1,.16,15.36,4.08,15.36,4.08l5.05,3.56c4.63-.95,9.58-2,11.74-2.31,4.22-.6,19.49,1.96,28.69,3.63,9.19,1.68,13.24-2.64,22.68,.45,9.43,3.09,7.47,12.36,7.47,12.36,0,0-.66,23.04-1.05,31.28-.38,8.24-2.09,13.06-4.24,18.06-2.15,5-3.38,17.83-3.54,21.34-.16,3.51-.64,9.27-9.14,11.43-8.5,2.15-11.89-1.16-15.61-2.9s-12.51-2.11-20.91-2.39c-8.39-.28-21.6-2.95-26.66-4.91s-12.86-5.19-26.44-6.1c-13.58-.92-16.33-5.97-16.95-8.16-.63-2.18,3.46-10.8,3.46-10.8,1.36-3.12,11.67-5.57,11.67-5.57,0,0,6.82-1.96,9.98-3.34,3.16-1.38,3.66-8.22,3.84-10.37,.18-2.14,4.76-19.85,4.76-19.85"/><path class="cls-4" d="M313.15,168.76s-1.72,1.29-5.59,.45c-3.87-.85-13.49-4.9-13.49-4.9,0,0-1.19-1.75,7.99,1.01,0,0,4.19-.34-6.57-3.53,0,0-4.31-2.49,8.64,1.15,0,0,3.8-.44-7.57-3.67,0,0-3.02-2.57,7.81,.12,10.83,2.69,9.27,6.21,9.87,6.6,.61,.39,30.81,8.75,31.79,10.58,.97,1.82-.66,5.49-20.72-2.58l-12.16-5.23h0Z"/><path class="cls-4" d="M997.69,149.44s-.6-1.9,.89-3.04,7.5-3.7,11.62-4.32c4.12-.62,9.32-1.07,10.63,.19,1.31,1.27,1.5,1.47,2.17,5.15,.66,3.68,2.27,17.25,2.27,17.25l-12.39,16.81s-2.58,1.85-3.43,1.45c0,0-2.45,3.27-6.83,1.9-4.38-1.37-7.21-3.98-8.89-6.78-1.69-2.8-2.68-6.78-1.68-8.75s6.66-7.78,6.66-7.78l-2.24-9.28s-.2-1.88,1.25-2.8h0Z"/><path class="cls-4" d="M119.68,149.75c.44-5.65,.91-11.49,3.88-16.76l5.96-10.58c.56-.99,.21-2.24-.78-2.8l-7.93-4.47c-.99-.56-2.24-.21-2.8,.78l-5.96,10.58c-2.98,5.27-7.73,8.69-12.33,11.99-4.22,3.03-8.21,5.9-10.51,9.97l-23.86,42.31c-2.93,5.2,.24,9.47,3.09,11.07l13.22,7.45c2.85,1.6,8.14,2.11,11.07-3.09l23.86-42.31c2.3-4.08,2.68-8.97,3.09-14.15h0Z"/><path class="cls-4" d="M88.92,217.42c2.86,3.62,7.85,4.28,13.41,5.9,6.66,1.94,7.51,4.59,7.74,7.87,.23,3.29-5.69,11.5-7.81,12.93,0,0-6.94,3.42-15.99,2.41-9.05-1.01-14.91-5.5-14.91-5.5l-4.69-4.01c-4.7,.51-9.72,1.1-11.9,1.2-4.26,.21-19.23-3.77-28.22-6.3-9-2.53-13.43,1.4-22.54-2.57-9.1-3.96-6.28-13-6.28-13,0,0,2.82-22.88,3.97-31.04s3.3-12.8,5.91-17.58c2.61-4.78,5.03-17.43,5.52-20.92,.49-3.48,1.51-9.18,10.17-10.52,8.67-1.34,11.73,2.27,15.27,4.35,3.54,2.09,12.25,3.27,20.59,4.34,8.33,1.07,21.23,4.96,26.08,7.38s12.32,6.37,25.75,8.55c13.43,2.18,15.7,7.48,16.11,9.7s-4.46,10.42-4.46,10.42c-1.64,2.98-12.14,4.45-12.14,4.45,0,0-6.98,1.31-10.25,2.39-3.27,1.07-4.41,7.85-4.79,9.96-.38,2.12-6.6,19.32-6.6,19.32"/><path class="cls-4" d="M127.26,141.13s3,1.64,5.23,1.51c2.22-.13,12.37-3.47,11.89-7.76-.48-4.29-12.2-2.76-12.2-2.76,0,0-3.36,.99-5.59,4.34-2.23,3.35-9.33,4.05-20.19,6.46-10.86,2.41-8.05,5.15-8.05,5.15,0,0,.86,2.62,8.62-.53,7.77-3.16,16.51-7.8,20.29-6.4h0Z"/><path class="cls-4" d="M152.09,145.69s1.95-1.46,3.88-.21c1.94,1.25,7.34,7.16,9.73,11.67,2.4,4.51,5.05,10.33,4.12,12.36-.92,2.03-1.08,2.33-5.06,4.6-3.98,2.27-19.01,9.66-19.01,9.66l-24.48-7.46s-3.18-2.23-3.07-3.38c0,0-4.78-1.5-4.99-7.12-.21-5.61,1.65-9.95,4.2-13.04s6.74-5.86,9.42-5.51c2.68,.35,11.7,4.52,11.7,4.52l9.8-6.37s2.1-1,3.74,.3v-.02Z"/><g><path class="cls-4" d="M545.92,199.78s17.41-4.35,13.63-14.55c-5.78-15.58-12-31-18.08-46.46-2.18-5.55-3.38-12.38-10.27-13.47-5.99-.95-5.87-4.69-5.87-4.69l-11.02,3.85s1.59,1.91-1.16,6.57c-2.76,4.66-2.32,8.55,.21,14.13,5.85,12.91,10.89,26.16,16.17,39.31,1.81,4.5,3.2,9.59,6.53,13.25,1.19,1.31,2.63,2.53,4.35,3.02,2.32,.67,3.44-.51,5.52-.95h0Z"/><path class="cls-4" d="M513.55,126.08c.07,0,.14-.02,.21-.03,4.34-.7,8.55-2.24,12.31-4.52,.22-.14,.45-.29,.55-.52,.11-.28,.02-.59-.07-.87-.62-1.82-1.39-3.6-2.3-5.29-.21-.41-.5-.85-.95-.93-.26-.05-.53,.05-.78,.14-3.02,1.08-6.03,2.19-9.02,3.32-.53,.2-1.09,.42-1.52,.79-1.65,1.42,.23,5.55,.76,7.23,.08,.24,.17,.5,.39,.62,.12,.07,.27,.08,.42,.07h0Z"/></g><g><path class="cls-4" d="M534.63,204.01s15.31-9.36,8.64-17.97c-10.18-13.13-20.73-25.98-31.16-38.91-3.74-4.64-6.93-10.8-13.84-9.78-6,.88-7-2.72-7-2.72l-9.36,6.98s2.09,1.35,.86,6.62c-1.24,5.27,.34,8.85,4.43,13.42,9.45,10.57,18.22,21.7,27.2,32.66,3.07,3.75,5.92,8.19,10.2,10.69,1.52,.89,3.26,1.62,5.06,1.58,2.41-.06,3.13-1.51,4.98-2.56h0Z"/><path class="cls-4" d="M481.68,143.39c.07-.03,.13-.06,.19-.09,3.93-1.96,7.49-4.7,10.39-8,.17-.19,.35-.41,.37-.66,.03-.29-.15-.56-.33-.8-1.14-1.55-2.4-3.02-3.78-4.37-.33-.32-.73-.66-1.18-.6-.26,.03-.49,.2-.7,.36-2.55,1.93-5.09,3.89-7.61,5.87-.45,.35-.91,.72-1.22,1.21-1.15,1.85,1.87,5.23,2.89,6.67,.15,.2,.32,.43,.56,.47,.14,.03,.28,0,.42-.06h0Z"/></g><path class="cls-4" d="M397.65,170.85c1.54-4.35-.55-8.92-2.14-14.5-1.9-6.67-.12-8.8,2.54-10.75,2.66-1.95,12.76-1.31,15.11-.26,0,0,6.59,4.06,10.55,12.25,3.96,8.2,3.28,15.56,3.28,15.56l-.9,6.1c2.94,3.71,6.1,7.65,7.35,9.44,2.44,3.49,7.04,18.28,9.68,27.25,2.64,8.96,8.33,10.63,9.82,20.45,1.49,9.82-7.67,12.24-7.67,12.24,0,0-20.87,9.79-28.4,13.16s-12.6,4.02-18.03,4.35-17.44,5.02-20.65,6.46c-3.21,1.43-8.57,3.61-14.32-3.02-5.75-6.62-4.32-11.14-4.44-15.25-.12-4.11-3.75-12.12-7.29-19.74-3.53-7.62-7.11-20.61-7.63-26.01-.53-5.4-1.17-13.82-6.47-26.36-5.31-12.53-2.03-17.27-.36-18.81,1.66-1.54,11.2-1.77,11.2-1.77,3.4-.2,10.23,7.91,10.23,7.91,0,0,4.83,5.21,7.48,7.41,2.65,2.2,8.99-.44,10.99-1.25,2-.8,19.87-4.7,19.87-4.7"/><path class="cls-4" d="M441.47,143.05c-3.27-5.56-6.66-11.3-7.97-18.32l-2.63-14.08c-.25-1.32-1.28-2.23-2.31-2.04l-8.25,1.54c-1.03,.19-1.67,1.41-1.42,2.73l2.63,14.08c1.31,7.02,.23,13.6-.82,19.96-.96,5.83-1.87,11.35-.86,16.78l10.51,56.31c1.29,6.91,6.17,8.6,9.12,8.05l13.75-2.57c2.96-.55,6.9-3.88,5.6-10.8l-10.51-56.31c-1.02-5.43-3.85-10.24-6.86-15.34h0Z"/><path class="cls-4" d="M493.52,155.25s2.93,.94,3.05,3.85c.12,2.91-2.04,12.8-4.94,18.56-2.9,5.76-6.98,12.74-9.75,13.27-2.77,.52-3.2,.59-8.44-1.87-5.25-2.45-23.84-12.57-23.84-12.57l-10.16-30.71s-.02-4.91,1.24-5.63c0,0-1.94-6.03,3.71-10.34,5.65-4.31,11.48-5.55,16.53-5.18,5.05,.37,10.96,2.68,12.56,5.7,1.6,3.02,3.88,15.38,3.88,15.38l13.73,5.46s2.56,1.43,2.42,4.08h0Z"/><path class="cls-4" d="M457.53,150.5c-2.49-5.95-5.05-12.1-5.4-19.23l-.68-14.31c-.06-1.34-.96-2.38-2.01-2.33l-8.38,.4c-1.05,.05-1.84,1.18-1.78,2.51l.68,14.31c.34,7.13-1.63,13.5-3.54,19.66-1.75,5.65-3.4,10.99-3.14,16.5l2.73,57.21c.34,7.03,4.93,9.36,7.94,9.22l13.97-.66c3.01-.14,7.36-2.9,7.03-9.93l-2.73-57.21c-.26-5.51-2.42-10.67-4.7-16.12h0Z"/><g><path class="cls-4" d="M281.56,224.83s13.29,2.98,14.21-5.23c1.39-12.53,2.42-25.12,3.56-37.68,.41-4.51,1.92-9.55-2.38-12.64-3.74-2.69-2.38-5.18-2.38-5.18l-8.79-1.14s.43,1.84-3.03,4.06c-3.46,2.22-4.49,5.01-4.68,9.66-.43,10.75-1.52,21.46-2.42,32.18-.31,3.67-1.1,7.59-.08,11.22,.36,1.29,.92,2.61,1.92,3.53,1.35,1.24,2.51,.83,4.07,1.24h0Z"/><path class="cls-4" d="M284.71,163.8c.05,.02,.1,.04,.15,.05,3.18,1.01,6.57,1.39,9.9,1.13,.2-.02,.41-.04,.55-.17,.17-.15,.21-.39,.25-.61,.2-1.45,.28-2.91,.24-4.38-.01-.35-.05-.74-.33-.95-.16-.12-.37-.15-.57-.17-2.41-.3-4.83-.57-7.25-.82-.43-.04-.88-.09-1.3,.02-1.61,.4-1.74,3.84-1.95,5.16-.03,.19-.05,.4,.06,.55,.06,.09,.16,.15,.26,.19h0Z"/></g><g><path class="cls-4" d="M344.96,256.09s17.51,3.93,18.71-6.89c1.83-16.51,3.19-33.09,4.69-49.63,.54-5.94,2.54-12.58-3.13-16.65-4.93-3.54-3.14-6.83-3.14-6.83l-11.58-1.5s.56,2.42-3.99,5.35-5.91,6.6-6.15,12.72c-.57,14.16-2.01,28.26-3.19,42.38-.41,4.83-1.45,10-.11,14.77,.47,1.7,1.22,3.44,2.54,4.65,1.77,1.64,3.3,1.1,5.36,1.63h0Z"/><path class="cls-4" d="M349.11,175.7c.07,.03,.14,.05,.2,.07,4.2,1.33,8.65,1.83,13.03,1.49,.26-.02,.53-.05,.73-.22,.23-.19,.28-.51,.32-.8,.26-1.91,.37-3.84,.32-5.77-.01-.46-.07-.98-.43-1.25-.21-.16-.5-.2-.76-.23-3.18-.39-6.36-.75-9.55-1.08-.57-.06-1.15-.12-1.72,.02-2.12,.52-2.29,5.06-2.57,6.8-.04,.25-.07,.52,.07,.73,.08,.12,.21,.19,.34,.24h.01Z"/></g><path class="cls-4" d="M318.46,180.74c3.23-3.82,6.57-7.77,11.41-10.02l9.72-4.51c.91-.42,1.31-1.5,.88-2.41l-3.39-7.29c-.42-.91-1.5-1.31-2.41-.88l-9.72,4.51c-4.84,2.25-10.01,2.25-15.02,2.25-4.59,0-8.92,0-12.67,1.74l-38.88,18.05c-4.78,2.22-4.7,6.91-3.49,9.53l5.64,12.15c1.22,2.62,4.75,5.7,9.53,3.49l38.88-18.05c3.75-1.74,6.54-5.05,9.5-8.56h0Z"/><path class="cls-4" d="M219.98,196.28c-4.17-6.98-8.47-14.21-9.37-22.85l-1.8-17.33c-.17-1.62-1.62-2.8-3.24-2.63l-13,1.35c-1.62,.17-2.8,1.62-2.63,3.24l1.8,17.33c.9,8.64-1.83,16.59-4.48,24.29-2.42,7.05-4.71,13.72-4.02,20.4l7.2,69.34c.88,8.52,8.15,10.88,12.81,10.4l21.66-2.25c4.66-.48,11.29-4.29,10.4-12.81l-7.2-69.34c-.7-6.68-4.31-12.73-8.13-19.14h0Z"/><path class="cls-4" d="M288.22,171.65c-1.35-4.41-5.76-6.84-10.35-10.37-5.5-4.23-5.33-7-4.35-10.14,.98-3.14,9.48-8.65,11.98-9.21,0,0,7.71-.67,15.77,3.56,8.06,4.23,11.9,10.54,11.9,10.54l2.91,5.44c4.57,1.23,9.45,2.51,11.53,3.2,4.04,1.36,16.55,10.5,24.01,16.12,7.46,5.63,13.02,3.58,20.07,10.58,7.04,7,1.13,14.4,1.13,14.4,0,0-10.94,20.29-14.98,27.48-4.04,7.19-7.73,10.73-11.89,14.23-4.17,3.5-11.02,14.42-12.74,17.48-1.72,3.07-4.74,8-13.3,6.1-8.56-1.9-10.1-6.37-12.65-9.6-2.54-3.23-10.23-7.5-17.61-11.52-7.38-4.02-17.98-12.33-21.62-16.35-3.64-4.02-9.16-10.41-20.89-17.32-11.72-6.91-11.9-12.66-11.49-14.9,.42-2.23,7.94-8.09,7.94-8.09,2.62-2.18,12.93,.26,12.93,.26,0,0,6.98,1.31,10.42,1.5,3.44,.19,6.96-5.71,8.08-7.54,1.13-1.83,13.16-15.61,13.16-15.61"/><g><path class="cls-4" d="M249.49,202.97s17.51,3.93,18.71-6.89c1.83-16.51,3.19-33.09,4.69-49.63,.54-5.94,2.54-12.58-3.13-16.65-4.93-3.54-3.14-6.83-3.14-6.83l-11.58-1.5s.56,2.42-3.99,5.35c-4.56,2.93-5.91,6.6-6.15,12.72-.57,14.16-2.01,28.26-3.19,42.38-.41,4.83-1.45,10-.11,14.77,.47,1.7,1.22,3.44,2.54,4.65,1.77,1.64,3.3,1.1,5.36,1.63h0Z"/><path class="cls-4" d="M253.63,122.58c.07,.03,.14,.05,.2,.07,4.2,1.33,8.65,1.83,13.03,1.49,.26-.02,.53-.05,.73-.22,.23-.19,.28-.51,.32-.8,.26-1.91,.37-3.84,.32-5.77-.01-.46-.07-.98-.43-1.25-.21-.16-.5-.2-.76-.23-3.18-.39-6.36-.75-9.55-1.08-.57-.06-1.15-.12-1.72,.02-2.12,.52-2.29,5.06-2.57,6.8-.04,.25-.07,.52,.07,.73,.08,.12,.21,.19,.34,.24h.01Z"/></g><g><path class="cls-4" d="M237.49,201.69s17.88-1.49,15.79-12.18c-3.2-16.3-6.86-32.52-10.38-48.76-1.26-5.83-1.34-12.76-7.98-14.95-5.76-1.9-5.04-5.58-5.04-5.58l-11.49,2.03s1.27,2.14-2.21,6.3c-3.47,4.16-3.67,8.06-2.06,13.98,3.7,13.68,6.55,27.57,9.64,41.39,1.06,4.74,1.61,9.97,4.31,14.13,.96,1.47,2.19,2.91,3.81,3.68,2.18,1.03,3.48,.06,5.6-.05h0Z"/><path class="cls-4" d="M217.38,123.75c.07,0,.14,0,.21,0,4.4,.01,8.8-.84,12.88-2.49,.24-.1,.49-.21,.63-.43,.16-.25,.12-.57,.07-.87-.32-1.9-.79-3.77-1.42-5.6-.15-.43-.35-.92-.79-1.07-.25-.09-.53-.04-.79,0-3.15,.58-6.3,1.19-9.43,1.83-.56,.11-1.14,.24-1.63,.53-1.86,1.14-.67,5.51-.41,7.26,.04,.25,.09,.52,.29,.68,.11,.08,.25,.12,.4,.13h0Z"/></g><path class="cls-4" d="M969.91,128.89c-5.24-3.76-10.66-7.65-14.69-13.54l-8.1-11.81c-.76-1.11-2.07-1.52-2.94-.93l-6.92,4.74c-.87,.59-.95,1.97-.19,3.07l8.1,11.81c4.03,5.89,5.7,12.34,7.31,18.59,1.48,5.73,2.87,11.13,6,15.69l32.38,47.26c3.98,5.81,9.11,5.38,11.6,3.67l11.54-7.9c2.49-1.7,4.74-6.34,.76-12.14l-32.38-47.26c-3.12-4.55-7.66-7.81-12.47-11.26h0Z"/><path class="cls-4" d="M222.63,139.66s2.19,2.15,1,4.81c-1.19,2.66-7.57,10.52-12.74,14.37-5.18,3.85-11.96,8.25-14.67,7.48-2.71-.78-3.12-.91-6.71-5.46-3.59-4.55-15.66-21.93-15.66-21.93l4.71-32.01s2.18-4.4,3.64-4.47c0,0,.97-6.26,7.95-7.58,6.98-1.32,12.75,.19,17.1,2.79,4.35,2.6,8.6,7.32,8.67,10.73,.07,3.41-3.44,15.48-3.44,15.48l9.82,11.04s1.65,2.43,.33,4.73h-.01Z"/><path class="cls-4" d="M994.86,134.66c-3.03-5.69-6.16-11.58-7.16-18.65l-2.01-14.18c-.19-1.33-1.18-2.28-2.22-2.13l-8.31,1.18c-1.04,.15-1.72,1.34-1.54,2.67l2.01,14.18c1,7.07-.37,13.59-1.69,19.9-1.22,5.79-2.36,11.26-1.59,16.72l8.06,56.71c.99,6.96,5.78,8.86,8.76,8.44l13.85-1.97c2.98-.42,7.06-3.58,6.07-10.54l-8.06-56.71c-.78-5.47-3.4-10.4-6.18-15.62h0Z"/><path class="cls-4" d="M317.15,154.33s-2.15-.1-4.6-3.21c-2.45-3.12-7.29-12.37-7.29-12.37,0,0,.2-2.11,5.52,5.87,0,0,3.45,2.41-2.82-6.9,0,0-1.73-4.66,5.93,6.39,0,0,3.21,2.08-3.5-7.65,0,0-.69-3.9,5.95,5.06,6.64,8.97,3.2,10.68,3.41,11.38,.22,.69,18.19,26.36,17.78,28.39s-4.01,3.81-14.33-15.18l-6.05-11.77Z"/><g><path class="cls-4" d="M872.78,186.59s10.94,7.99,15.03,.87c6.24-10.88,2.85-5.19,8.88-16.19,2.16-3.95,5.55-7.94,2.85-12.47-2.35-3.93-.11-5.67-.11-5.67l-7.56-4.53s-.34,1.85-4.38,2.5c-4.03,.65-6.08,2.78-8.1,6.95-4.66,9.63-.58,2.21-5.65,11.63-1.74,3.22-4.02,6.49-4.53,10.19-.18,1.32-.19,2.75,.35,3.98,.74,1.67,1.96,1.76,3.22,2.75Z"/><path class="cls-4" d="M890.54,148.94s.08,.07,.12,.11c2.5,2.18,5.43,3.88,8.57,4.95,.19,.06,.38,.12,.57,.07,.21-.07,.35-.27,.47-.46,.76-1.24,1.41-2.54,1.96-3.89,.13-.32,.25-.7,.08-1-.1-.17-.28-.29-.46-.39-2.08-1.23-4.18-2.44-6.28-3.62-.38-.21-.77-.43-1.19-.5-1.63-.28-3.11,2.81-3.83,3.93-.1,.16-.21,.34-.17,.53,.02,.11,.08,.19,.16,.27h0Z"/></g><g><path class="cls-4" d="M905.81,137.93c3.65,5.05,7.3,10.1,10.94,15.15,1.34,1.86,2.64,3.75,4.03,5.58,.97,1.28,1.84,2.18,3.51,2.37,2.72,.32,5.57-1.06,7.9-2.32,3.38-1.82,6.93-4.29,6.15-8.58-.48-2.66-8.5-24.67-8.5-24.67"/><path class="cls-4" d="M930.22,125.25c-.14-.26-.33-.5-.56-.69-.29-.24-.64-.43-1.04-.56-.69-.23-1.52-.32-2.47-.28-1.42,.05-3.1,.38-4.93,.94-1.83,.57-3.81,1.38-5.82,2.42-1.87,.97-3.56,2.04-5.01,3.13-1.45,1.09-2.66,2.2-3.55,3.27-.71,.85-1.23,1.67-1.5,2.45-.14,.39-.21,.78-.21,1.15,0,.37,.08,.74,.25,1.06,.14,.26,.33,.5,.56,.69,.29,.24,.64,.43,1.04,.56,.69,.23,1.52,.32,2.47,.28,1.42-.05,3.1-.38,4.93-.94,1.83-.57,3.81-1.38,5.82-2.42,1.87-.97,3.56-2.04,5.01-3.13,1.45-1.09,2.66-2.2,3.55-3.27,.71-.85,1.23-1.67,1.5-2.45,.14-.39,.21-.78,.21-1.15,0-.37-.08-.74-.25-1.06"/></g><path class="cls-4" d="M894.82,190.59c4.59-.44,7.85-4.28,12.23-8.07,5.24-4.55,7.93-3.83,10.81-2.24,2.89,1.59,6.58,11.02,6.63,13.58,0,0-.88,7.68-6.64,14.75-5.76,7.05-12.7,9.55-12.7,9.55l-5.91,1.77c-2.12,4.23-4.35,8.76-5.44,10.66-2.13,3.69-13.59,14.12-20.59,20.3-7,6.18-6.11,12.04-14.37,17.55-8.26,5.5-14.33-1.77-14.33-1.77,0,0-17.7-14.77-23.94-20.16-6.23-5.4-8.97-9.72-11.57-14.5-2.6-4.78-11.93-13.68-14.59-15.98-2.66-2.3-6.89-6.24-3.32-14.25,3.57-8.01,8.26-8.63,11.94-10.48,3.67-1.85,9.39-8.53,14.81-14.95,5.41-6.42,15.67-15.16,20.34-17.92,4.67-2.76,12.03-6.9,21.15-17.01,9.12-10.11,14.79-9.14,16.89-8.28s6.34,9.4,6.34,9.4c1.61,3-2.84,12.62-2.84,12.62,0,0-2.68,6.58-3.55,9.91-.87,3.33,4.2,7.96,5.78,9.43,1.57,1.47,12.66,16.02,12.66,16.02"/><path class="cls-4" d="M910.76,149.75s1.07-1.67,2.91-1.27c1.83,.4,7.65,3.39,10.77,6.15,3.12,2.76,6.8,6.46,6.67,8.28-.13,1.82-.16,2.09-2.56,4.96-2.4,2.87-11.79,12.8-11.79,12.8l-20.84,1.27s-3.07-.8-3.31-1.7c0,0-4.08,.21-5.84-4.02-1.76-4.24-1.57-8.08-.5-11.17,1.07-3.09,3.49-6.4,5.63-6.9,2.15-.5,10.24,.12,10.24,.12l5.68-7.67s1.32-1.36,2.95-.83h0Z"/><path class="cls-4" d="M958.26,138.53c-3.45-4.5-7.01-9.15-8.33-15.06l-2.64-11.85c-.25-1.11-1.34-1.81-2.45-1.56l-8.89,1.98c-1.11,.25-1.81,1.34-1.56,2.45l2.64,11.85c1.32,5.91,.06,11.63-1.15,17.17-1.11,5.07-2.16,9.87-1.14,14.44l10.56,47.41c1.3,5.82,6.51,6.87,9.7,6.17l14.81-3.3c3.19-.71,7.47-3.88,6.17-9.7l-10.56-47.41c-1.02-4.57-4.01-8.47-7.17-12.59h0Z"/><path class="cls-4" d="M980.66,199.28c4.55,.78,8.7-2.06,13.92-4.59,6.25-3.01,8.65-1.61,11.02,.67,2.37,2.29,3.46,12.35,2.84,14.84,0,0-2.87,7.18-10.27,12.48-7.4,5.3-14.77,5.88-14.77,5.88l-6.17,.16c-3.15,3.53-6.49,7.31-8.04,8.85-3.03,3-16.82,10.05-25.19,14.19-8.38,4.13-9.06,10.02-18.48,13.16-9.42,3.14-13.37-5.47-13.37-5.47,0,0-13.21-18.89-17.81-25.73-4.6-6.84-6.11-11.73-7.36-17.02-1.25-5.29-7.92-16.33-9.88-19.24s-5.02-7.83,.53-14.62c5.54-6.8,10.24-6.16,14.27-6.98,4.03-.82,11.3-5.77,18.21-10.55,6.91-4.78,19.1-10.51,24.33-11.95,5.23-1.44,13.42-3.51,24.87-10.87,11.45-7.36,16.67-4.94,18.47-3.56,1.8,1.38,3.66,10.73,3.66,10.73,.77,3.31-6.05,11.43-6.05,11.43,0,0-4.31,5.64-6.03,8.63-1.71,2.99,1.97,8.78,3.11,10.61,1.13,1.83,8.02,18.78,8.02,18.78"/><path class="cls-4" d="M960.09,114.48s3.33-.79,4.89-2.37c1.56-1.59,6.88-10.85,3.65-13.72-3.23-2.87-10.91,6.11-10.91,6.11,0,0-1.84,2.98-1.25,6.97,.59,3.98-4.23,9.25-10.68,18.31-6.46,9.05-2.54,9.22-2.54,9.22,0,0,2.39,1.37,6.05-6.17,3.66-7.54,7.05-16.84,10.8-18.33h-.01Z"/><g><path class="cls-4" d="M809.42,224.57s16.78,7.15,20.28-6.45c5.34-20.76,10.24-41.65,15.27-62.49,1.81-7.48,5.23-15.67,.39-21.55-4.2-5.1-1.7-9.06-1.7-9.06l-11.32-3.34s.05,3.15-5.15,6.31c-5.2,3.16-7.35,7.66-8.89,15.41-3.58,17.92-8.02,35.67-12.21,53.47-1.43,6.09-3.58,12.53-3.25,18.76,.12,2.22,.5,4.52,1.56,6.23,1.43,2.3,3.09,1.8,5.05,2.73h-.01Z"/><path class="cls-4" d="M830.67,122.93c.06,.04,.12,.08,.19,.11,3.94,2.2,8.31,3.39,12.79,3.49,.26,0,.55,0,.78-.19,.26-.22,.39-.61,.5-.98,.67-2.39,1.19-4.83,1.55-7.29,.08-.59,.14-1.25-.17-1.65-.18-.23-.46-.31-.71-.38-3.12-.89-6.24-1.74-9.38-2.55-.56-.15-1.14-.29-1.73-.18-2.24,.41-3.38,6.14-4.03,8.33-.09,.31-.18,.66-.08,.93,.06,.16,.17,.26,.29,.35h0Z"/></g><g><path class="cls-4" d="M822.08,181.89s14.11-1.6,12.2-10c-2.91-12.82-6.19-25.56-9.36-38.32-1.14-4.58-1.36-10.06-6.66-11.64-4.6-1.37-4.12-4.29-4.12-4.29l-9.05,1.88s1.05,1.67-1.6,5.04c-2.65,3.37-2.71,6.46-1.31,11.11,3.25,10.73,5.83,21.65,8.6,32.52,.95,3.72,1.51,7.85,3.75,11.08,.79,1.15,1.8,2.26,3.1,2.82,1.75,.77,2.76-.04,4.43-.17h0Z"/><path class="cls-4" d="M804.35,120.71h.17c3.48-.1,6.94-.87,10.13-2.27,.19-.08,.38-.17,.49-.35,.12-.2,.08-.46,.03-.69-.3-1.5-.71-2.96-1.25-4.39-.13-.34-.3-.71-.65-.83-.2-.06-.42-.02-.62,.02-2.48,.53-4.95,1.09-7.42,1.67-.44,.1-.89,.21-1.28,.46-1.45,.94-.4,4.38-.16,5.75,.03,.2,.08,.41,.25,.53,.09,.07,.2,.09,.32,.1h0Z"/></g><path class="cls-4" d="M791.53,154.83c3.17-3.35,3.09-8.39,3.89-14.13,.95-6.87,3.44-8.1,6.66-8.8,3.22-.71,12.21,3.95,13.93,5.85,0,0,4.39,6.37,4.71,15.47,.32,9.1-3.27,15.56-3.27,15.56l-3.29,5.22c1.19,4.57,2.5,9.46,2.92,11.6,.82,4.18-.93,19.57-2.13,28.84-1.2,9.27,3.33,13.09,.74,22.67-2.6,9.59-11.95,8.11-11.95,8.11,0,0-23.05,.54-31.29,.59-8.25,.04-13.15-1.41-18.26-3.29-5.1-1.89-17.98-2.44-21.5-2.42-3.52,.02-9.29-.16-11.89-8.53-2.59-8.38,.54-11.94,2.09-15.74,1.55-3.81,1.45-12.6,1.29-21-.16-8.4,1.82-21.73,3.51-26.88,1.69-5.15,4.51-13.11,4.71-26.73,.21-13.61,5.11-16.61,7.26-17.36s10.96,2.89,10.96,2.89c3.19,1.19,6.17,11.36,6.17,11.36,0,0,2.31,6.71,3.85,9.79,1.54,3.08,8.4,3.22,10.55,3.29,2.15,.07,20.08,3.72,20.08,3.72"/><polygon class="cls-4" points="-30.18 203.67 118.21 172.92 191.8 141.88 235.52 153.45 305.27 215.69 363.72 215.69 425.01 191.36 472.1 164.36 543.27 186.05 610.35 183.75 665.1 164.36 763.44 170.7 846.54 198.84 900.53 198.84 975.37 161.1 1090.81 202.75 1090.81 379.79 -30.18 379.79 -30.18 203.67"/><polygon class="cls-4" points="350.48 136 335.23 167.94 356.92 180.82 377.23 151.89 379.07 152.98 380.81 150.04 380.36 146.32 353.74 130.51 350.36 131.95 348.54 134.99 350.48 136"/><polygon class="cls-4" points="762.87 117.57 747.62 149.5 769.31 162.38 789.62 133.45 791.46 134.54 793.2 131.6 792.74 127.88 766.13 112.08 762.74 113.5 760.93 116.56 762.87 117.57"/><polygon class="cls-4" points="548.45 125.4 569 154.22 590.77 141.49 575.31 109.71 577.15 108.63 575.43 105.67 571.95 104.27 545.23 119.89 544.84 123.55 546.63 126.61 548.45 125.4"/><polygon class="cls-4" points="552.21 129.98 536.96 161.92 558.65 174.8 578.95 145.87 580.79 146.96 582.54 144.02 582.08 140.3 555.47 124.5 552.08 125.93 550.27 128.98 552.21 129.98"/><polygon class="cls-4" points="35.01 126.6 47.05 159.88 71.45 153.48 65.11 118.71 67.18 118.16 66.3 114.85 63.34 112.57 33.39 120.42 32.04 123.84 32.94 127.27 35.01 126.6"/><polygon class="cls-4" points="1032.75 128.14 1003.78 107.82 987.49 127.08 1012.67 151.89 1011.28 153.52 1013.9 155.73 1017.64 155.89 1037.63 132.26 1036.78 128.68 1034.07 126.39 1032.75 128.14"/><g><path class="cls-4" d="M1073.99,214.4s17.51,3.93,18.71-6.89c1.83-16.51,3.19-33.09,4.69-49.63,.54-5.94,2.54-12.58-3.13-16.65-4.93-3.54-3.14-6.83-3.14-6.83l-11.58-1.5s.56,2.42-3.99,5.35c-4.56,2.93-5.91,6.6-6.15,12.72-.57,14.16-2.01,28.26-3.19,42.38-.41,4.83-1.45,10-.11,14.77,.47,1.7,1.22,3.44,2.54,4.65,1.77,1.64,3.3,1.1,5.36,1.63h0Z"/><path class="cls-4" d="M1078.14,134.01c.07,.03,.14,.05,.2,.07,4.2,1.33,8.65,1.83,13.03,1.49,.26-.02,.53-.05,.73-.22,.23-.19,.28-.51,.32-.8,.26-1.91,.37-3.84,.32-5.77-.01-.46-.07-.98-.43-1.25-.21-.16-.5-.2-.76-.23-3.18-.39-6.36-.75-9.55-1.08-.57-.06-1.15-.12-1.72,.02-2.12,.52-2.29,5.06-2.57,6.8-.04,.25-.07,.52,.07,.73,.08,.12,.21,.19,.34,.24h.01Z"/></g><g><path class="cls-4" d="M1066.5,206.36s17.88-1.49,15.79-12.18c-3.2-16.3-6.86-32.52-10.38-48.76-1.26-5.83-1.34-12.76-7.98-14.95-5.76-1.9-5.04-5.58-5.04-5.58l-11.49,2.03s1.27,2.14-2.21,6.3c-3.47,4.16-3.67,8.06-2.06,13.98,3.7,13.68,6.55,27.57,9.64,41.39,1.06,4.74,1.61,9.97,4.31,14.13,.96,1.47,2.19,2.91,3.81,3.68,2.18,1.03,3.48,.06,5.6-.05h0Z"/><path class="cls-4" d="M1046.39,128.42c.07,0,.14,0,.21,0,4.4,.01,8.8-.84,12.88-2.49,.24-.1,.49-.21,.63-.43,.16-.25,.12-.57,.07-.87-.32-1.9-.79-3.77-1.42-5.6-.15-.43-.35-.92-.79-1.07-.25-.09-.53-.04-.79,0-3.15,.58-6.3,1.19-9.43,1.83-.56,.11-1.14,.24-1.63,.53-1.86,1.14-.67,5.51-.41,7.26,.04,.25,.09,.52,.29,.68,.11,.08,.25,.12,.4,.13h0Z"/></g><path class="cls-4" d="M1061.21,184.84s2.19,2.15,1,4.81c-1.19,2.66-7.57,10.52-12.74,14.37-5.18,3.85-11.96,8.25-14.67,7.48-2.71-.78-3.12-.91-6.71-5.46-3.59-4.55-15.66-21.93-15.66-21.93l4.71-32.01s2.18-4.4,3.64-4.47c0,0,.97-6.26,7.95-7.58,6.98-1.32,12.75,.19,17.1,2.79,4.35,2.6,8.6,7.32,8.67,10.73,.07,3.41-3.44,15.48-3.44,15.48l9.82,11.04s1.65,2.43,.33,4.73h-.01Z"/><g><path class="cls-4" d="M.58,210.75s17.51,3.93,18.71-6.89c1.83-16.51,3.19-33.09,4.69-49.63,.54-5.94,2.54-12.58-3.13-16.65-4.93-3.54-3.14-6.83-3.14-6.83l-11.58-1.5s.56,2.42-3.99,5.35c-4.56,2.93-5.91,6.6-6.15,12.72-.57,14.16-2.01,28.26-3.19,42.38-.41,4.83-1.45,10-.11,14.77,.47,1.7,1.22,3.44,2.54,4.65,1.77,1.64,3.3,1.1,5.36,1.63h0Z"/><path class="cls-4" d="M4.73,130.36c.07,.03,.14,.05,.2,.07,4.2,1.33,8.65,1.83,13.03,1.49,.26-.02,.53-.05,.73-.22,.23-.19,.28-.51,.32-.8,.26-1.91,.37-3.84,.32-5.77-.01-.46-.07-.98-.43-1.25-.21-.16-.5-.2-.76-.23-3.18-.39-6.36-.75-9.55-1.08-.57-.06-1.15-.12-1.72,.02-2.12,.52-2.29,5.06-2.57,6.8-.04,.25-.07,.52,.07,.73,.08,.12,.21,.19,.34,.24h.01Z"/></g><polygon class="cls-4" points="267.52 145.41 252.27 177.35 273.96 190.23 294.27 161.3 296.1 162.39 297.85 159.45 297.39 155.73 270.78 139.92 267.39 141.36 265.58 144.41 267.52 145.41"/><g><path class="cls-4" d="M382.82,210.08s15.31-9.36,8.64-17.97c-10.18-13.13-20.73-25.98-31.16-38.91-3.74-4.64-6.93-10.8-13.84-9.78-6,.88-7-2.72-7-2.72l-9.36,6.98s2.09,1.35,.86,6.62c-1.24,5.27,.34,8.85,4.43,13.42,9.45,10.57,18.22,21.7,27.2,32.66,3.07,3.75,5.92,8.19,10.2,10.69,1.52,.89,3.26,1.62,5.06,1.58,2.41-.06,3.13-1.51,4.98-2.56h0Z"/><path class="cls-4" d="M329.87,149.46c.07-.03,.13-.06,.19-.09,3.93-1.96,7.49-4.7,10.39-8,.17-.19,.35-.41,.37-.66,.03-.29-.15-.56-.33-.8-1.14-1.55-2.4-3.02-3.78-4.37-.33-.32-.73-.66-1.18-.6-.26,.03-.49,.2-.7,.36-2.55,1.93-5.09,3.89-7.61,5.87-.45,.35-.91,.72-1.22,1.21-1.15,1.85,1.87,5.23,2.89,6.67,.15,.2,.32,.43,.56,.47,.14,.03,.28,0,.42-.06h0Z"/></g></g></g></g></svg>