<svg xmlns="http://www.w3.org/2000/svg" xmlns:xlink="http://www.w3.org/1999/xlink" id="Layer_1" viewBox="0 0 1920 331"><defs><style>.cls-1{fill:none;}.cls-2{clip-path:url(#clippath);}.cls-3{fill:#fff;}.cls-4{clip-path:url(#clippath-1);}.cls-5{opacity:.64;}</style><clipPath id="clippath"><rect class="cls-1" x="-1940" y="-749" width="1920" height="1080"></rect></clipPath><clipPath id="clippath-1"><rect class="cls-1" x=".24" width="1920" height="333"></rect></clipPath></defs><g class="cls-2"><g class="cls-5"><polygon class="cls-3" points="-1936.91 -133.73 -1673.15 -188.39 -1534 -143 -1441 -180 -1341 -147 -1252 -161 -1127.79 -155.61 -1044.09 -203.6 -917.58 -165.05 -798.35 -169.12 -701.03 -203.6 -526.23 -192.33 -381 -209 -299 -179 -134 -154 55.7 -135.37 55.7 179.35 -1936.91 179.35 -1936.91 -133.73"></polygon></g><g class="cls-5"><polygon class="cls-3" points="-1984.44 -60.43 -1720.68 -115.08 -1646 -161 -1512.14 -149.68 -1386 -58 -1316 -122 -1266 -133 -1091.62 -130.29 -965.11 -91.74 -845.88 -95.82 -748.56 -130.29 -573.76 -119.02 -426.03 -69.01 -330.07 -69.01 -197.05 -136.09 8.17 -62.07 8.17 252.65 -1984.44 252.65 -1984.44 -60.43"></polygon></g><path class="cls-3" d="M-31.23,37.08S-.11,44.07,2.02,24.83C5.27-4.52,7.68-33.98,10.36-63.39c.96-10.55,4.51-22.36-5.57-29.6-8.76-6.29-5.58-12.14-5.58-12.14l-20.58-2.67s1,4.31-7.1,9.51c-8.1,5.2-10.51,11.73-10.94,22.61-1.01,25.17-3.57,50.24-5.67,75.33-.72,8.59-2.57,17.78-.2,26.26,.84,3.02,2.16,6.11,4.51,8.27,3.15,2.91,5.87,1.95,9.53,2.89Z"></path></g><g class="cls-4"><g class="cls-5"><g><path class="cls-3" d="M282.77,227.61s23.5-5.87,18.39-19.64c-7.8-21.02-16.19-41.83-24.4-62.7-2.94-7.49-4.56-16.71-13.87-18.19-8.08-1.28-7.92-6.33-7.92-6.33l-14.87,5.2s2.15,2.58-1.57,8.87c-3.72,6.29-3.13,11.54,.28,19.07,7.89,17.42,14.7,35.3,21.82,53.04,2.44,6.08,4.31,12.94,8.81,17.88,1.6,1.76,3.55,3.41,5.88,4.08,3.13,.9,4.65-.68,7.45-1.29Z"></path><path class="cls-3" d="M239.08,128.16c.1,0,.19-.02,.28-.04,5.86-.94,11.54-3.03,16.61-6.1,.3-.18,.61-.38,.74-.7,.15-.37,.03-.79-.1-1.17-.84-2.46-1.88-4.86-3.1-7.15-.29-.55-.67-1.14-1.28-1.25-.35-.06-.71,.06-1.05,.18-4.07,1.46-8.13,2.95-12.17,4.48-.72,.27-1.46,.56-2.05,1.07-2.23,1.92,.3,7.49,1.03,9.76,.1,.32,.23,.67,.53,.83,.17,.09,.36,.1,.56,.09Z"></path></g><g><path class="cls-3" d="M370.41,231.68s30.95-7.73,24.22-25.87c-10.27-27.69-21.33-55.1-32.14-82.58-3.88-9.86-6.01-22.01-18.26-23.95-10.65-1.69-10.43-8.34-10.43-8.34l-19.59,6.85s2.83,3.4-2.07,11.68c-4.9,8.28-4.13,15.2,.37,25.12,10.4,22.95,19.36,46.5,28.74,69.87,3.21,8,5.68,17.04,11.61,23.56,2.11,2.32,4.67,4.49,7.74,5.37,4.13,1.19,6.12-.9,9.82-1.69Z"></path><path class="cls-3" d="M312.87,100.69c.13,0,.25-.03,.37-.05,7.72-1.24,15.2-3.99,21.88-8.04,.39-.24,.8-.51,.98-.93,.2-.49,.04-1.04-.13-1.54-1.1-3.24-2.47-6.4-4.09-9.41-.38-.72-.89-1.51-1.69-1.65-.47-.08-.94,.08-1.39,.24-5.36,1.92-10.71,3.89-16.03,5.91-.95,.36-1.93,.74-2.7,1.4-2.94,2.52,.4,9.86,1.35,12.85,.14,.42,.31,.89,.7,1.1,.22,.12,.48,.14,.74,.12Z"></path></g><g><path class="cls-3" d="M392.99,152.15s22.29,9.11,26.29-4.94c6.11-21.44,2.69-10.18,8.38-31.73,2.04-7.74,6.17-16.08-.43-22.73-5.73-5.78-2.63-9.74-2.63-9.74l-14.98-4.57s.21,3.33-6.48,6.19c-6.68,2.85-9.3,7.41-10.99,15.46-3.91,18.61-.05,4.06-4.77,22.48-1.62,6.31-4.15,12.91-3.45,19.52,.25,2.35,.84,4.82,2.32,6.72,1.98,2.56,4.13,2.19,6.73,3.35Z"></path><path class="cls-3" d="M407.51,79.59c.08,.05,.17,.09,.25,.14,5.25,2.69,11.03,4.36,16.91,4.87,.34,.03,.72,.05,1.01-.13,.34-.21,.49-.61,.61-.99,.78-2.47,1.35-5,1.71-7.56,.09-.61,.13-1.31-.29-1.76-.25-.26-.61-.37-.95-.47-4.12-1.23-8.25-2.41-12.4-3.56-.74-.21-1.5-.41-2.27-.35-2.92,.22-4.16,6.18-4.91,8.43-.11,.32-.21,.68-.06,.98,.08,.17,.23,.3,.4,.4Z"></path></g><path class="cls-3" d="M1852.43,92.97s5.62-2.33,7.92-5.55c2.3-3.22,9.01-20.98,2.54-25.11-6.48-4.13-17.43,13.81-17.43,13.81,0,0-2.38,5.75-.24,12.58,2.15,6.83-4.81,17.43-13.59,35.14-8.78,17.71-1.86,16.89-1.86,16.89,0,0,4.58,1.74,8.88-12.53,4.3-14.27,7.64-31.54,13.78-35.22Z"></path><g><path class="cls-3" d="M1297.06,64.77c-1.18,11.01-2.37,22.02-3.55,33.03-.44,4.05-.96,8.1-1.3,12.16-.24,2.86-.16,5.06,1.82,7.31,3.22,3.66,8.63,5.22,13.2,6.33,6.64,1.61,14.26,2.58,18.33-4.03,2.52-4.1,18.1-42.72,18.1-42.72"></path><path class="cls-3" d="M1344.4,77.03c.13-.51,.16-1.05,.08-1.57-.1-.67-.34-1.32-.71-1.97-.64-1.13-1.64-2.23-2.93-3.31-1.94-1.62-4.54-3.19-7.64-4.62-3.09-1.43-6.68-2.71-10.56-3.71-3.62-.94-7.13-1.54-10.34-1.82-3.21-.28-6.13-.25-8.58,.1-1.95,.28-3.6,.75-4.9,1.46-.65,.36-1.2,.77-1.64,1.27-.44,.49-.77,1.07-.93,1.7-.13,.51-.16,1.05-.08,1.57,.1,.67,.34,1.32,.71,1.97,.64,1.13,1.64,2.23,2.93,3.31,1.94,1.62,4.54,3.19,7.64,4.62,3.09,1.43,6.68,2.71,10.56,3.71,3.62,.94,7.13,1.54,10.35,1.82,3.21,.28,6.13,.25,8.58-.1,1.95-.28,3.6-.75,4.9-1.46,.65-.36,1.2-.77,1.64-1.27,.44-.49,.77-1.07,.93-1.7"></path></g><path class="cls-3" d="M286.88,80.55s-1.69-3.43,1.07-9.91c2.77-6.48,13.04-21.93,13.04-21.93,0,0,3.45-1.49-4.43,13.62,0,0-.81,7.43,8.34-10.3,0,0,5.79-6.69-4.89,14.7,0,0-.49,6.78,8.92-12.01,0,0,5.49-4.42-2.8,13.6-8.29,18.02-13.91,14.12-14.8,15.05-.89,.94-25.52,50.89-29.03,51.99s-9.36-2.98,11.4-35.32l13.17-19.51Z"></path><path class="cls-3" d="M306.21,128.15c2.08-8.64,4.23-17.58,10.14-25.02l11.84-14.92c1.11-1.4,.87-3.42-.52-4.53l-11.19-8.88c-1.4-1.11-3.42-.87-4.53,.52l-11.84,14.92c-5.9,7.44-14.12,11.57-22.06,15.56-7.29,3.66-14.17,7.12-18.73,12.87l-47.36,59.69c-5.82,7.33-1.95,14.73,2.07,17.92l18.65,14.8c4.02,3.19,12.1,5.27,17.92-2.06l47.36-59.69c4.56-5.76,6.36-13.25,8.27-21.17Z"></path><path class="cls-3" d="M465.93,112.3c4.63-6.77,3.12-15.58,2.93-25.88-.23-12.33,3.81-15.17,9.26-17.3,5.46-2.13,22.52,3.58,26.08,6.43,0,0,9.48,9.97,12.54,25.86,3.07,15.89-1.45,28.22-1.45,28.22l-4.33,10.08c3.36,7.71,6.99,15.91,8.33,19.57,2.6,7.12,3.76,34.62,4.22,51.22,.46,16.6,9.46,22.06,7.55,39.61-1.91,17.55-18.75,17.53-18.75,17.53,0,0-40.32,7.31-54.79,9.67-14.47,2.36-23.48,1.16-32.96-.74-9.48-1.91-32.25,.68-38.42,1.69-6.17,1.01-16.36,2.29-23.23-11.71-6.86-14-2.35-21.11-.68-28.22,1.67-7.11-.93-22.53-3.52-37.23-2.59-14.7-2.81-38.66-1.26-48.17,1.55-9.51,4.29-24.27,.9-48.23-3.4-23.96,4.4-30.59,7.95-32.48s20.04,2.05,20.04,2.05c5.93,1.21,13.97,18.25,13.97,18.25,0,0,5.92,11.15,9.47,16.13,3.55,4.98,15.65,3.33,19.44,2.86,3.79-.47,36.28,.98,36.28,.98"></path><g><path class="cls-3" d="M1750.2,208.16s22.83,8.07,26.17-6.24c5.09-21.83,9.57-43.82,14.24-65.75,1.68-7.87,5.42-16.45-1.53-22.82-6.03-5.53-3.11-9.65-3.11-9.65l-15.27-3.87s.37,3.34-6.21,6.53c-6.57,3.19-8.98,7.89-10.29,16.06-3.03,18.88-7.22,37.55-11.07,56.28-1.32,6.41-3.54,13.17-2.52,19.78,.36,2.35,1.08,4.8,2.65,6.64,2.12,2.48,4.25,2,6.93,3.04Z"></path><path class="cls-3" d="M1768.64,101.1c.08,.05,.17,.09,.26,.13,5.41,2.45,11.29,3.84,17.22,4.08,.35,.01,.72,.02,1.01-.18,.33-.22,.46-.64,.56-1.03,.66-2.52,1.11-5.08,1.36-7.67,.06-.62,.07-1.32-.38-1.75-.26-.25-.63-.34-.98-.43-4.2-1.03-8.41-2.02-12.62-2.97-.76-.17-1.53-.34-2.3-.24-2.92,.37-3.88,6.41-4.53,8.7-.09,.33-.18,.69-.02,.99,.09,.17,.25,.29,.42,.38Z"></path></g><path class="cls-3" d="M1824.63,138.13c6.5-6.06,13.23-12.33,22.26-15.27l18.11-5.91c1.69-.55,2.62-2.37,2.07-4.07l-4.43-13.58c-.55-1.69-2.37-2.62-4.07-2.07l-18.11,5.91c-9.03,2.95-18.15,1.86-26.98,.81-8.1-.97-15.74-1.88-22.73,.4l-72.43,23.65c-8.9,2.91-9.75,11.21-8.16,16.08l7.39,22.64c1.59,4.87,7.19,11.07,16.08,8.16l72.43-23.65c6.98-2.28,12.61-7.54,18.58-13.1Z"></path><g><path class="cls-3" d="M1483.15,99.25s-24.21-.47-22.88,14.16c2.04,22.33,4.71,44.61,7.18,66.89,.89,8,.04,17.32,8.64,21.17,7.47,3.35,5.99,8.18,5.99,8.18l15.71-1.14s-1.4-3.05,3.83-8.15c5.24-5.1,6.04-10.32,4.71-18.48-3.07-18.88-4.97-37.92-7.21-56.9-.77-6.5-.78-13.61-3.84-19.57-1.09-2.12-2.53-4.21-4.61-5.47-2.79-1.69-4.66-.56-7.53-.71Z"></path><path class="cls-3" d="M1499.36,206.66c-.09-.02-.19-.03-.28-.04-5.9-.62-11.93-.09-17.63,1.55-.33,.1-.69,.21-.9,.49-.24,.32-.24,.75-.21,1.15,.16,2.6,.54,5.18,1.13,7.71,.14,.6,.35,1.28,.91,1.54,.33,.15,.7,.13,1.06,.1,4.31-.34,8.62-.73,12.92-1.15,.77-.08,1.56-.16,2.26-.49,2.66-1.27,1.66-7.3,1.56-9.69-.02-.34-.05-.71-.3-.94-.14-.13-.32-.2-.52-.23Z"></path></g><path class="cls-3" d="M1441.56,169.15c-4.26,7.8-8.68,15.86-16.32,21.51l-15.33,11.31c-1.43,1.06-1.74,3.08-.68,4.51l8.48,11.49c1.06,1.43,3.08,1.74,4.51,.68l15.33-11.31c7.64-5.64,16.65-7.48,25.36-9.26,7.99-1.63,15.54-3.17,21.44-7.53l61.3-45.26c7.53-5.56,5.73-13.71,2.68-17.83l-14.14-19.16c-3.04-4.12-10.3-8.24-17.83-2.69l-61.3,45.26c-5.91,4.37-9.6,11.13-13.51,18.28Z"></path><path class="cls-3" d="M212.92,142.81c-5.66-5.93-14.6-6.27-24.72-8.22-12.11-2.33-14.06-6.86-15.01-12.64-.96-5.78,8.16-21.3,11.68-24.19,0,0,11.71-7.21,27.89-6.93,16.18,.28,27.31,7.25,27.31,7.25l8.97,6.32c8.23-1.69,17.02-3.55,20.87-4.11,7.5-1.07,34.65,3.48,50.99,6.46s23.54-4.7,40.31,.8c16.77,5.5,13.28,21.97,13.28,21.97,0,0-1.18,40.96-1.86,55.6s-3.71,23.21-7.54,32.1c-3.83,8.88-6,31.69-6.29,37.94-.29,6.24-1.14,16.48-16.25,20.31-15.11,3.82-21.14-2.06-27.75-5.16-6.61-3.1-22.23-3.75-37.16-4.25-14.92-.5-38.4-5.24-47.39-8.73-8.99-3.49-22.86-9.22-47-10.84-24.14-1.63-29.02-10.62-30.13-14.5-1.12-3.87,6.15-19.19,6.15-19.19,2.41-5.55,20.75-9.9,20.75-9.9,0,0,12.13-3.49,17.74-5.93,5.61-2.45,6.5-14.62,6.82-18.43,.32-3.81,8.46-35.29,8.46-35.29"></path><path class="cls-3" d="M1721.61,118.35s-3.05,2.3-9.93,.8c-6.88-1.51-23.98-8.71-23.98-8.71,0,0-2.11-3.11,14.21,1.8,0,0,7.45-.6-11.68-6.27,0,0-7.66-4.43,15.36,2.05,0,0,6.75-.79-13.46-6.52,0,0-5.37-4.57,13.89,.21,19.25,4.78,16.47,11.03,17.55,11.73,1.09,.7,54.77,15.56,56.5,18.8s-1.18,9.75-36.83-4.59l-21.62-9.29Z"></path><path class="cls-3" d="M979.39,134.01s-1.06-3.37,1.58-5.41,13.34-6.58,20.66-7.68c7.32-1.1,16.57-1.91,18.89,.33,2.33,2.25,2.67,2.61,3.85,9.15,1.18,6.54,4.03,30.66,4.03,30.66l-22.03,29.88s-4.59,3.28-6.1,2.57c0,0-4.36,5.82-12.14,3.38-7.78-2.43-12.81-7.07-15.81-12.05-3-4.98-4.76-12.05-2.99-15.55,1.77-3.5,11.83-13.83,11.83-13.83l-3.99-16.49s-.36-3.35,2.22-4.97Z"></path><path class="cls-3" d="M1377.7,114.54c.79-10.04,1.62-20.42,6.9-29.8l10.6-18.8c.99-1.76,.37-3.99-1.39-4.98l-14.1-7.95c-1.76-.99-3.99-.37-4.98,1.39l-10.6,18.8c-5.29,9.37-13.74,15.45-21.92,21.32-7.5,5.39-14.59,10.48-18.68,17.72l-42.41,75.2c-5.21,9.24,.43,16.83,5.49,19.68l23.5,13.25c5.06,2.85,14.47,3.75,19.68-5.49l42.41-75.2c4.08-7.25,4.77-15.95,5.5-25.16Z"></path><path class="cls-3" d="M1323.03,234.83c5.08,6.43,13.95,7.61,23.84,10.49,11.84,3.45,13.35,8.15,13.76,13.99,.41,5.84-10.11,20.44-13.89,22.99,0,0-12.34,6.08-28.42,4.29-16.08-1.8-26.51-9.78-26.51-9.78l-8.34-7.13c-8.35,.91-17.27,1.95-21.16,2.14-7.57,.37-34.18-6.71-50.16-11.2-15.99-4.5-23.88,2.48-40.06-4.57-16.18-7.04-11.16-23.11-11.16-23.11,0,0,5.01-40.67,7.06-55.18,2.05-14.51,5.87-22.76,10.51-31.25,4.64-8.49,8.94-30.99,9.81-37.18,.87-6.19,2.68-16.31,18.08-18.7,15.41-2.39,20.85,4.03,27.15,7.74,6.29,3.71,21.78,5.81,36.6,7.71,14.81,1.9,37.74,8.81,46.36,13.12,8.62,4.31,21.9,11.32,45.78,15.2,23.88,3.88,27.9,13.29,28.64,17.25,.75,3.96-7.92,18.53-7.92,18.53-2.92,5.3-21.58,7.91-21.58,7.91,0,0-12.41,2.33-18.22,4.24-5.81,1.91-7.84,13.95-8.52,17.71-.68,3.76-11.73,34.35-11.73,34.35"></path><path class="cls-3" d="M1422.08,132.5s4.94-3.54,6.45-7.2c1.5-3.66,4.01-22.48-3.24-25.03-7.24-2.55-13.84,17.41-13.84,17.41,0,0-1.01,6.15,2.63,12.31,3.64,6.16-.72,18.07-5.25,37.31-4.52,19.24,2.03,16.87,2.03,16.87,0,0,4.85,.65,5.8-14.22,.95-14.87,.27-32.45,5.42-37.43Z"></path><path class="cls-3" d="M1399.31,123.33s3.46-2.6,6.9-.38c3.44,2.22,13.04,12.73,17.3,20.74,4.26,8.01,8.97,18.36,7.32,21.97-1.64,3.61-1.92,4.14-9,8.18-7.08,4.03-33.79,17.17-33.79,17.17l-43.51-13.26s-5.66-3.96-5.45-6c0,0-8.5-2.67-8.87-12.65-.37-9.98,2.94-17.68,7.47-23.18,4.53-5.5,11.98-10.42,16.75-9.8,4.76,.62,20.8,8.03,20.8,8.03l17.42-11.33s3.73-1.78,6.65,.54Z"></path><g><path class="cls-3" d="M214.37,218.48s30.95-7.73,24.22-25.87c-10.27-27.69-21.33-55.1-32.14-82.58-3.88-9.86-6.01-22.01-18.26-23.95-10.65-1.69-10.43-8.34-10.43-8.34l-19.59,6.85s2.83,3.4-2.07,11.68c-4.9,8.28-4.13,15.2,.37,25.12,10.4,22.95,19.36,46.5,28.74,69.87,3.21,8,5.68,17.04,11.61,23.56,2.11,2.32,4.67,4.49,7.74,5.37,4.13,1.19,6.12-.9,9.82-1.69Z"></path><path class="cls-3" d="M156.83,87.48c.13,0,.25-.03,.37-.05,7.72-1.24,15.2-3.99,21.88-8.04,.39-.24,.8-.51,.98-.93,.2-.49,.04-1.04-.13-1.54-1.1-3.24-2.47-6.4-4.09-9.41-.38-.72-.89-1.51-1.69-1.65-.47-.08-.94,.08-1.39,.24-5.36,1.92-10.71,3.89-16.03,5.91-.95,.36-1.93,.74-2.7,1.4-2.94,2.52,.4,9.86,1.35,12.85,.14,.42,.31,.89,.7,1.1,.22,.12,.48,.14,.74,.12Z"></path></g><g><path class="cls-3" d="M194.3,226.01s27.21-16.64,15.36-31.94c-18.09-23.34-36.85-46.18-55.39-69.17-6.65-8.25-12.32-19.2-24.6-17.39-10.67,1.57-12.45-4.84-12.45-4.84l-16.64,12.4s3.72,2.4,1.52,11.77c-2.2,9.37,.61,15.73,7.87,23.86,16.79,18.78,32.39,38.57,48.34,58.06,5.46,6.67,10.52,14.56,18.13,19,2.7,1.58,5.8,2.88,8.99,2.8,4.29-.1,5.57-2.69,8.86-4.55Z"></path><path class="cls-3" d="M100.18,118.25c.12-.05,.23-.1,.34-.16,6.99-3.49,13.31-8.35,18.47-14.22,.3-.34,.62-.72,.66-1.18,.05-.52-.27-1-.58-1.43-2.02-2.76-4.27-5.36-6.72-7.76-.58-.57-1.3-1.17-2.1-1.07-.47,.06-.87,.36-1.25,.64-4.54,3.43-9.05,6.91-13.53,10.43-.8,.63-1.62,1.28-2.16,2.15-2.05,3.29,3.33,9.29,5.14,11.86,.26,.36,.56,.76,1,.84,.25,.05,.5-.01,.74-.11Z"></path></g><path class="cls-3" d="M1883.81,101.07c2.74-7.73-.98-15.86-3.81-25.77-3.38-11.86-.21-15.64,4.52-19.1,4.73-3.46,22.69-2.32,26.85-.47,0,0,11.72,7.21,18.75,21.78,7.04,14.57,5.83,27.65,5.83,27.65l-1.6,10.85c5.22,6.59,10.84,13.59,13.07,16.78,4.34,6.21,12.51,32.5,17.21,48.43,4.7,15.93,14.81,18.9,17.45,36.35,2.65,17.45-13.63,21.75-13.63,21.75,0,0-37.1,17.41-50.48,23.4-13.38,5.99-22.39,7.14-32.05,7.73-9.66,.59-31,8.93-36.7,11.48-5.7,2.55-15.23,6.41-25.45-5.36-10.22-11.77-7.68-19.8-7.9-27.1-.21-7.3-6.67-21.54-12.95-35.09-6.28-13.55-12.63-36.64-13.57-46.23-.94-9.59-2.08-24.56-11.5-46.85-9.43-22.28-3.6-30.69-.64-33.43,2.95-2.74,19.9-3.15,19.9-3.15,6.04-.35,18.19,14.06,18.19,14.06,0,0,8.58,9.26,13.29,13.17,4.71,3.91,15.98-.79,19.53-2.22,3.55-1.43,35.32-8.35,35.32-8.35"></path><path class="cls-3" d="M28.7,117.65c-5.82-9.88-11.83-20.09-14.16-32.56l-4.67-25.02c-.44-2.34-2.27-3.96-4.1-3.62l-14.66,2.74c-1.83,.34-2.96,2.51-2.52,4.86l4.67,25.02c2.33,12.48,.4,24.17-1.46,35.48-1.71,10.37-3.33,20.17-1.53,29.82L8.95,254.45c2.3,12.29,10.96,15.29,16.22,14.31l24.44-4.56c5.26-.98,12.26-6.9,9.96-19.19l-18.69-100.09c-1.81-9.65-6.85-18.2-12.19-27.26Z"></path><path class="cls-3" d="M121.22,139.34s5.2,1.67,5.43,6.84c.22,5.17-3.63,22.75-8.78,32.99-5.15,10.24-12.41,22.65-17.33,23.59-4.92,.93-5.68,1.04-15.01-3.32-9.33-4.36-42.37-22.35-42.37-22.35l-18.06-54.59s-.04-8.73,2.21-10c0,0-3.45-10.72,6.59-18.38,10.04-7.66,20.4-9.87,29.38-9.2,8.98,.66,19.49,4.77,22.33,10.14,2.84,5.37,6.89,27.33,6.89,27.33l24.41,9.71s4.55,2.55,4.3,7.25Z"></path><path class="cls-3" d="M57.24,130.89c-4.42-10.58-8.98-21.51-9.59-34.19l-1.21-25.43c-.11-2.38-1.71-4.23-3.57-4.15l-14.9,.71c-1.86,.09-3.27,2.09-3.16,4.47l1.21,25.43c.6,12.68-2.9,23.99-6.29,34.95-3.11,10.04-6.05,19.53-5.58,29.33l4.85,101.7c.6,12.49,8.77,16.64,14.11,16.39l24.83-1.18c5.35-.25,13.08-5.16,12.49-17.65l-4.85-101.7c-.47-9.8-4.3-18.96-8.35-28.66Z"></path><g><path class="cls-3" d="M1665.46,218.02s23.63,5.3,25.25-9.3c2.47-22.28,4.3-44.65,6.33-66.98,.73-8.01,3.42-16.98-4.23-22.47-6.65-4.78-4.23-9.21-4.23-9.21l-15.62-2.03s.76,3.27-5.39,7.22c-6.15,3.95-7.98,8.9-8.31,17.17-.76,19.11-2.71,38.14-4.31,57.2-.55,6.52-1.95,13.5-.15,19.94,.64,2.29,1.64,4.64,3.42,6.28,2.4,2.21,4.46,1.48,7.24,2.2Z"></path><path class="cls-3" d="M1671.05,109.53c.09,.04,.18,.07,.27,.09,5.66,1.79,11.67,2.47,17.59,2,.35-.03,.72-.07,.98-.3,.3-.26,.38-.69,.44-1.09,.36-2.58,.5-5.18,.43-7.78-.02-.62-.09-1.32-.58-1.69-.29-.21-.66-.27-1.02-.31-4.29-.53-8.59-1.01-12.89-1.45-.77-.08-1.56-.16-2.31,.03-2.86,.71-3.09,6.82-3.46,9.18-.05,.33-.09,.71,.1,.98,.11,.16,.28,.26,.46,.33Z"></path></g><g><path class="cls-3" d="M1778.15,273.57s31.12,6.98,33.25-12.25c3.25-29.35,5.67-58.81,8.34-88.22,.96-10.55,4.51-22.36-5.57-29.6-8.76-6.29-5.58-12.14-5.58-12.14l-20.58-2.67s1,4.31-7.1,9.51c-8.1,5.2-10.51,11.73-10.94,22.61-1.01,25.17-3.57,50.24-5.67,75.33-.72,8.59-2.57,17.78-.2,26.26,.84,3.02,2.16,6.11,4.51,8.27,3.15,2.91,5.87,1.95,9.53,2.89Z"></path><path class="cls-3" d="M1785.52,130.69c.12,.05,.24,.09,.35,.12,7.46,2.36,15.37,3.26,23.16,2.64,.46-.04,.95-.09,1.29-.39,.4-.34,.5-.91,.57-1.43,.47-3.39,.66-6.82,.57-10.25-.02-.81-.12-1.74-.77-2.23-.38-.28-.88-.35-1.35-.41-5.65-.69-11.31-1.33-16.97-1.92-1.01-.1-2.05-.21-3.05,.04-3.76,.93-4.07,8.99-4.56,12.09-.07,.44-.12,.93,.13,1.3,.15,.21,.37,.34,.61,.43Z"></path></g><path class="cls-3" d="M1731.04,106.65c5.74-6.79,11.67-13.81,20.29-17.81l17.28-8.02c1.62-.75,2.32-2.67,1.57-4.29l-6.02-12.96c-.75-1.62-2.67-2.32-4.29-1.57l-17.28,8.02c-8.61,4-17.8,4-26.7,4-8.15,0-15.86,0-22.52,3.09l-69.11,32.09c-8.49,3.94-8.35,12.29-6.2,16.94l10.03,21.6c2.16,4.65,8.45,10.14,16.94,6.2l69.11-32.09c6.66-3.1,11.63-8.98,16.89-15.21Z"></path><path class="cls-3" d="M1556,197.27c-7.41-12.41-15.06-25.25-16.66-40.61l-3.2-30.81c-.3-2.88-2.88-4.98-5.76-4.68l-23.1,2.4c-2.88,.3-4.98,2.88-4.68,5.76l3.2,30.81c1.6,15.36-3.26,29.49-7.96,43.17-4.31,12.54-8.38,24.38-7.15,36.26l12.8,123.25c1.57,15.14,14.48,19.34,22.77,18.48l38.51-4c8.29-.86,20.06-7.63,18.48-22.77l-12.8-123.25c-1.24-11.88-7.66-22.63-14.46-34.02Z"></path><path class="cls-3" d="M1677.3,123.47c-2.4-7.84-10.23-12.16-18.4-18.44-9.78-7.52-9.48-12.44-7.74-18.03,1.74-5.59,16.85-15.37,21.29-16.37,0,0,13.7-1.19,28.04,6.33,14.33,7.52,21.15,18.74,21.15,18.74l5.18,9.67c8.12,2.18,16.8,4.46,20.49,5.69,7.18,2.41,29.41,18.66,42.67,28.66,13.26,10,23.15,6.37,35.67,18.81,12.52,12.44,2,25.59,2,25.59,0,0-19.44,36.07-26.62,48.85-7.18,12.78-13.74,19.07-21.14,25.3-7.41,6.22-19.59,25.63-22.65,31.08-3.06,5.45-8.42,14.22-23.64,10.85-15.22-3.37-17.96-11.33-22.48-17.07-4.52-5.74-18.19-13.33-31.3-20.47-13.11-7.15-31.96-21.92-38.43-29.07-6.47-7.15-16.29-18.5-37.14-30.79-20.84-12.29-21.16-22.51-20.42-26.48s14.11-14.38,14.11-14.38c4.65-3.88,22.98,.47,22.98,.47,0,0,12.41,2.33,18.52,2.66,6.11,.33,12.37-10.15,14.37-13.41,2-3.26,23.4-27.74,23.4-27.74"></path><g><path class="cls-3" d="M1608.44,205.16s31.12,6.98,33.25-12.25c3.25-29.35,5.67-58.81,8.34-88.22,.96-10.55,4.51-22.36-5.57-29.6-8.76-6.29-5.58-12.14-5.58-12.14l-20.58-2.67s1,4.31-7.1,9.51c-8.1,5.2-10.51,11.73-10.94,22.61-1.01,25.17-3.57,50.24-5.67,75.33-.72,8.59-2.57,17.78-.2,26.26,.84,3.02,2.16,6.11,4.51,8.27,3.15,2.91,5.87,1.95,9.53,2.89Z"></path><path class="cls-3" d="M1615.81,62.27c.12,.05,.24,.09,.35,.12,7.46,2.36,15.37,3.26,23.16,2.64,.46-.04,.95-.09,1.29-.39,.4-.34,.5-.91,.57-1.43,.47-3.39,.66-6.82,.57-10.25-.02-.81-.12-1.74-.77-2.23-.38-.28-.88-.35-1.35-.41-5.65-.69-11.31-1.33-16.97-1.92-1.01-.1-2.05-.21-3.05,.04-3.76,.93-4.07,8.99-4.56,12.09-.07,.44-.12,.93,.13,1.3,.15,.21,.37,.34,.61,.43Z"></path></g><g><path class="cls-3" d="M1587.12,206.88s31.79-2.65,28.06-21.65c-5.69-28.98-12.2-57.81-18.45-86.67-2.24-10.36-2.39-22.68-14.18-26.58-10.24-3.38-8.95-9.91-8.95-9.91l-20.43,3.61s2.25,3.81-3.92,11.2c-6.17,7.39-6.52,14.33-3.67,24.85,6.57,24.32,11.64,49,17.14,73.58,1.88,8.42,2.87,17.73,7.67,25.12,1.71,2.62,3.89,5.18,6.78,6.54,3.88,1.83,6.19,.1,9.96-.09Z"></path><path class="cls-3" d="M1551.37,68.34c.13,.01,.25,.01,.38,.01,7.82,.02,15.64-1.49,22.89-4.42,.42-.17,.87-.37,1.12-.76,.28-.45,.21-1.02,.12-1.54-.57-3.38-1.41-6.71-2.52-9.95-.26-.77-.63-1.63-1.4-1.9-.45-.16-.94-.07-1.41,.01-5.6,1.03-11.19,2.11-16.77,3.25-1,.2-2.02,.42-2.89,.95-3.31,2.02-1.19,9.8-.73,12.9,.07,.44,.16,.93,.51,1.2,.2,.15,.45,.21,.71,.23Z"></path></g><path class="cls-3" d="M930.01,97.46c-9.31-6.68-18.94-13.59-26.12-24.06l-14.39-21c-1.35-1.97-3.68-2.7-5.22-1.65l-12.3,8.43c-1.54,1.05-1.69,3.5-.34,5.46l14.39,21c7.17,10.47,10.14,21.94,13,33.04,2.63,10.18,5.11,19.79,10.66,27.89l57.55,84c7.07,10.32,16.2,9.56,20.62,6.53l20.51-14.05c4.42-3.02,8.42-11.27,1.35-21.58l-57.55-84c-5.55-8.09-13.62-13.88-22.16-20.01Z"></path><path class="cls-3" d="M1495.71,205.63s3.9,3.83,1.78,8.55c-2.12,4.72-13.45,18.7-22.65,25.54-9.2,6.84-21.26,14.67-26.07,13.3-4.82-1.38-5.54-1.62-11.92-9.7-6.38-8.08-27.83-38.99-27.83-38.99l8.37-56.89s3.88-7.83,6.47-7.95c0,0,1.73-11.13,14.14-13.47,12.41-2.34,22.66,.34,30.39,4.96,7.73,4.62,15.28,13.01,15.41,19.08,.13,6.07-6.11,27.52-6.11,27.52l17.46,19.63s2.93,4.32,.58,8.41Z"></path><path class="cls-3" d="M974.37,107.73c-5.39-10.12-10.95-20.58-12.73-33.15l-3.58-25.2c-.33-2.36-2.1-4.06-3.94-3.79l-14.77,2.1c-1.84,.26-3.06,2.38-2.73,4.74l3.58,25.2c1.78,12.56-.65,24.16-3,35.38-2.16,10.29-4.2,20.01-2.82,29.72l14.32,100.81c1.76,12.38,10.28,15.75,15.58,15l24.62-3.5c5.3-.75,12.55-6.36,10.79-18.74l-14.32-100.81c-1.39-9.72-6.05-18.48-10.99-27.76Z"></path><path class="cls-3" d="M1728.72,92.7s-3.82-.17-8.17-5.71c-4.35-5.54-12.95-21.98-12.95-21.98,0,0,.35-3.75,9.81,10.44,0,0,6.13,4.28-5.01-12.27,0,0-3.08-8.29,10.54,11.36,0,0,5.71,3.69-6.23-13.6,0,0-1.23-6.94,10.58,9,11.8,15.94,5.68,18.99,6.07,20.22,.39,1.23,32.33,46.86,31.6,50.46s-7.12,6.77-25.48-26.99l-10.76-20.93Z"></path><g><path class="cls-3" d="M762.37,186.04s19.44,14.21,26.71,1.54c11.09-19.34,5.06-9.23,15.78-28.78,3.84-7.02,9.86-14.12,5.06-22.17-4.17-6.99-.2-10.08-.2-10.08l-13.44-8.05s-.6,3.28-7.78,4.44c-7.17,1.16-10.81,4.95-14.39,12.35-8.28,17.12-1.03,3.93-10.05,20.67-3.09,5.73-7.14,11.53-8.05,18.12-.32,2.34-.34,4.88,.63,7.08,1.31,2.97,3.48,3.12,5.73,4.88Z"></path><path class="cls-3" d="M793.94,119.12c.07,.07,.14,.13,.21,.19,4.45,3.88,9.66,6.89,15.24,8.8,.33,.11,.68,.22,1.01,.12,.38-.12,.62-.48,.83-.82,1.35-2.21,2.51-4.52,3.48-6.92,.23-.57,.45-1.24,.14-1.77-.18-.31-.5-.51-.81-.69-3.7-2.18-7.43-4.33-11.17-6.44-.67-.38-1.36-.76-2.12-.89-2.89-.49-5.53,5-6.8,6.99-.18,.28-.37,.61-.3,.94,.04,.19,.15,.34,.29,.48Z"></path></g><g><path class="cls-3" d="M816.07,113.55c6.48,8.98,12.97,17.95,19.45,26.93,2.39,3.3,4.7,6.66,7.17,9.91,1.73,2.28,3.27,3.87,6.24,4.22,4.84,.57,9.9-1.89,14.04-4.12,6.01-3.24,12.32-7.62,10.93-15.26-.86-4.73-15.11-43.86-15.11-43.86"></path><path class="cls-3" d="M859.47,91c-.24-.47-.58-.88-.99-1.22-.52-.43-1.14-.76-1.84-.99-1.23-.41-2.71-.56-4.39-.5-2.52,.09-5.51,.67-8.77,1.67-3.25,1.01-6.77,2.45-10.34,4.31-3.32,1.73-6.33,3.62-8.91,5.56-2.58,1.94-4.72,3.91-6.31,5.81-1.26,1.51-2.18,2.97-2.66,4.36-.24,.7-.38,1.38-.37,2.04,0,.66,.14,1.31,.45,1.89,.24,.47,.58,.88,.99,1.22,.52,.43,1.14,.76,1.84,.99,1.23,.41,2.71,.56,4.39,.5,2.52-.09,5.51-.67,8.77-1.67,3.25-1.01,6.77-2.45,10.34-4.31,3.32-1.73,6.33-3.63,8.91-5.56,2.58-1.94,4.72-3.91,6.31-5.81,1.26-1.51,2.18-2.97,2.66-4.36,.24-.7,.38-1.38,.37-2.04,0-.66-.14-1.31-.45-1.89"></path></g><path class="cls-3" d="M817.54,177.15c8.16-.78,13.96-7.6,21.74-14.35,9.32-8.08,14.09-6.81,19.22-3.98,5.13,2.82,11.7,19.58,11.79,24.13,0,0-1.57,13.66-11.8,26.21-10.23,12.54-22.58,16.98-22.58,16.98l-10.51,3.14c-3.76,7.52-7.73,15.57-9.67,18.94-3.79,6.56-24.16,25.09-36.6,36.08-12.44,10.99-10.86,21.41-25.55,31.19-14.69,9.78-25.47-3.15-25.47-3.15,0,0-31.46-26.25-42.55-35.84-11.08-9.59-15.95-17.27-20.56-25.77-4.62-8.5-21.2-24.31-25.93-28.4-4.73-4.09-12.25-11.09-5.91-25.33,6.34-14.24,14.69-15.34,21.22-18.62,6.53-3.28,16.69-15.16,26.32-26.57,9.62-11.42,27.86-26.94,36.16-31.85,8.3-4.91,21.38-12.27,37.59-30.24,16.21-17.97,26.29-16.24,30.02-14.72,3.73,1.52,11.27,16.7,11.27,16.7,2.87,5.33-5.05,22.43-5.05,22.43,0,0-4.76,11.69-6.31,17.61-1.55,5.92,7.47,14.15,10.27,16.76,2.79,2.61,22.51,28.47,22.51,28.47"></path><path class="cls-3" d="M830.87,114.55s1.9-2.97,5.17-2.26c3.26,.71,13.6,6.02,19.14,10.93,5.54,4.91,12.09,11.49,11.86,14.71-.23,3.23-.29,3.72-4.55,8.82-4.26,5.1-20.95,22.75-20.95,22.75l-37.05,2.25s-5.46-1.42-5.88-3.03c0,0-7.26,.38-10.38-7.15-3.12-7.53-2.79-14.36-.89-19.86,1.9-5.5,6.2-11.38,10.01-12.26,3.82-.89,18.2,.21,18.2,.21l10.09-13.63s2.34-2.42,5.24-1.48Z"></path><path class="cls-3" d="M909.31,114.61c-6.13-8-12.46-16.26-14.8-26.77l-4.69-21.07c-.44-1.97-2.39-3.21-4.36-2.77l-15.8,3.52c-1.97,.44-3.21,2.39-2.77,4.36l4.69,21.07c2.34,10.5,.11,20.67-2.04,30.52-1.97,9.02-3.84,17.55-2.03,25.67l18.77,84.27c2.31,10.35,11.58,12.22,17.25,10.96l26.33-5.87c5.67-1.26,13.27-6.89,10.96-17.24l-18.77-84.27c-1.82-8.12-7.12-15.05-12.74-22.38Z"></path><path class="cls-3" d="M960.13,208.6c8.08,1.38,15.46-3.67,24.74-8.15,11.11-5.35,15.38-2.87,19.59,1.19,4.21,4.07,6.15,21.96,5.05,26.38,0,0-5.1,12.77-18.26,22.19-13.16,9.42-26.25,10.46-26.25,10.46l-10.97,.28c-5.6,6.27-11.54,13-14.3,15.74-5.38,5.34-29.89,17.87-44.78,25.22-14.89,7.35-16.1,17.81-32.84,23.4-16.74,5.59-23.76-9.72-23.76-9.72,0,0-23.48-33.58-31.66-45.74-8.18-12.16-10.86-20.85-13.09-30.26-2.23-9.41-14.08-29.02-17.57-34.2s-8.92-13.91,.94-25.99c9.85-12.08,18.2-10.95,25.36-12.4,7.16-1.46,20.08-10.25,32.36-18.75,12.28-8.5,33.95-18.69,43.24-21.25,9.29-2.56,23.85-6.24,44.2-19.32,20.35-13.09,29.63-8.78,32.83-6.33,3.21,2.44,6.5,19.07,6.5,19.07,1.37,5.89-10.75,20.32-10.75,20.32,0,0-7.66,10.03-10.71,15.34-3.04,5.31,3.5,15.61,5.52,18.86,2.01,3.25,14.25,33.38,14.25,33.38"></path><path class="cls-3" d="M762.52,95.91s4.17-4.43,4.94-8.31c.77-3.88-.4-22.83-8-23.94-7.6-1.1-10.23,19.75-10.23,19.75,0,0,.19,6.23,4.95,11.57,4.76,5.34,2.77,17.87,2.04,37.62-.73,19.75,5.24,16.16,5.24,16.16,0,0,4.89-.3,2.95-15.07-1.94-14.78-5.99-31.89-1.9-37.77Z"></path><g><path class="cls-3" d="M644.75,267.56s29.82,12.71,36.05-11.47c9.5-36.9,18.2-74.04,27.14-111.08,3.21-13.29,9.29-27.86,.69-38.3-7.47-9.07-3.03-16.11-3.03-16.11l-20.13-5.93s.09,5.6-9.16,11.21c-9.25,5.61-13.06,13.61-15.81,27.39-6.36,31.86-14.26,63.41-21.71,95.04-2.55,10.83-6.37,22.27-5.78,33.35,.21,3.94,.88,8.03,2.78,11.07,2.55,4.09,5.49,3.2,8.98,4.85Z"></path><path class="cls-3" d="M682.52,86.87c.11,.07,.22,.14,.33,.2,7,3.91,14.77,6.03,22.74,6.21,.47,.01,.97,0,1.38-.34,.47-.39,.7-1.09,.88-1.75,1.19-4.25,2.12-8.59,2.75-12.95,.15-1.04,.25-2.23-.3-2.93-.32-.41-.81-.55-1.27-.68-5.54-1.58-11.09-3.09-16.67-4.53-1-.26-2.02-.51-3.07-.32-3.98,.72-6,10.92-7.16,14.8-.16,.55-.32,1.17-.14,1.66,.1,.28,.3,.47,.52,.63Z"></path></g><g><path class="cls-3" d="M667.25,191.68s25.08-2.85,21.69-17.78c-5.18-22.79-11.01-45.44-16.63-68.12-2.02-8.14-2.42-17.89-11.84-20.69-8.18-2.43-7.32-7.63-7.32-7.63l-16.08,3.34s1.87,2.96-2.84,8.95c-4.71,5.99-4.82,11.49-2.32,19.74,5.77,19.08,10.36,38.49,15.28,57.8,1.69,6.61,2.68,13.96,6.66,19.69,1.41,2.04,3.2,4.01,5.51,5.02,3.11,1.36,4.9-.07,7.88-.31Z"></path><path class="cls-3" d="M635.73,82.93c.1,0,.2,0,.3,0,6.19-.17,12.34-1.55,18-4.03,.33-.15,.68-.31,.87-.63,.21-.36,.14-.81,.06-1.22-.53-2.66-1.27-5.27-2.23-7.81-.23-.6-.54-1.27-1.15-1.47-.36-.11-.75-.03-1.11,.04-4.41,.95-8.8,1.94-13.19,2.97-.79,.18-1.59,.38-2.27,.82-2.57,1.67-.71,7.78-.28,10.22,.06,.35,.15,.73,.44,.94,.16,.12,.36,.16,.57,.17Z"></path></g><polygon class="cls-3" points="3.32 201.39 267.09 146.74 406.24 192.12 499.24 155.12 599.24 188.12 688.24 174.12 812.44 179.51 896.14 131.53 1022.66 170.08 1141.88 166 1239.21 131.53 1414.01 142.8 1559.24 126.12 1641.24 156.12 1806.24 181.12 1995.93 199.75 1995.93 514.47 3.32 514.47 3.32 201.39"></polygon><polygon class="cls-3" points="1774.97 60.12 1747.87 116.89 1786.42 139.78 1822.51 88.36 1825.78 90.3 1828.89 85.06 1828.07 78.46 1780.76 50.36 1774.74 52.9 1771.52 58.33 1774.97 60.12"></polygon><polygon class="cls-3" points="522 98.34 494.89 155.11 533.44 178.01 569.54 126.58 572.81 128.52 575.91 123.29 575.1 116.68 527.79 88.59 521.77 91.13 518.55 96.55 522 98.34"></polygon><polygon class="cls-3" points="218.86 86.28 255.38 137.5 294.09 114.88 266.6 58.38 269.88 56.46 266.81 51.21 260.64 48.72 213.13 76.48 212.44 82.98 215.62 88.43 218.86 86.28"></polygon><polygon class="cls-3" points="225.54 94.42 198.44 151.19 236.99 174.09 273.08 122.66 276.35 124.6 279.46 119.37 278.64 112.76 231.34 84.66 225.31 87.21 222.09 92.63 225.54 94.42"></polygon><polygon class="cls-3" points="1227.21 73.4 1248.6 132.56 1291.98 121.19 1280.7 59.37 1284.38 58.41 1282.83 52.52 1277.56 48.46 1224.34 62.42 1221.92 68.5 1223.52 74.6 1227.21 73.4"></polygon><polygon class="cls-3" points="1041.73 96.13 990.22 60.02 961.26 94.25 1006.02 138.35 1003.56 141.25 1008.21 145.18 1014.86 145.48 1050.39 103.46 1048.88 97.1 1044.06 93.03 1041.73 96.13"></polygon><g><path class="cls-3" d="M1115.03,249.46s31.12,6.98,33.25-12.25c3.25-29.35,5.67-58.81,8.34-88.22,.96-10.55,4.51-22.36-5.57-29.6-8.76-6.29-5.58-12.14-5.58-12.14l-20.58-2.67s1,4.31-7.1,9.51c-8.1,5.2-10.51,11.73-10.94,22.61-1.01,25.17-3.57,50.24-5.67,75.33-.72,8.59-2.57,17.78-.2,26.26,.84,3.02,2.16,6.11,4.51,8.27,3.15,2.91,5.87,1.95,9.53,2.89Z"></path><path class="cls-3" d="M1122.4,106.57c.12,.05,.24,.09,.35,.12,7.46,2.36,15.37,3.26,23.16,2.64,.46-.04,.95-.09,1.29-.39,.4-.34,.5-.91,.57-1.43,.47-3.39,.66-6.82,.57-10.25-.02-.81-.12-1.74-.77-2.23-.38-.28-.88-.35-1.35-.41-5.65-.69-11.31-1.33-16.97-1.92-1.01-.1-2.05-.21-3.05,.04-3.76,.93-4.07,8.99-4.56,12.09-.07,.44-.12,.93,.13,1.3,.15,.21,.37,.34,.61,.43Z"></path></g><g><path class="cls-3" d="M1101.71,235.19s31.79-2.65,28.06-21.65c-5.69-28.98-12.2-57.81-18.45-86.67-2.24-10.36-2.39-22.68-14.18-26.58-10.24-3.38-8.95-9.91-8.95-9.91l-20.43,3.61s2.25,3.81-3.92,11.2c-6.17,7.39-6.52,14.33-3.67,24.85,6.57,24.32,11.64,49,17.14,73.58,1.88,8.42,2.87,17.73,7.67,25.12,1.71,2.62,3.89,5.18,6.78,6.54,3.88,1.83,6.19,.1,9.96-.09Z"></path><path class="cls-3" d="M1065.97,96.65c.13,.01,.25,.01,.38,.01,7.82,.02,15.64-1.49,22.89-4.42,.42-.17,.87-.37,1.12-.76,.28-.45,.21-1.02,.12-1.54-.57-3.38-1.41-6.71-2.52-9.95-.26-.77-.63-1.63-1.4-1.9-.45-.16-.94-.07-1.41,.01-5.6,1.03-11.19,2.11-16.77,3.25-1,.2-2.02,.42-2.89,.95-3.31,2.02-1.19,9.8-.73,12.9,.07,.44,.16,.93,.51,1.2,.2,.15,.45,.21,.71,.23Z"></path></g><path class="cls-3" d="M1092.31,196.94s3.9,3.83,1.78,8.55c-2.12,4.72-13.45,18.7-22.65,25.54-9.2,6.84-21.26,14.67-26.07,13.3-4.82-1.38-5.54-1.62-11.92-9.7-6.38-8.08-27.83-38.99-27.83-38.99l8.37-56.89s3.88-7.83,6.47-7.95c0,0,1.73-11.13,14.14-13.47,12.41-2.34,22.66,.34,30.39,4.96,7.73,4.62,15.28,13.01,15.41,19.08,.13,6.07-6.11,27.52-6.11,27.52l17.46,19.63s2.93,4.32,.58,8.41Z"></path><g><path class="cls-3" d="M1166.01,222.98s31.12,6.98,33.25-12.25c3.25-29.35,5.67-58.81,8.34-88.22,.96-10.55,4.51-22.36-5.57-29.6-8.76-6.29-5.58-12.14-5.58-12.14l-20.58-2.67s1,4.31-7.1,9.51c-8.1,5.2-10.51,11.73-10.94,22.61-1.01,25.17-3.57,50.24-5.67,75.33-.72,8.59-2.57,17.78-.2,26.26,.84,3.02,2.16,6.11,4.51,8.27,3.15,2.91,5.87,1.95,9.53,2.89Z"></path><path class="cls-3" d="M1173.38,80.09c.12,.05,.24,.09,.35,.12,7.46,2.36,15.37,3.26,23.16,2.64,.46-.04,.95-.09,1.29-.39,.4-.34,.5-.91,.57-1.43,.47-3.39,.66-6.82,.57-10.25-.02-.81-.12-1.74-.77-2.23-.38-.28-.88-.35-1.35-.41-5.65-.69-11.31-1.33-16.97-1.92-1.01-.1-2.05-.21-3.05,.04-3.76,.93-4.07,8.99-4.56,12.09-.07,.44-.12,.93,.13,1.3,.15,.21,.37,.34,.61,.43Z"></path></g><g><path class="cls-3" d="M700.8,113.94c6.48,8.98,12.97,17.95,19.45,26.93,2.39,3.3,4.7,6.66,7.17,9.91,1.73,2.28,3.27,3.87,6.24,4.22,4.84,.57,9.9-1.89,14.04-4.12,6.01-3.24,12.32-7.62,10.93-15.26-.86-4.73-15.11-43.86-15.11-43.86"></path><path class="cls-3" d="M744.19,91.39c-.24-.47-.58-.88-.99-1.22-.52-.43-1.14-.76-1.84-.99-1.23-.41-2.71-.56-4.39-.5-2.52,.09-5.51,.67-8.77,1.67-3.25,1.01-6.77,2.45-10.34,4.31-3.32,1.73-6.33,3.62-8.91,5.56-2.58,1.94-4.72,3.91-6.31,5.81-1.26,1.51-2.18,2.97-2.66,4.36-.24,.7-.38,1.38-.37,2.04,0,.66,.14,1.31,.45,1.89,.24,.47,.58,.88,.99,1.22,.52,.43,1.14,.76,1.84,.99,1.23,.41,2.71,.56,4.39,.5,2.52-.09,5.51-.67,8.77-1.67,3.25-1.01,6.77-2.45,10.34-4.31,3.32-1.73,6.33-3.63,8.91-5.56,2.58-1.94,4.72-3.91,6.31-5.81,1.26-1.51,2.18-2.97,2.66-4.36,.24-.7,.38-1.38,.37-2.04,0-.66-.14-1.31-.45-1.89"></path></g><polygon class="cls-3" points="664.71 129.47 613.2 93.36 584.25 127.59 629 171.69 626.55 174.6 631.2 178.53 637.84 178.82 673.38 136.8 671.86 130.44 667.05 126.37 664.71 129.47"></polygon><path class="cls-3" d="M604.97,129.51c-5.39-10.12-10.95-20.58-12.73-33.15l-3.58-25.2c-.33-2.36-2.1-4.06-3.94-3.79l-14.77,2.1c-1.84,.26-3.06,2.38-2.73,4.74l3.58,25.2c1.78,12.56-.65,24.16-3,35.38-2.16,10.29-4.2,20.01-2.82,29.72l14.32,100.81c1.76,12.38,10.28,15.75,15.58,15l24.62-3.5c5.3-.75,12.55-6.36,10.79-18.74l-14.32-100.81c-1.39-9.72-6.05-18.48-10.99-27.76Z"></path><path class="cls-3" d="M675.86,146.8c9.81-5.93,19.96-12.05,32.41-14.52l24.97-4.94c2.34-.46,3.94-2.32,3.57-4.14l-2.9-14.63c-.36-1.83-2.55-2.93-4.88-2.47l-24.97,4.94c-12.45,2.46-24.16,.67-35.49-1.07-10.39-1.6-20.2-3.11-29.83-1.2l-99.88,19.78c-12.27,2.43-15.17,11.12-14.13,16.37l4.83,24.39c1.04,5.25,7.03,12.18,19.3,9.75l99.88-19.78c9.63-1.91,18.12-7.05,27.12-12.48Z"></path><path class="cls-3" d="M881.97,208.51c-5.39-10.12-10.95-20.58-12.73-33.15l-3.58-25.2c-.33-2.36-2.1-4.06-3.94-3.79l-14.77,2.1c-1.84,.26-3.06,2.38-2.73,4.74l3.58,25.2c1.78,12.56-.65,24.16-3,35.38-2.16,10.29-4.2,20.01-2.82,29.72l14.32,100.81c1.76,12.38,10.28,15.75,15.58,15l24.62-3.5c5.3-.75,12.55-6.36,10.79-18.74l-14.32-100.81c-1.39-9.72-6.05-18.48-10.99-27.76Z"></path><g><path class="cls-3" d="M1296.65,151.38s7.45,23.04,20.85,17.01c20.44-9.21,40.63-19,60.89-28.61,7.27-3.45,16.36-5.69,17.2-15.07,.73-8.15,5.78-8.33,5.78-8.33l-6.2-14.48s-2.43,2.32-8.96-.97c-6.53-3.29-11.72-2.34-19.01,1.58-16.84,9.06-34.22,17.07-51.44,25.38-5.9,2.85-12.61,5.18-17.24,10.01-1.65,1.72-3.16,3.77-3.67,6.14-.68,3.19,1,4.59,1.79,7.35Z"></path><path class="cls-3" d="M1392.9,101.03c.01,.09,.03,.19,.06,.28,1.34,5.78,3.8,11.3,7.22,16.16,.2,.28,.42,.58,.75,.7,.38,.13,.79-.02,1.16-.18,2.4-1,4.72-2.2,6.92-3.58,.52-.33,1.09-.75,1.16-1.36,.04-.36-.11-.71-.25-1.04-1.73-3.96-3.5-7.91-5.3-11.84-.32-.7-.66-1.42-1.2-1.98-2.06-2.1-7.45,.81-9.66,1.69-.31,.12-.66,.28-.8,.59-.08,.18-.08,.37-.05,.56Z"></path></g><path class="cls-3" d="M682.37,189.02c9.81-5.93,19.96-12.05,32.41-14.52l24.97-4.94c2.34-.46,3.94-2.32,3.57-4.14l-2.9-14.63c-.36-1.83-2.55-2.93-4.88-2.47l-24.97,4.94c-12.45,2.46-24.16,.67-35.49-1.07-10.39-1.6-20.2-3.11-29.83-1.2l-99.88,19.78c-12.27,2.43-15.17,11.12-14.13,16.37l4.83,24.39c1.04,5.25,7.03,12.18,19.3,9.75l99.88-19.78c9.63-1.91,18.12-7.05,27.12-12.48Z"></path></g><g class="cls-5"><g><path class="cls-3" d="M1934.24,276.92s23.5-5.87,18.39-19.64c-7.8-21.02-16.19-41.83-24.4-62.7-2.94-7.49-4.56-16.71-13.87-18.19-8.08-1.28-7.92-6.33-7.92-6.33l-14.87,5.2s2.15,2.58-1.57,8.87c-3.72,6.29-3.13,11.54,.28,19.07,7.89,17.42,14.7,35.3,21.82,53.04,2.44,6.08,4.31,12.94,8.81,17.88,1.6,1.76,3.55,3.41,5.88,4.08,3.13,.9,4.65-.68,7.45-1.29Z"></path><path class="cls-3" d="M1890.55,177.46c.1,0,.19-.02,.28-.04,5.86-.94,11.54-3.03,16.61-6.1,.3-.18,.61-.38,.74-.7,.15-.37,.03-.79-.1-1.17-.84-2.46-1.88-4.86-3.1-7.15-.29-.55-.67-1.14-1.28-1.25-.35-.06-.71,.06-1.05,.18-4.07,1.46-8.13,2.95-12.17,4.48-.72,.27-1.46,.56-2.05,1.07-2.23,1.92,.3,7.49,1.03,9.76,.1,.32,.23,.67,.53,.83,.17,.09,.36,.1,.56,.09Z"></path></g><g><path class="cls-3" d="M100.88,295.99s30.95-7.73,24.22-25.87c-10.27-27.69-21.33-55.1-32.14-82.58-3.88-9.86-6.01-22.01-18.26-23.95-10.65-1.69-10.43-8.34-10.43-8.34l-19.59,6.85s2.83,3.4-2.07,11.68c-4.9,8.28-4.13,15.2,.37,25.12,10.4,22.95,19.36,46.5,28.74,69.87,3.21,8,5.68,17.04,11.61,23.56,2.11,2.32,4.67,4.49,7.74,5.37,4.13,1.19,6.12-.9,9.82-1.69Z"></path><path class="cls-3" d="M43.34,164.99c.13,0,.25-.03,.37-.05,7.72-1.24,15.2-3.99,21.88-8.04,.39-.24,.8-.51,.98-.93,.2-.49,.04-1.04-.13-1.54-1.1-3.24-2.47-6.4-4.09-9.41-.38-.72-.89-1.51-1.69-1.65-.47-.08-.94,.08-1.39,.24-5.36,1.92-10.71,3.89-16.03,5.91-.95,.36-1.93,.74-2.7,1.4-2.94,2.52,.4,9.86,1.35,12.85,.14,.42,.31,.89,.7,1.1,.22,.12,.48,.14,.74,.12Z"></path></g><g><path class="cls-3" d="M123.46,216.45s22.29,9.11,26.29-4.94c6.11-21.44,2.69-10.18,8.38-31.73,2.04-7.74,6.17-16.08-.43-22.73-5.73-5.78-2.63-9.74-2.63-9.74l-14.98-4.57s.21,3.33-6.48,6.19c-6.68,2.85-9.3,7.41-10.99,15.46-3.91,18.61-.05,4.06-4.77,22.48-1.62,6.31-4.15,12.91-3.45,19.52,.25,2.35,.84,4.82,2.32,6.72,1.98,2.56,4.13,2.19,6.73,3.35Z"></path><path class="cls-3" d="M137.98,143.9c.08,.05,.17,.09,.25,.14,5.25,2.69,11.03,4.36,16.91,4.87,.34,.03,.72,.05,1.01-.13,.34-.21,.49-.61,.61-.99,.78-2.47,1.35-5,1.71-7.56,.09-.61,.13-1.31-.29-1.76-.25-.26-.61-.37-.95-.47-4.12-1.23-8.25-2.41-12.4-3.56-.74-.21-1.5-.41-2.27-.35-2.92,.22-4.16,6.18-4.91,8.43-.11,.32-.21,.68-.06,.98,.08,.17,.23,.3,.4,.4Z"></path></g><path class="cls-3" d="M1582.91,187.27s5.62-2.33,7.92-5.55c2.3-3.22,9.01-20.98,2.54-25.11-6.48-4.13-17.43,13.81-17.43,13.81,0,0-2.38,5.75-.24,12.58,2.15,6.83-4.81,17.43-13.59,35.14-8.78,17.71-1.86,16.89-1.86,16.89,0,0,4.58,1.74,8.88-12.53,4.3-14.27,7.64-31.54,13.78-35.22Z"></path><g><path class="cls-3" d="M1027.53,129.08c-1.18,11.01-2.37,22.02-3.55,33.03-.44,4.05-.96,8.1-1.3,12.16-.24,2.86-.16,5.06,1.82,7.31,3.22,3.66,8.63,5.22,13.2,6.33,6.64,1.61,14.26,2.58,18.33-4.03,2.52-4.1,18.1-42.72,18.1-42.72"></path><path class="cls-3" d="M1074.88,141.34c.13-.51,.16-1.05,.08-1.57-.1-.67-.34-1.32-.71-1.97-.64-1.13-1.64-2.23-2.93-3.31-1.94-1.62-4.54-3.19-7.64-4.62-3.09-1.43-6.68-2.71-10.56-3.71-3.62-.94-7.13-1.54-10.34-1.82-3.21-.28-6.13-.25-8.58,.1-1.95,.28-3.6,.75-4.9,1.46-.65,.36-1.2,.77-1.64,1.27-.44,.49-.77,1.07-.93,1.7-.13,.51-.16,1.05-.08,1.57,.1,.67,.34,1.32,.71,1.97,.64,1.13,1.64,2.23,2.93,3.31,1.94,1.62,4.54,3.19,7.64,4.62,3.09,1.43,6.68,2.71,10.56,3.71,3.62,.94,7.13,1.54,10.35,1.82,3.21,.28,6.13,.25,8.58-.1,1.95-.28,3.6-.75,4.9-1.46,.65-.36,1.2-.77,1.64-1.27,.44-.49,.77-1.07,.93-1.7"></path></g><path class="cls-3" d="M1938.36,129.86s-1.69-3.43,1.07-9.91c2.77-6.48,13.04-21.93,13.04-21.93,0,0,3.45-1.49-4.43,13.62,0,0-.81,7.43,8.34-10.3,0,0,5.79-6.69-4.89,14.7,0,0-.49,6.78,8.92-12.01,0,0,5.49-4.42-2.8,13.6-8.29,18.02-13.91,14.12-14.8,15.05-.89,.94-25.52,50.89-29.03,51.99s-9.36-2.98,11.4-35.32l13.17-19.51Z"></path><path class="cls-3" d="M1957.68,177.45c2.08-8.64,4.23-17.58,10.14-25.02l11.84-14.92c1.11-1.4,.87-3.42-.52-4.53l-11.19-8.88c-1.4-1.11-3.42-.87-4.53,.52l-11.84,14.92c-5.9,7.44-14.12,11.57-22.06,15.56-7.29,3.66-14.17,7.12-18.73,12.87l-47.36,59.69c-5.82,7.33-1.95,14.73,2.07,17.92l18.65,14.8c4.02,3.19,12.1,5.27,17.92-2.06l47.36-59.69c4.56-5.76,6.36-13.25,8.27-21.17Z"></path><path class="cls-3" d="M1813.65,280.69c-12.19-7.77-24.79-15.8-33.11-28.82l-16.69-26.1c-1.56-2.44-4.8-3.16-7.25-1.59l-19.57,12.51c-2.44,1.56-3.16,4.8-1.59,7.25l16.69,26.1c8.32,13.01,10.32,27.82,12.26,42.15,1.78,13.14,3.45,25.55,9.88,35.61l66.75,104.39c8.2,12.82,21.62,10.79,28.64,6.3l32.62-20.86c7.02-4.49,14.5-15.82,6.3-28.64l-66.75-104.39c-6.44-10.06-17-16.79-28.19-23.91Z"></path><path class="cls-3" d="M196.41,176.61c4.63-6.77,3.12-15.58,2.93-25.88-.23-12.33,3.81-15.17,9.26-17.3,5.46-2.13,22.52,3.58,26.08,6.43,0,0,9.48,9.97,12.54,25.86,3.07,15.89-1.45,28.22-1.45,28.22l-4.33,10.08c3.36,7.71,6.99,15.91,8.33,19.57,2.6,7.12,3.76,34.62,4.22,51.22,.46,16.6,9.46,22.06,7.55,39.61-1.91,17.55-18.75,17.53-18.75,17.53,0,0-40.32,7.31-54.79,9.67-14.47,2.36-23.48,1.16-32.96-.74-9.48-1.91-32.25,.68-38.42,1.69-6.17,1.01-16.36,2.29-23.23-11.71-6.86-14-2.35-21.11-.68-28.22,1.67-7.11-.93-22.53-3.52-37.23-2.59-14.7-2.81-38.66-1.26-48.17,1.55-9.51,4.29-24.27,.9-48.23-3.4-23.96,4.4-30.59,7.95-32.48s20.04,2.05,20.04,2.05c5.93,1.21,13.97,18.25,13.97,18.25,0,0,5.92,11.15,9.47,16.13,3.55,4.98,15.65,3.33,19.44,2.86,3.79-.47,36.28,.98,36.28,.98"></path><g><path class="cls-3" d="M1480.67,302.46s22.83,8.07,26.17-6.24c5.09-21.83,9.57-43.82,14.24-65.75,1.68-7.87,5.42-16.45-1.53-22.82-6.03-5.53-3.11-9.65-3.11-9.65l-15.27-3.87s.37,3.34-6.21,6.53c-6.57,3.19-8.98,7.89-10.29,16.06-3.03,18.88-7.22,37.55-11.07,56.28-1.32,6.41-3.54,13.17-2.52,19.78,.36,2.35,1.08,4.8,2.65,6.64,2.12,2.48,4.25,2,6.93,3.04Z"></path><path class="cls-3" d="M1499.11,195.41c.08,.05,.17,.09,.26,.13,5.41,2.45,11.29,3.84,17.22,4.08,.35,.01,.72,.02,1.01-.18,.33-.22,.46-.64,.56-1.03,.66-2.52,1.11-5.08,1.36-7.67,.06-.62,.07-1.32-.38-1.75-.26-.25-.63-.34-.98-.43-4.2-1.03-8.41-2.02-12.62-2.97-.76-.17-1.53-.34-2.3-.24-2.92,.37-3.88,6.41-4.53,8.7-.09,.33-.18,.69-.02,.99,.09,.17,.25,.29,.42,.38Z"></path></g><path class="cls-3" d="M1555.1,232.44c6.5-6.06,13.23-12.33,22.26-15.27l18.11-5.91c1.69-.55,2.62-2.37,2.07-4.07l-4.43-13.58c-.55-1.69-2.37-2.62-4.07-2.07l-18.11,5.91c-9.03,2.95-18.15,1.86-26.98,.81-8.1-.97-15.74-1.88-22.73,.4l-72.43,23.65c-8.9,2.91-9.75,11.21-8.16,16.08l7.39,22.64c1.59,4.87,7.19,11.07,16.08,8.16l72.43-23.65c6.98-2.28,12.61-7.54,18.58-13.1Z"></path><g><path class="cls-3" d="M1212.62,105.56s-24.21-.47-22.88,14.16c2.04,22.33,4.71,44.61,7.18,66.89,.89,8,.04,17.32,8.64,21.17,7.47,3.35,5.99,8.18,5.99,8.18l15.71-1.14s-1.4-3.05,3.83-8.15c5.24-5.1,6.04-10.32,4.71-18.48-3.07-18.88-4.97-37.92-7.21-56.9-.77-6.5-.78-13.61-3.84-19.57-1.09-2.12-2.53-4.21-4.61-5.47-2.79-1.69-4.66-.56-7.53-.71Z"></path><path class="cls-3" d="M1228.83,212.97c-.09-.02-.19-.03-.28-.04-5.9-.62-11.93-.09-17.63,1.55-.33,.1-.69,.21-.9,.49-.24,.32-.24,.75-.21,1.15,.16,2.6,.54,5.18,1.13,7.71,.14,.6,.35,1.28,.91,1.54,.33,.15,.7,.13,1.06,.1,4.31-.34,8.62-.73,12.92-1.15,.77-.08,1.56-.16,2.26-.49,2.66-1.27,1.66-7.3,1.56-9.69-.02-.34-.05-.71-.3-.94-.14-.13-.32-.2-.52-.23Z"></path></g><path class="cls-3" d="M1164.03,195.45c-4.26,7.8-8.68,15.86-16.32,21.51l-15.33,11.31c-1.43,1.06-1.74,3.08-.68,4.51l8.48,11.49c1.06,1.43,3.08,1.74,4.51,.68l15.33-11.31c7.64-5.64,16.65-7.48,25.36-9.26,7.99-1.63,15.54-3.17,21.44-7.53l61.3-45.26c7.53-5.56,5.73-13.71,2.68-17.83l-14.14-19.16c-3.04-4.12-10.3-8.24-17.83-2.69l-61.3,45.26c-5.91,4.37-9.6,11.13-13.51,18.28Z"></path><path class="cls-3" d="M-56.61,207.12c-5.66-5.93-14.6-6.27-24.72-8.22-12.11-2.33-14.06-6.86-15.01-12.64-.96-5.78,8.16-21.3,11.68-24.19,0,0,11.71-7.21,27.89-6.93,16.18,.28,27.31,7.25,27.31,7.25l8.97,6.32c8.23-1.69,17.02-3.55,20.87-4.11,7.5-1.07,34.65,3.48,50.99,6.46s23.54-4.7,40.31,.8c16.77,5.5,13.28,21.97,13.28,21.97,0,0-1.18,40.96-1.86,55.6s-3.71,23.21-7.54,32.1c-3.83,8.88-6,31.69-6.29,37.94-.29,6.24-1.14,16.48-16.25,20.31-15.11,3.82-21.14-2.06-27.75-5.16-6.61-3.1-22.23-3.75-37.16-4.25-14.92-.5-38.4-5.24-47.39-8.73-8.99-3.49-22.86-9.22-47-10.84-24.14-1.63-29.02-10.62-30.13-14.5-1.12-3.87,6.15-19.19,6.15-19.19,2.41-5.55,20.75-9.9,20.75-9.9,0,0,12.13-3.49,17.74-5.93,5.61-2.45,6.5-14.62,6.82-18.43,.32-3.81,8.46-35.29,8.46-35.29"></path><path class="cls-3" d="M1452.08,212.66s-3.05,2.3-9.93,.8c-6.88-1.51-23.98-8.71-23.98-8.71,0,0-2.11-3.11,14.21,1.8,0,0,7.45-.6-11.68-6.27,0,0-7.66-4.43,15.36,2.05,0,0,6.75-.79-13.46-6.52,0,0-5.37-4.57,13.89,.21,19.25,4.78,16.47,11.03,17.55,11.73,1.09,.7,54.77,15.56,56.5,18.8s-1.18,9.75-36.83-4.59l-21.62-9.29Z"></path><path class="cls-3" d="M709.86,198.31s-1.06-3.37,1.58-5.41,13.34-6.58,20.66-7.68c7.32-1.1,16.57-1.91,18.89,.33,2.33,2.25,2.67,2.61,3.85,9.15,1.18,6.54,4.03,30.66,4.03,30.66l-22.03,29.88s-4.59,3.28-6.1,2.57c0,0-4.36,5.82-12.14,3.38-7.78-2.43-12.81-7.07-15.81-12.05-3-4.98-4.76-12.05-2.99-15.55,1.77-3.5,11.83-13.83,11.83-13.83l-3.99-16.49s-.36-3.35,2.22-4.97Z"></path><path class="cls-3" d="M1108.17,178.85c.79-10.04,1.62-20.42,6.9-29.8l10.6-18.8c.99-1.76,.37-3.99-1.39-4.98l-14.1-7.95c-1.76-.99-3.99-.37-4.98,1.39l-10.6,18.8c-5.29,9.37-13.74,15.45-21.92,21.32-7.5,5.39-14.59,10.48-18.68,17.72l-42.41,75.2c-5.21,9.24,.43,16.83,5.49,19.68l23.5,13.25c5.06,2.85,14.47,3.75,19.68-5.49l42.41-75.2c4.08-7.25,4.77-15.95,5.5-25.16Z"></path><path class="cls-3" d="M1053.51,299.14c5.08,6.43,13.95,7.61,23.84,10.49,11.84,3.45,13.35,8.15,13.76,13.99,.41,5.84-10.11,20.44-13.89,22.99,0,0-12.34,6.08-28.42,4.29-16.08-1.8-26.51-9.78-26.51-9.78l-8.34-7.13c-8.35,.91-17.27,1.95-21.16,2.14-7.57,.37-34.18-6.71-50.16-11.2-15.99-4.5-23.88,2.48-40.06-4.57-16.18-7.04-11.16-23.11-11.16-23.11,0,0,5.01-40.67,7.06-55.18,2.05-14.51,5.87-22.76,10.51-31.25,4.64-8.49,8.94-30.99,9.81-37.18,.87-6.19,2.68-16.31,18.08-18.7,15.41-2.39,20.85,4.03,27.15,7.74,6.29,3.71,21.78,5.81,36.6,7.71,14.81,1.9,37.74,8.81,46.36,13.12,8.62,4.31,21.9,11.32,45.78,15.2,23.88,3.88,27.9,13.29,28.64,17.25,.75,3.96-7.92,18.53-7.92,18.53-2.92,5.3-21.58,7.91-21.58,7.91,0,0-12.41,2.33-18.22,4.24-5.81,1.91-7.84,13.95-8.52,17.71-.68,3.76-11.73,34.35-11.73,34.35"></path><path class="cls-3" d="M1121.65,163.55s5.34,2.91,9.29,2.68c3.95-.23,21.99-6.16,21.14-13.79-.85-7.63-21.69-4.9-21.69-4.9,0,0-5.97,1.76-9.94,7.72-3.97,5.96-16.59,7.2-35.88,11.48-19.3,4.29-14.31,9.16-14.31,9.16,0,0,1.52,4.65,15.33-.95,13.81-5.61,29.34-13.86,36.07-11.38Z"></path><path class="cls-3" d="M1165.78,171.64s3.46-2.6,6.9-.38c3.44,2.22,13.04,12.73,17.3,20.74,4.26,8.01,8.97,18.36,7.32,21.97-1.64,3.61-1.92,4.14-9,8.18-7.08,4.03-33.79,17.17-33.79,17.17l-43.51-13.26s-5.66-3.96-5.45-6c0,0-8.5-2.67-8.87-12.65-.37-9.98,2.94-17.68,7.47-23.18,4.53-5.5,11.98-10.42,16.75-9.8,4.76,.62,20.8,8.03,20.8,8.03l17.42-11.33s3.73-1.78,6.65,.54Z"></path><g><path class="cls-3" d="M1865.85,267.78s30.95-7.73,24.22-25.87c-10.27-27.69-21.33-55.1-32.14-82.58-3.88-9.86-6.01-22.01-18.26-23.95-10.65-1.69-10.43-8.34-10.43-8.34l-19.59,6.85s2.83,3.4-2.07,11.68c-4.9,8.28-4.13,15.2,.37,25.12,10.4,22.95,19.36,46.5,28.74,69.87,3.21,8,5.68,17.04,11.61,23.56,2.11,2.32,4.67,4.49,7.74,5.37,4.13,1.19,6.12-.9,9.82-1.69Z"></path><path class="cls-3" d="M1808.3,136.78c.13,0,.25-.03,.37-.05,7.72-1.24,15.2-3.99,21.88-8.04,.39-.24,.8-.51,.98-.93,.2-.49,.04-1.04-.13-1.54-1.1-3.24-2.47-6.4-4.09-9.41-.38-.72-.89-1.51-1.69-1.65-.47-.08-.94,.08-1.39,.24-5.36,1.92-10.71,3.89-16.03,5.91-.95,.36-1.93,.74-2.7,1.4-2.94,2.52,.4,9.86,1.35,12.85,.14,.42,.31,.89,.7,1.1,.22,.12,.48,.14,.74,.12Z"></path></g><g><path class="cls-3" d="M1845.77,275.32s27.21-16.64,15.36-31.94c-18.09-23.34-36.85-46.18-55.39-69.17-6.65-8.25-12.32-19.2-24.6-17.39-10.67,1.57-12.45-4.84-12.45-4.84l-16.64,12.4s3.72,2.4,1.52,11.77c-2.2,9.37,.61,15.73,7.87,23.86,16.79,18.78,32.39,38.57,48.34,58.06,5.46,6.67,10.52,14.56,18.13,19,2.7,1.58,5.8,2.88,8.99,2.8,4.29-.1,5.57-2.69,8.86-4.55Z"></path><path class="cls-3" d="M1751.65,167.55c.12-.05,.23-.1,.34-.16,6.99-3.49,13.31-8.35,18.47-14.22,.3-.34,.62-.72,.66-1.18,.05-.52-.27-1-.58-1.43-2.02-2.76-4.27-5.36-6.72-7.76-.58-.57-1.3-1.17-2.1-1.07-.47,.06-.87,.36-1.25,.64-4.54,3.43-9.05,6.91-13.53,10.43-.8,.63-1.62,1.28-2.16,2.15-2.05,3.29,3.33,9.29,5.14,11.86,.26,.36,.56,.76,1,.84,.25,.05,.5-.01,.74-.11Z"></path></g><path class="cls-3" d="M1602.28,216.38c2.74-7.73-.98-15.86-3.81-25.77-3.38-11.86-.21-15.64,4.52-19.1,4.73-3.46,22.69-2.32,26.85-.47,0,0,11.72,7.21,18.75,21.78,7.04,14.57,5.83,27.65,5.83,27.65l-1.6,10.85c5.22,6.59,10.84,13.59,13.07,16.78,4.34,6.21,12.51,32.5,17.21,48.43,4.7,15.93,14.81,18.9,17.45,36.35,2.65,17.45-13.63,21.75-13.63,21.75,0,0-37.1,17.41-50.48,23.4-13.38,5.99-22.39,7.14-32.05,7.73-9.66,.59-31,8.93-36.7,11.48-5.7,2.55-15.23,6.41-25.45-5.36-10.22-11.77-7.68-19.8-7.9-27.1-.21-7.3-6.67-21.54-12.95-35.09-6.28-13.55-12.63-36.64-13.57-46.23-.94-9.59-2.08-24.56-11.5-46.85-9.43-22.28-3.6-30.69-.64-33.43,2.95-2.74,19.9-3.15,19.9-3.15,6.04-.35,18.19,14.06,18.19,14.06,0,0,8.58,9.26,13.29,13.17,4.71,3.91,15.98-.79,19.53-2.22,3.55-1.43,35.32-8.35,35.32-8.35"></path><path class="cls-3" d="M1680.17,166.96c-5.82-9.88-11.83-20.09-14.16-32.56l-4.67-25.02c-.44-2.34-2.27-3.96-4.1-3.62l-14.66,2.74c-1.83,.34-2.96,2.51-2.52,4.86l4.67,25.02c2.33,12.48,.4,24.17-1.46,35.48-1.71,10.37-3.33,20.17-1.53,29.82l18.69,100.09c2.3,12.29,10.96,15.29,16.22,14.31l24.44-4.56c5.26-.98,12.26-6.9,9.96-19.19l-18.69-100.09c-1.81-9.65-6.85-18.2-12.19-27.26Z"></path><path class="cls-3" d="M1772.69,188.64s5.2,1.67,5.43,6.84c.22,5.17-3.63,22.75-8.78,32.99-5.15,10.24-12.41,22.65-17.33,23.59-4.92,.93-5.68,1.04-15.01-3.32-9.33-4.36-42.37-22.35-42.37-22.35l-18.06-54.59s-.04-8.73,2.21-10c0,0-3.45-10.72,6.59-18.38,10.04-7.66,20.4-9.87,29.38-9.2,8.98,.66,19.49,4.77,22.33,10.14,2.84,5.37,6.89,27.33,6.89,27.33l24.41,9.71s4.55,2.55,4.3,7.25Z"></path><path class="cls-3" d="M1708.71,180.2c-4.42-10.58-8.98-21.51-9.59-34.19l-1.21-25.43c-.11-2.38-1.71-4.23-3.57-4.15l-14.9,.71c-1.86,.09-3.27,2.09-3.16,4.47l1.21,25.43c.6,12.68-2.9,23.99-6.29,34.95-3.11,10.04-6.05,19.53-5.58,29.33l4.85,101.7c.6,12.49,8.77,16.64,14.11,16.39l24.83-1.18c5.35-.25,13.08-5.16,12.49-17.65l-4.85-101.7c-.47-9.8-4.3-18.96-8.35-28.66Z"></path><g><path class="cls-3" d="M1395.93,312.32s23.63,5.3,25.25-9.3c2.47-22.28,4.3-44.65,6.33-66.98,.73-8.01,3.42-16.98-4.23-22.47-6.65-4.78-4.23-9.21-4.23-9.21l-15.62-2.03s.76,3.27-5.39,7.22c-6.15,3.95-7.98,8.9-8.31,17.17-.76,19.11-2.71,38.14-4.31,57.2-.55,6.52-1.95,13.5-.15,19.94,.64,2.29,1.64,4.64,3.42,6.28,2.4,2.21,4.46,1.48,7.24,2.2Z"></path><path class="cls-3" d="M1401.52,203.84c.09,.04,.18,.07,.27,.09,5.66,1.79,11.67,2.47,17.59,2,.35-.03,.72-.07,.98-.3,.3-.26,.38-.69,.44-1.09,.36-2.58,.5-5.18,.43-7.78-.02-.62-.09-1.32-.58-1.69-.29-.21-.66-.27-1.02-.31-4.29-.53-8.59-1.01-12.89-1.45-.77-.08-1.56-.16-2.31,.03-2.86,.71-3.09,6.82-3.46,9.18-.05,.33-.09,.71,.1,.98,.11,.16,.28,.26,.46,.33Z"></path></g><g><path class="cls-3" d="M1508.62,367.88s31.12,6.98,33.25-12.25c3.25-29.35,5.67-58.81,8.34-88.22,.96-10.55,4.51-22.36-5.57-29.6-8.76-6.29-5.58-12.14-5.58-12.14l-20.58-2.67s1,4.31-7.1,9.51c-8.1,5.2-10.51,11.73-10.94,22.61-1.01,25.17-3.57,50.24-5.67,75.33-.72,8.59-2.57,17.78-.2,26.26,.84,3.02,2.16,6.11,4.51,8.27,3.15,2.91,5.87,1.95,9.53,2.89Z"></path><path class="cls-3" d="M1515.99,224.99c.12,.05,.24,.09,.35,.12,7.46,2.36,15.37,3.26,23.16,2.64,.46-.04,.95-.09,1.29-.39,.4-.34,.5-.91,.57-1.43,.47-3.39,.66-6.82,.57-10.25-.02-.81-.12-1.74-.77-2.23-.38-.28-.88-.35-1.35-.41-5.65-.69-11.31-1.33-16.97-1.92-1.01-.1-2.05-.21-3.05,.04-3.76,.93-4.07,8.99-4.56,12.09-.07,.44-.12,.93,.13,1.3,.15,.21,.37,.34,.61,.43Z"></path></g><path class="cls-3" d="M1461.51,233.95c5.74-6.79,11.67-13.81,20.29-17.81l17.28-8.02c1.62-.75,2.32-2.67,1.57-4.29l-6.02-12.96c-.75-1.62-2.67-2.32-4.29-1.57l-17.28,8.02c-8.61,4-17.8,4-26.7,4-8.15,0-15.86,0-22.52,3.09l-69.11,32.09c-8.49,3.94-8.35,12.29-6.2,16.94l10.03,21.6c2.16,4.65,8.45,10.14,16.94,6.2l69.11-32.09c6.66-3.1,11.63-8.98,16.89-15.21Z"></path><path class="cls-3" d="M1286.48,261.57c-7.41-12.41-15.06-25.25-16.66-40.61l-3.2-30.81c-.3-2.88-2.88-4.98-5.76-4.68l-23.1,2.4c-2.88,.3-4.98,2.88-4.68,5.76l3.2,30.81c1.6,15.36-3.26,29.49-7.96,43.17-4.31,12.54-8.38,24.38-7.15,36.26l12.8,123.25c1.57,15.14,14.48,19.34,22.77,18.48l38.51-4c8.29-.86,20.06-7.63,18.48-22.77l-12.8-123.25c-1.24-11.88-7.66-22.63-14.46-34.02Z"></path><path class="cls-3" d="M1407.77,217.78c-2.4-7.84-10.23-12.16-18.4-18.44-9.78-7.52-9.48-12.44-7.74-18.03,1.74-5.59,16.85-15.37,21.29-16.37,0,0,13.7-1.19,28.04,6.33,14.33,7.52,21.15,18.74,21.15,18.74l5.18,9.67c8.12,2.18,16.8,4.46,20.49,5.69,7.18,2.41,29.41,18.66,42.67,28.66,13.26,10,23.15,6.37,35.67,18.81,12.52,12.44,2,25.59,2,25.59,0,0-19.44,36.07-26.62,48.85-7.18,12.78-13.74,19.07-21.14,25.3-7.41,6.22-19.59,25.63-22.65,31.08-3.06,5.45-8.42,14.22-23.64,10.85-15.22-3.37-17.96-11.33-22.48-17.07-4.52-5.74-18.19-13.33-31.3-20.47-13.11-7.15-31.96-21.92-38.43-29.07-6.47-7.15-16.29-18.5-37.14-30.79-20.84-12.29-21.16-22.51-20.42-26.48s14.11-14.38,14.11-14.38c4.65-3.88,22.98,.47,22.98,.47,0,0,12.41,2.33,18.52,2.66,6.11,.33,12.37-10.15,14.37-13.41,2-3.26,23.4-27.74,23.4-27.74"></path><g><path class="cls-3" d="M1338.91,273.46s31.12,6.98,33.25-12.25c3.25-29.35,5.67-58.81,8.34-88.22,.96-10.55,4.51-22.36-5.57-29.6-8.76-6.29-5.58-12.14-5.58-12.14l-20.58-2.67s1,4.31-7.1,9.51c-8.1,5.2-10.51,11.73-10.94,22.61-1.01,25.17-3.57,50.24-5.67,75.33-.72,8.59-2.57,17.78-.2,26.26,.84,3.02,2.16,6.11,4.51,8.27,3.15,2.91,5.87,1.95,9.53,2.89Z"></path><path class="cls-3" d="M1346.28,130.57c.12,.05,.24,.09,.35,.12,7.46,2.36,15.37,3.26,23.16,2.64,.46-.04,.95-.09,1.29-.39,.4-.34,.5-.91,.57-1.43,.47-3.39,.66-6.82,.57-10.25-.02-.81-.12-1.74-.77-2.23-.38-.28-.88-.35-1.35-.41-5.65-.69-11.31-1.33-16.97-1.92-1.01-.1-2.05-.21-3.05,.04-3.76,.93-4.07,8.99-4.56,12.09-.07,.44-.12,.93,.13,1.3,.15,.21,.37,.34,.61,.43Z"></path></g><g><path class="cls-3" d="M1317.59,271.19s31.79-2.65,28.06-21.65c-5.69-28.98-12.2-57.81-18.45-86.67-2.24-10.36-2.39-22.68-14.18-26.58-10.24-3.38-8.95-9.91-8.95-9.91l-20.43,3.61s2.25,3.81-3.92,11.2c-6.17,7.39-6.52,14.33-3.67,24.85,6.57,24.32,11.64,49,17.14,73.58,1.88,8.42,2.87,17.73,7.67,25.12,1.71,2.62,3.89,5.18,6.78,6.54,3.88,1.83,6.19,.1,9.96-.09Z"></path><path class="cls-3" d="M1281.84,132.64c.13,.01,.25,.01,.38,.01,7.82,.02,15.64-1.49,22.89-4.42,.42-.17,.87-.37,1.12-.76,.28-.45,.21-1.02,.12-1.54-.57-3.38-1.41-6.71-2.52-9.95-.26-.77-.63-1.63-1.4-1.9-.45-.16-.94-.07-1.41,.01-5.6,1.03-11.19,2.11-16.77,3.25-1,.2-2.02,.42-2.89,.95-3.31,2.02-1.19,9.8-.73,12.9,.07,.44,.16,.93,.51,1.2,.2,.15,.45,.21,.71,.23Z"></path></g><path class="cls-3" d="M1235.18,195.94s3.9,3.83,1.78,8.55c-2.12,4.72-13.45,18.7-22.65,25.54-9.2,6.84-21.26,14.67-26.07,13.3-4.82-1.38-5.54-1.62-11.92-9.7-6.38-8.08-27.83-38.99-27.83-38.99l8.37-56.89s3.88-7.83,6.47-7.95c0,0,1.73-11.13,14.14-13.47,12.41-2.34,22.66,.34,30.39,4.96,7.73,4.62,15.28,13.01,15.41,19.08,.13,6.07-6.11,27.52-6.11,27.52l17.46,19.63s2.93,4.32,.58,8.41Z"></path><path class="cls-3" d="M704.84,172.04c-5.39-10.12-10.95-20.58-12.73-33.15l-3.58-25.2c-.33-2.36-2.1-4.06-3.94-3.79l-14.77,2.1c-1.84,.26-3.06,2.38-2.73,4.74l3.58,25.2c1.78,12.56-.65,24.16-3,35.38-2.16,10.29-4.2,20.01-2.82,29.72l14.32,100.81c1.76,12.38,10.28,15.75,15.58,15l24.62-3.5c5.3-.75,12.55-6.36,10.79-18.74l-14.32-100.81c-1.39-9.72-6.05-18.48-10.99-27.76Z"></path><path class="cls-3" d="M1459.19,187s-3.82-.17-8.17-5.71c-4.35-5.54-12.95-21.98-12.95-21.98,0,0,.35-3.75,9.81,10.44,0,0,6.13,4.28-5.01-12.27,0,0-3.08-8.29,10.54,11.36,0,0,5.71,3.69-6.23-13.6,0,0-1.23-6.94,10.58,9,11.8,15.94,5.68,18.99,6.07,20.22,.39,1.23,32.33,46.86,31.6,50.46s-7.12,6.77-25.48-26.99l-10.76-20.93Z"></path><g><path class="cls-3" d="M487.84,264.34s19.44,14.21,26.71,1.54c11.09-19.34,5.06-9.23,15.78-28.78,3.84-7.02,9.86-14.12,5.06-22.17-4.17-6.99-.2-10.08-.2-10.08l-13.44-8.05s-.6,3.28-7.78,4.44c-7.17,1.16-10.81,4.95-14.39,12.35-8.28,17.12-1.03,3.93-10.05,20.67-3.09,5.73-7.14,11.53-8.05,18.12-.32,2.34-.34,4.88,.63,7.08,1.31,2.97,3.48,3.12,5.73,4.88Z"></path><path class="cls-3" d="M519.41,197.42c.07,.07,.14,.13,.21,.19,4.45,3.88,9.66,6.89,15.24,8.8,.33,.11,.68,.22,1.01,.12,.38-.12,.62-.48,.83-.82,1.35-2.21,2.51-4.52,3.48-6.92,.23-.57,.45-1.24,.14-1.77-.18-.31-.5-.51-.81-.69-3.7-2.18-7.43-4.33-11.17-6.44-.67-.38-1.36-.76-2.12-.89-2.89-.49-5.53,5-6.8,6.99-.18,.28-.37,.61-.3,.94,.04,.19,.15,.34,.29,.48Z"></path></g><g><path class="cls-3" d="M546.55,177.85c6.48,8.98,12.97,17.95,19.45,26.93,2.39,3.3,4.7,6.66,7.17,9.91,1.73,2.28,3.27,3.87,6.24,4.22,4.84,.57,9.9-1.89,14.04-4.12,6.01-3.24,12.32-7.62,10.93-15.26-.86-4.73-15.11-43.86-15.11-43.86"></path><path class="cls-3" d="M589.94,155.3c-.24-.47-.58-.88-.99-1.22-.52-.43-1.14-.76-1.84-.99-1.23-.41-2.71-.56-4.39-.5-2.52,.09-5.51,.67-8.77,1.67-3.25,1.01-6.77,2.45-10.34,4.31-3.32,1.73-6.33,3.62-8.91,5.56-2.58,1.94-4.72,3.91-6.31,5.81-1.26,1.51-2.18,2.97-2.66,4.36-.24,.7-.38,1.38-.37,2.04,0,.66,.14,1.31,.45,1.89,.24,.47,.58,.88,.99,1.22,.52,.43,1.14,.76,1.84,.99,1.23,.41,2.71,.56,4.39,.5,2.52-.09,5.51-.67,8.77-1.67,3.25-1.01,6.77-2.45,10.34-4.31,3.32-1.73,6.33-3.63,8.91-5.56,2.58-1.94,4.72-3.91,6.31-5.81,1.26-1.51,2.18-2.97,2.66-4.36,.24-.7,.38-1.38,.37-2.04,0-.66-.14-1.31-.45-1.89"></path></g><path class="cls-3" d="M527.01,271.46c8.16-.78,13.96-7.6,21.74-14.35,9.32-8.08,14.09-6.81,19.22-3.98,5.13,2.82,11.7,19.58,11.79,24.13,0,0-1.57,13.66-11.8,26.21-10.23,12.54-22.58,16.98-22.58,16.98l-10.51,3.14c-3.76,7.52-7.73,15.57-9.67,18.94-3.79,6.56-24.16,25.09-36.6,36.08-12.44,10.99-10.86,21.41-25.55,31.19-14.69,9.78-25.47-3.15-25.47-3.15,0,0-31.46-26.25-42.55-35.84-11.08-9.59-15.95-17.27-20.56-25.77-4.62-8.5-21.2-24.31-25.93-28.4-4.73-4.09-12.25-11.09-5.91-25.33,6.34-14.24,14.69-15.34,21.22-18.62,6.53-3.28,16.69-15.16,26.32-26.57,9.62-11.42,27.86-26.94,36.16-31.85,8.3-4.91,21.38-12.27,37.59-30.24,16.21-17.97,26.29-16.24,30.02-14.72,3.73,1.52,11.27,16.7,11.27,16.7,2.87,5.33-5.05,22.43-5.05,22.43,0,0-4.76,11.69-6.31,17.61-1.55,5.92,7.47,14.15,10.27,16.76,2.79,2.61,22.51,28.47,22.51,28.47"></path><path class="cls-3" d="M555.35,198.85s1.9-2.97,5.17-2.26c3.26,.71,13.6,6.02,19.14,10.93,5.54,4.91,12.09,11.49,11.86,14.71-.23,3.23-.29,3.72-4.55,8.82-4.26,5.1-20.95,22.75-20.95,22.75l-37.05,2.25s-5.46-1.42-5.88-3.03c0,0-7.26,.38-10.38-7.15-3.12-7.53-2.79-14.36-.89-19.86,1.9-5.5,6.2-11.38,10.01-12.26,3.82-.89,18.2,.21,18.2,.21l10.09-13.63s2.34-2.42,5.24-1.48Z"></path><path class="cls-3" d="M643.78,208.92c-6.13-8-12.46-16.26-14.8-26.77l-4.69-21.07c-.44-1.97-2.39-3.21-4.36-2.77l-15.8,3.52c-1.97,.44-3.21,2.39-2.77,4.36l4.69,21.07c2.34,10.5,.11,20.67-2.04,30.52-1.97,9.02-3.84,17.55-2.03,25.67l18.77,84.27c2.31,10.35,11.58,12.22,17.25,10.96l26.33-5.87c5.67-1.26,13.27-6.89,10.96-17.24l-18.77-84.27c-1.82-8.12-7.12-15.05-12.74-22.38Z"></path><path class="cls-3" d="M659.6,278.9c8.08,1.38,15.46-3.67,24.74-8.15,11.11-5.35,15.38-2.87,19.59,1.19,4.21,4.07,6.15,21.96,5.05,26.38,0,0-5.1,12.77-18.26,22.19-13.16,9.42-26.25,10.46-26.25,10.46l-10.97,.28c-5.6,6.27-11.54,13-14.3,15.74-5.38,5.34-29.89,17.87-44.78,25.22-14.89,7.35-16.1,17.81-32.84,23.4-16.74,5.59-23.76-9.72-23.76-9.72,0,0-23.48-33.58-31.66-45.74-8.18-12.16-10.86-20.85-13.09-30.26-2.23-9.41-14.08-29.02-17.57-34.2s-8.92-13.91,.94-25.99c9.85-12.08,18.2-10.95,25.36-12.4,7.16-1.46,20.08-10.25,32.36-18.75,12.28-8.5,33.95-18.69,43.24-21.25,9.29-2.56,23.85-6.24,44.2-19.32,20.35-13.09,29.63-8.78,32.83-6.33,3.21,2.44,6.5,19.07,6.5,19.07,1.37,5.89-10.75,20.32-10.75,20.32,0,0-7.66,10.03-10.71,15.34-3.04,5.31,3.5,15.61,5.52,18.86,2.01,3.25,14.25,33.38,14.25,33.38"></path><path class="cls-3" d="M466.99,174.21s4.17-4.43,4.94-8.31c.77-3.88-.4-22.83-8-23.94-7.6-1.1-10.23,19.75-10.23,19.75,0,0,.19,6.23,4.95,11.57,4.76,5.34,2.77,17.87,2.04,37.62-.73,19.75,5.24,16.16,5.24,16.16,0,0,4.89-.3,2.95-15.07-1.94-14.78-5.99-31.89-1.9-37.77Z"></path><g><path class="cls-3" d="M375.22,331.86s29.82,12.71,36.05-11.47c9.5-36.9,18.2-74.04,27.14-111.08,3.21-13.29,9.29-27.86,.69-38.3-7.47-9.07-3.03-16.11-3.03-16.11l-20.13-5.93s.09,5.6-9.16,11.21c-9.25,5.61-13.06,13.61-15.81,27.39-6.36,31.86-14.26,63.41-21.71,95.04-2.55,10.83-6.37,22.27-5.78,33.35,.21,3.94,.88,8.03,2.78,11.07,2.55,4.09,5.49,3.2,8.98,4.85Z"></path><path class="cls-3" d="M413,151.18c.11,.07,.22,.14,.33,.2,7,3.91,14.77,6.03,22.74,6.21,.47,.01,.97,0,1.38-.34,.47-.39,.7-1.09,.88-1.75,1.19-4.25,2.12-8.59,2.75-12.95,.15-1.04,.25-2.23-.3-2.93-.32-.41-.81-.55-1.27-.68-5.54-1.58-11.09-3.09-16.67-4.53-1-.26-2.02-.51-3.07-.32-3.98,.72-6,10.92-7.16,14.8-.16,.55-.32,1.17-.14,1.66,.1,.28,.3,.47,.52,.63Z"></path></g><g><path class="cls-3" d="M397.73,255.99s25.08-2.85,21.69-17.78c-5.18-22.79-11.01-45.44-16.63-68.12-2.02-8.14-2.42-17.89-11.84-20.69-8.18-2.43-7.32-7.63-7.32-7.63l-16.08,3.34s1.87,2.96-2.84,8.95c-4.71,5.99-4.82,11.49-2.32,19.74,5.77,19.08,10.36,38.49,15.28,57.8,1.69,6.61,2.68,13.96,6.66,19.69,1.41,2.04,3.2,4.01,5.51,5.02,3.11,1.36,4.9-.07,7.88-.31Z"></path><path class="cls-3" d="M366.2,147.24c.1,0,.2,0,.3,0,6.19-.17,12.34-1.55,18-4.03,.33-.15,.68-.31,.87-.63,.21-.36,.14-.81,.06-1.22-.53-2.66-1.27-5.27-2.23-7.81-.23-.6-.54-1.27-1.15-1.47-.36-.11-.75-.03-1.11,.04-4.41,.95-8.8,1.94-13.19,2.97-.79,.18-1.59,.38-2.27,.82-2.57,1.67-.71,7.78-.28,10.22,.06,.35,.15,.73,.44,.94,.16,.12,.36,.16,.57,.17Z"></path></g><path class="cls-3" d="M343.42,195.89c5.63-5.96,5.5-14.91,6.91-25.12,1.69-12.22,6.12-14.4,11.84-15.65,5.72-1.26,21.7,7.03,24.76,10.4,0,0,7.81,11.32,8.38,27.49,.56,16.17-5.81,27.65-5.81,27.65l-5.84,9.28c2.12,8.13,4.44,16.81,5.19,20.62,1.46,7.43-1.66,34.79-3.79,51.26-2.13,16.47,5.92,23.26,1.31,40.3-4.62,17.04-21.25,14.41-21.25,14.41,0,0-40.97,.96-55.62,1.04-14.66,.08-23.37-2.5-32.45-5.85-9.07-3.36-31.96-4.34-38.21-4.3-6.25,.04-16.52-.28-21.13-15.17-4.61-14.89,.96-21.22,3.71-27.98,2.75-6.77,2.58-22.4,2.3-37.33-.28-14.93,3.23-38.62,6.24-47.78,3.01-9.16,8.01-23.31,8.37-47.51,.37-24.19,9.09-29.53,12.9-30.85,3.81-1.32,19.48,5.14,19.48,5.14,5.67,2.12,10.97,20.2,10.97,20.2,0,0,4.11,11.93,6.85,17.41,2.74,5.47,14.94,5.72,18.76,5.85,3.82,.12,35.69,6.61,35.69,6.61"></path><polygon class="cls-3" points="-44.21 274.7 219.56 220.04 294.24 174.12 428.09 185.44 554.24 277.12 624.24 213.12 674.24 202.12 848.61 204.83 975.13 243.38 1094.35 239.31 1191.68 204.83 1366.48 216.11 1514.21 266.12 1610.16 266.12 1743.19 199.03 1948.41 273.06 1948.41 587.78 -44.21 587.78 -44.21 274.7"></polygon><polygon class="cls-3" points="1505.44 154.42 1478.34 211.19 1516.89 234.09 1552.98 182.66 1556.25 184.6 1559.36 179.37 1558.54 172.76 1511.24 144.66 1505.21 147.21 1501.99 152.63 1505.44 154.42"></polygon><polygon class="cls-3" points="281.47 121.65 254.37 178.42 292.92 201.32 329.01 149.89 332.28 151.83 335.39 146.6 334.57 139.99 287.27 111.89 281.24 114.44 278.02 119.86 281.47 121.65"></polygon><polygon class="cls-3" points="1870.33 135.58 1906.85 186.81 1945.56 164.18 1918.07 107.69 1921.35 105.77 1918.28 100.51 1912.11 98.02 1864.6 125.78 1863.91 132.29 1867.09 137.74 1870.33 135.58"></polygon><polygon class="cls-3" points="1877.01 143.73 1849.91 200.5 1888.46 223.39 1924.55 171.96 1927.82 173.91 1930.93 168.67 1930.12 162.07 1882.81 133.97 1876.78 136.51 1873.56 141.94 1877.01 143.73"></polygon><polygon class="cls-3" points="957.69 137.7 979.08 196.86 1022.45 185.49 1011.17 123.68 1014.85 122.72 1013.31 116.83 1008.03 112.77 954.81 126.72 952.39 132.8 953.99 138.9 957.69 137.7"></polygon><polygon class="cls-3" points="772.2 160.44 720.69 124.32 691.73 158.56 736.49 202.66 734.03 205.56 738.68 209.49 745.33 209.78 780.86 167.77 779.35 161.41 774.53 157.33 772.2 160.44"></polygon><g><path class="cls-3" d="M845.5,313.77s31.12,6.98,33.25-12.25c3.25-29.35,5.67-58.81,8.34-88.22,.96-10.55,4.51-22.36-5.57-29.6-8.76-6.29-5.58-12.14-5.58-12.14l-20.58-2.67s1,4.31-7.1,9.51c-8.1,5.2-10.51,11.73-10.94,22.61-1.01,25.17-3.57,50.24-5.67,75.33-.72,8.59-2.57,17.78-.2,26.26,.84,3.02,2.16,6.11,4.51,8.27,3.15,2.91,5.87,1.95,9.53,2.89Z"></path><path class="cls-3" d="M852.87,170.88c.12,.05,.24,.09,.35,.12,7.46,2.36,15.37,3.26,23.16,2.64,.46-.04,.95-.09,1.29-.39,.4-.34,.5-.91,.57-1.43,.47-3.39,.66-6.82,.57-10.25-.02-.81-.12-1.74-.77-2.23-.38-.28-.88-.35-1.35-.41-5.65-.69-11.31-1.33-16.97-1.92-1.01-.1-2.05-.21-3.05,.04-3.76,.93-4.07,8.99-4.56,12.09-.07,.44-.12,.93,.13,1.3,.15,.21,.37,.34,.61,.43Z"></path></g><g><path class="cls-3" d="M832.18,299.49s31.79-2.65,28.06-21.65c-5.69-28.98-12.2-57.81-18.45-86.67-2.24-10.36-2.39-22.68-14.18-26.58-10.24-3.38-8.95-9.91-8.95-9.91l-20.43,3.61s2.25,3.81-3.92,11.2c-6.17,7.39-6.52,14.33-3.67,24.85,6.57,24.32,11.64,49,17.14,73.58,1.88,8.42,2.87,17.73,7.67,25.12,1.71,2.62,3.89,5.18,6.78,6.54,3.88,1.83,6.19,.1,9.96-.09Z"></path><path class="cls-3" d="M796.44,160.95c.13,.01,.25,.01,.38,.01,7.82,.02,15.64-1.49,22.89-4.42,.42-.17,.87-.37,1.12-.76,.28-.45,.21-1.02,.12-1.54-.57-3.38-1.41-6.71-2.52-9.95-.26-.77-.63-1.63-1.4-1.9-.45-.16-.94-.07-1.41,.01-5.6,1.03-11.19,2.11-16.77,3.25-1,.2-2.02,.42-2.89,.95-3.31,2.02-1.19,9.8-.73,12.9,.07,.44,.16,.93,.51,1.2,.2,.15,.45,.21,.71,.23Z"></path></g><path class="cls-3" d="M822.78,261.24s3.9,3.83,1.78,8.55c-2.12,4.72-13.45,18.7-22.65,25.54-9.2,6.84-21.26,14.67-26.07,13.3-4.82-1.38-5.54-1.62-11.92-9.7-6.38-8.08-27.83-38.99-27.83-38.99l8.37-56.89s3.88-7.83,6.47-7.95c0,0,1.73-11.13,14.14-13.47,12.41-2.34,22.66,.34,30.39,4.96,7.73,4.62,15.28,13.01,15.41,19.08,.13,6.07-6.11,27.52-6.11,27.52l17.46,19.63s2.93,4.32,.58,8.41Z"></path><g><path class="cls-3" d="M896.48,287.28s31.12,6.98,33.25-12.25c3.25-29.35,5.67-58.81,8.34-88.22,.96-10.55,4.51-22.36-5.57-29.6-8.76-6.29-5.58-12.14-5.58-12.14l-20.58-2.67s1,4.31-7.1,9.51c-8.1,5.2-10.51,11.73-10.94,22.61-1.01,25.17-3.57,50.24-5.67,75.33-.72,8.59-2.57,17.78-.2,26.26,.84,3.02,2.16,6.11,4.51,8.27,3.15,2.91,5.87,1.95,9.53,2.89Z"></path><path class="cls-3" d="M903.85,144.39c.12,.05,.24,.09,.35,.12,7.46,2.36,15.37,3.26,23.16,2.64,.46-.04,.95-.09,1.29-.39,.4-.34,.5-.91,.57-1.43,.47-3.39,.66-6.82,.57-10.25-.02-.81-.12-1.74-.77-2.23-.38-.28-.88-.35-1.35-.41-5.65-.69-11.31-1.33-16.97-1.92-1.01-.1-2.05-.21-3.05,.04-3.76,.93-4.07,8.99-4.56,12.09-.07,.44-.12,.93,.13,1.3,.15,.21,.37,.34,.61,.43Z"></path></g></g><g><g><path class="cls-3" d="M1038.74,355.36s23.5-5.87,18.39-19.64c-7.8-21.02-16.19-41.83-24.4-62.7-2.94-7.49-4.56-16.71-13.87-18.19-8.08-1.28-7.92-6.33-7.92-6.33l-14.87,5.2s2.15,2.58-1.57,8.87c-3.72,6.29-3.13,11.54,.28,19.07,7.89,17.42,14.7,35.3,21.82,53.04,2.44,6.08,4.31,12.94,8.81,17.88,1.6,1.76,3.55,3.41,5.88,4.08,3.13,.9,4.65-.68,7.45-1.29Z"></path><path class="cls-3" d="M995.05,255.9c.1,0,.19-.02,.28-.04,5.86-.94,11.54-3.03,16.61-6.1,.3-.18,.61-.38,.74-.7,.15-.37,.03-.79-.1-1.17-.84-2.46-1.88-4.86-3.1-7.15-.29-.55-.67-1.14-1.28-1.25-.35-.06-.71,.06-1.05,.18-4.07,1.46-8.13,2.95-12.17,4.48-.72,.27-1.46,.56-2.05,1.07-2.23,1.92,.3,7.49,1.03,9.76,.1,.32,.23,.67,.53,.83,.17,.09,.36,.1,.56,.09Z"></path></g><g><path class="cls-3" d="M1164.38,354.43s30.95-7.73,24.22-25.87c-10.27-27.69-21.33-55.1-32.14-82.58-3.88-9.86-6.01-22.01-18.26-23.95-10.65-1.69-10.43-8.34-10.43-8.34l-19.59,6.85s2.83,3.4-2.07,11.68c-4.9,8.28-4.13,15.2,.37,25.12,10.4,22.95,19.36,46.5,28.74,69.87,3.21,8,5.68,17.04,11.61,23.56,2.11,2.32,4.67,4.49,7.74,5.37,4.13,1.19,6.12-.9,9.82-1.69Z"></path><path class="cls-3" d="M1106.84,223.43c.13,0,.25-.03,.37-.05,7.72-1.24,15.2-3.99,21.88-8.04,.39-.24,.8-.51,.98-.93,.2-.49,.04-1.04-.13-1.54-1.1-3.24-2.47-6.4-4.09-9.41-.38-.72-.89-1.51-1.69-1.65-.47-.08-.94,.08-1.39,.24-5.36,1.92-10.71,3.89-16.03,5.91-.95,.36-1.93,.74-2.7,1.4-2.94,2.52,.4,9.86,1.35,12.85,.14,.42,.31,.89,.7,1.1,.22,.12,.48,.14,.74,.12Z"></path></g><g><path class="cls-3" d="M1232.33,255.54s23.37-5.81,18.31-19.51c-7.73-20.91-3.84-9.8-11.97-30.56-2.92-7.45-4.51-16.62-13.77-18.1-8.04-1.29-7.87-6.31-7.87-6.31l-14.79,5.15s2.13,2.57-1.58,8.82c-3.71,6.25-3.13,11.47,.25,18.96,7.83,17.33,2.36,3.31,9.42,20.96,2.42,6.04,4.27,12.87,8.74,17.79,1.59,1.75,3.52,3.39,5.84,4.06,3.11,.9,4.62-.67,7.41-1.27Z"></path><path class="cls-3" d="M1201.22,188.41c.09,0,.19-.02,.28-.04,5.83-.93,11.48-3,16.53-6.05,.3-.18,.61-.38,.74-.7,.15-.37,.03-.78-.1-1.16-.83-2.45-1.86-4.83-3.08-7.11-.29-.54-.67-1.14-1.27-1.24-.35-.06-.71,.06-1.05,.18-4.05,1.44-8.09,2.92-12.11,4.44-.72,.27-1.46,.56-2.04,1.06-2.22,1.9,.29,7.44,1.01,9.7,.1,.32,.23,.67,.53,.83,.17,.09,.36,.1,.56,.09Z"></path></g><path class="cls-3" d="M687.4,265.71s5.62-2.33,7.92-5.55c2.3-3.22,9.01-20.98,2.54-25.11-6.48-4.13-17.43,13.81-17.43,13.81,0,0-2.38,5.75-.24,12.58,2.15,6.83-4.81,17.43-13.59,35.14-8.78,17.71-1.86,16.89-1.86,16.89,0,0,4.58,1.74,8.88-12.53,4.3-14.27,7.64-31.54,13.78-35.22Z"></path><g><path class="cls-3" d="M132.03,207.52c-1.18,11.01-2.37,22.02-3.55,33.03-.44,4.05-.96,8.1-1.3,12.16-.24,2.86-.16,5.06,1.82,7.31,3.22,3.66,8.63,5.22,13.2,6.33,6.64,1.61,14.26,2.58,18.33-4.03,2.52-4.1,18.1-42.72,18.1-42.72"></path><path class="cls-3" d="M179.37,219.78c.13-.51,.16-1.05,.08-1.57-.1-.67-.34-1.32-.71-1.97-.64-1.13-1.64-2.23-2.93-3.31-1.94-1.62-4.54-3.19-7.64-4.62-3.09-1.43-6.68-2.71-10.56-3.71-3.62-.94-7.13-1.54-10.34-1.82-3.21-.28-6.13-.25-8.58,.1-1.95,.28-3.6,.75-4.9,1.46-.65,.36-1.2,.77-1.64,1.27-.44,.49-.77,1.07-.93,1.7-.13,.51-.16,1.05-.08,1.57,.1,.67,.34,1.32,.71,1.97,.64,1.13,1.64,2.23,2.93,3.31,1.94,1.62,4.54,3.19,7.64,4.62,3.09,1.43,6.68,2.71,10.56,3.71,3.62,.94,7.13,1.54,10.35,1.82,3.21,.28,6.13,.25,8.58-.1,1.95-.28,3.6-.75,4.9-1.46,.65-.36,1.2-.77,1.64-1.27,.44-.49,.77-1.07,.93-1.7"></path></g><path class="cls-3" d="M1042.85,208.29s-1.69-3.43,1.07-9.91c2.77-6.48,13.04-21.93,13.04-21.93,0,0,3.45-1.49-4.43,13.62,0,0-.81,7.43,8.34-10.3,0,0,5.79-6.69-4.89,14.7,0,0-.49,6.78,8.92-12.01,0,0,5.49-4.42-2.8,13.6-8.29,18.02-13.91,14.12-14.8,15.05-.89,.94-25.52,50.89-29.03,51.99s-9.36-2.98,11.4-35.32l13.17-19.51Z"></path><path class="cls-3" d="M1062.18,255.89c2.08-8.64,4.23-17.58,10.14-25.02l11.84-14.92c1.11-1.4,.87-3.42-.52-4.53l-11.19-8.88c-1.4-1.11-3.42-.87-4.53,.52l-11.84,14.92c-5.9,7.44-14.12,11.57-22.06,15.56-7.29,3.66-14.17,7.12-18.73,12.87l-47.36,59.69c-5.82,7.33-1.95,14.73,2.07,17.92l18.65,14.8c4.02,3.19,12.1,5.27,17.92-2.06l47.36-59.69c4.56-5.76,6.36-13.25,8.27-21.17Z"></path><path class="cls-3" d="M918.15,359.12c-12.19-7.77-24.79-15.8-33.11-28.82l-16.69-26.1c-1.56-2.44-4.8-3.16-7.25-1.59l-19.57,12.51c-2.44,1.56-3.16,4.8-1.59,7.25l16.69,26.1c8.32,13.01,10.32,27.82,12.26,42.15,1.78,13.14,3.45,25.55,9.88,35.61l66.75,104.39c8.2,12.82,21.62,10.79,28.64,6.3l32.62-20.86c7.02-4.49,14.5-15.82,6.3-28.64l-66.75-104.39c-6.44-10.06-17-16.79-28.19-23.91Z"></path><path class="cls-3" d="M1262.9,230.04c4.63-6.77,3.12-15.58,2.93-25.88-.23-12.33,3.81-15.17,9.26-17.3,5.46-2.13,22.52,3.58,26.08,6.43,0,0,9.48,9.97,12.54,25.86,3.07,15.89-1.45,28.22-1.45,28.22l-4.33,10.08c3.36,7.71,6.99,15.91,8.33,19.57,2.6,7.12,3.76,34.62,4.22,51.22,.46,16.6,9.46,22.06,7.55,39.61-1.91,17.55-18.75,17.53-18.75,17.53,0,0-40.32,7.31-54.79,9.67-14.47,2.36-23.48,1.16-32.96-.74-9.48-1.91-32.25,.68-38.42,1.69-6.17,1.01-16.36,2.29-23.23-11.71-6.86-14-2.35-21.11-.68-28.22,1.67-7.11-.93-22.53-3.52-37.23-2.59-14.7-2.81-38.66-1.26-48.17,1.55-9.51,4.29-24.27,.9-48.23-3.4-23.96,4.4-30.59,7.95-32.48,3.56-1.89,20.04,2.05,20.04,2.05,5.93,1.21,13.97,18.25,13.97,18.25,0,0,5.92,11.15,9.47,16.13,3.55,4.98,15.65,3.33,19.44,2.86,3.79-.47,36.28,.98,36.28,.98"></path><g><path class="cls-3" d="M585.17,380.9s22.83,8.07,26.17-6.24c5.09-21.83,9.57-43.82,14.24-65.75,1.68-7.87,5.42-16.45-1.53-22.82-6.03-5.53-3.11-9.65-3.11-9.65l-15.27-3.87s.37,3.34-6.21,6.53c-6.57,3.19-8.98,7.89-10.29,16.06-3.03,18.88-7.22,37.55-11.07,56.28-1.32,6.41-3.54,13.17-2.52,19.78,.36,2.35,1.08,4.8,2.65,6.64,2.12,2.48,4.25,2,6.93,3.04Z"></path><path class="cls-3" d="M603.61,273.85c.08,.05,.17,.09,.26,.13,5.41,2.45,11.29,3.84,17.22,4.08,.35,.01,.72,.02,1.01-.18,.33-.22,.46-.64,.56-1.03,.66-2.52,1.11-5.08,1.36-7.67,.06-.62,.07-1.32-.38-1.75-.26-.25-.63-.34-.98-.43-4.2-1.03-8.41-2.02-12.62-2.97-.76-.17-1.53-.34-2.3-.24-2.92,.37-3.88,6.41-4.53,8.7-.09,.33-.18,.69-.02,.99,.09,.17,.25,.29,.42,.38Z"></path></g><path class="cls-3" d="M659.6,310.87c6.5-6.06,13.23-12.33,22.26-15.27l18.11-5.91c1.69-.55,2.62-2.37,2.07-4.07l-4.43-13.58c-.55-1.69-2.37-2.62-4.07-2.07l-18.11,5.91c-9.03,2.95-18.15,1.86-26.98,.81-8.1-.97-15.74-1.88-22.73,.4l-72.43,23.65c-8.9,2.91-9.75,11.21-8.16,16.08l7.39,22.64c1.59,4.87,7.19,11.07,16.08,8.16l72.43-23.65c6.98-2.28,12.61-7.54,18.58-13.1Z"></path><g><path class="cls-3" d="M317.12,183.99s-24.21-.47-22.88,14.16c2.04,22.33,4.71,44.61,7.18,66.89,.89,8,.04,17.32,8.64,21.17,7.47,3.35,5.99,8.18,5.99,8.18l15.71-1.14s-1.4-3.05,3.83-8.15c5.24-5.1,6.04-10.32,4.71-18.48-3.07-18.88-4.97-37.92-7.21-56.9-.77-6.5-.78-13.61-3.84-19.57-1.09-2.12-2.53-4.21-4.61-5.47-2.79-1.69-4.66-.56-7.53-.71Z"></path><path class="cls-3" d="M333.32,291.41c-.09-.02-.19-.03-.28-.04-5.9-.62-11.93-.09-17.63,1.55-.33,.1-.69,.21-.9,.49-.24,.32-.24,.75-.21,1.15,.16,2.6,.54,5.18,1.13,7.71,.14,.6,.35,1.28,.91,1.54,.33,.15,.7,.13,1.06,.1,4.31-.34,8.62-.73,12.92-1.15,.77-.08,1.56-.16,2.26-.49,2.66-1.27,1.66-7.3,1.56-9.69-.02-.34-.05-.71-.3-.94-.14-.13-.32-.2-.52-.23Z"></path></g><path class="cls-3" d="M268.53,273.89c-4.26,7.8-8.68,15.86-16.32,21.51l-15.33,11.31c-1.43,1.06-1.74,3.08-.68,4.51l8.48,11.49c1.06,1.43,3.08,1.74,4.51,.68l15.33-11.31c7.64-5.64,16.65-7.48,25.36-9.26,7.99-1.63,15.54-3.17,21.44-7.53l61.3-45.26c7.53-5.56,5.73-13.71,2.68-17.83l-14.14-19.16c-3.04-4.12-10.3-8.24-17.83-2.69l-61.3,45.26c-5.91,4.37-9.6,11.13-13.51,18.28Z"></path><path class="cls-3" d="M1006.89,265.56c-5.66-5.93-14.6-6.27-24.72-8.22-12.11-2.33-14.06-6.86-15.01-12.64-.96-5.78,8.16-21.3,11.68-24.19,0,0,11.71-7.21,27.89-6.93,16.18,.28,27.31,7.25,27.31,7.25l8.97,6.32c8.23-1.69,17.02-3.55,20.87-4.11,7.5-1.07,34.65,3.48,50.99,6.46,16.34,2.98,23.54-4.7,40.31,.8,16.77,5.5,13.28,21.97,13.28,21.97,0,0-1.18,40.96-1.86,55.6s-3.71,23.21-7.54,32.1c-3.83,8.88-6,31.69-6.29,37.94-.29,6.24-1.14,16.48-16.25,20.31-15.11,3.82-21.14-2.06-27.75-5.16-6.61-3.1-22.23-3.75-37.16-4.25-14.92-.5-38.4-5.24-47.39-8.73s-22.86-9.22-47-10.84c-24.14-1.63-29.02-10.62-30.13-14.5-1.12-3.87,6.15-19.19,6.15-19.19,2.41-5.55,20.75-9.9,20.75-9.9,0,0,12.13-3.49,17.74-5.93,5.61-2.45,6.5-14.62,6.82-18.43,.32-3.81,8.46-35.29,8.46-35.29"></path><path class="cls-3" d="M556.57,291.09s-3.05,2.3-9.93,.8c-6.88-1.51-23.98-8.71-23.98-8.71,0,0-2.11-3.11,14.21,1.8,0,0,7.45-.6-11.68-6.27,0,0-7.66-4.43,15.36,2.05,0,0,6.75-.79-13.46-6.52,0,0-5.37-4.57,13.89,.21,19.25,4.78,16.47,11.03,17.55,11.73,1.09,.7,54.77,15.56,56.5,18.8s-1.18,9.75-36.83-4.59l-21.62-9.29Z"></path><path class="cls-3" d="M1773.36,256.75s-1.06-3.37,1.58-5.41,13.34-6.58,20.66-7.68c7.32-1.1,16.57-1.91,18.89,.33,2.33,2.25,2.67,2.61,3.85,9.15,1.18,6.54,4.03,30.66,4.03,30.66l-22.03,29.88s-4.59,3.28-6.1,2.57c0,0-4.36,5.82-12.14,3.38-7.78-2.43-12.81-7.07-15.81-12.05-3-4.98-4.76-12.05-2.99-15.55,1.77-3.5,11.83-13.83,11.83-13.83l-3.99-16.49s-.36-3.35,2.22-4.97Z"></path><path class="cls-3" d="M212.67,257.29c.79-10.04,1.62-20.42,6.9-29.8l10.6-18.8c.99-1.76,.37-3.99-1.39-4.98l-14.1-7.95c-1.76-.99-3.99-.37-4.98,1.39l-10.6,18.8c-5.29,9.37-13.74,15.45-21.92,21.32-7.5,5.39-14.59,10.48-18.68,17.72l-42.41,75.2c-5.21,9.24,.43,16.83,5.49,19.68l23.5,13.25c5.06,2.85,14.47,3.75,19.68-5.49l42.41-75.2c4.08-7.25,4.77-15.95,5.5-25.16Z"></path><path class="cls-3" d="M158,377.58c5.08,6.43,13.95,7.61,23.84,10.49,11.84,3.45,13.35,8.15,13.76,13.99,.41,5.84-10.11,20.44-13.89,22.99,0,0-12.34,6.08-28.42,4.29-16.08-1.8-26.51-9.78-26.51-9.78l-8.34-7.13c-8.35,.91-17.27,1.95-21.16,2.14-7.57,.37-34.18-6.71-50.16-11.2-15.99-4.5-23.88,2.48-40.06-4.57-16.18-7.04-11.16-23.11-11.16-23.11,0,0,5.01-40.67,7.06-55.18,2.05-14.51,5.87-22.76,10.51-31.25,4.64-8.49,8.94-30.99,9.81-37.18,.87-6.19,2.68-16.31,18.08-18.7,15.41-2.39,20.85,4.03,27.15,7.74,6.29,3.71,21.78,5.81,36.6,7.71,14.81,1.9,37.74,8.81,46.36,13.12,8.62,4.31,21.9,11.32,45.78,15.2,23.88,3.88,27.9,13.29,28.64,17.25s-7.92,18.53-7.92,18.53c-2.92,5.3-21.58,7.91-21.58,7.91,0,0-12.41,2.33-18.22,4.24-5.81,1.91-7.84,13.95-8.52,17.71-.68,3.76-11.73,34.35-11.73,34.35"></path><path class="cls-3" d="M226.15,241.98s5.34,2.91,9.29,2.68c3.95-.23,21.99-6.16,21.14-13.79-.85-7.63-21.69-4.9-21.69-4.9,0,0-5.97,1.76-9.94,7.72-3.97,5.96-16.59,7.2-35.88,11.48-19.3,4.29-14.31,9.16-14.31,9.16,0,0,1.52,4.65,15.33-.95,13.81-5.61,29.34-13.86,36.07-11.38Z"></path><path class="cls-3" d="M270.28,250.08s3.46-2.6,6.9-.38,13.04,12.73,17.3,20.74c4.26,8.01,8.97,18.36,7.32,21.97-1.64,3.61-1.92,4.14-9,8.18-7.08,4.03-33.79,17.17-33.79,17.17l-43.51-13.26s-5.66-3.96-5.45-6c0,0-8.5-2.67-8.87-12.65-.37-9.98,2.94-17.68,7.47-23.18,4.53-5.5,11.98-10.42,16.75-9.8,4.76,.62,20.8,8.03,20.8,8.03l17.42-11.33s3.73-1.78,6.65,.54Z"></path><g><path class="cls-3" d="M970.34,346.22s30.95-7.73,24.22-25.87c-10.27-27.69-21.33-55.1-32.14-82.58-3.88-9.86-6.01-22.01-18.26-23.95-10.65-1.69-10.43-8.34-10.43-8.34l-19.59,6.85s2.83,3.4-2.07,11.68c-4.9,8.28-4.13,15.2,.37,25.12,10.4,22.95,19.36,46.5,28.74,69.87,3.21,8,5.68,17.04,11.61,23.56,2.11,2.32,4.67,4.49,7.74,5.37,4.13,1.19,6.12-.9,9.82-1.69Z"></path><path class="cls-3" d="M912.8,215.22c.13,0,.25-.03,.37-.05,7.72-1.24,15.2-3.99,21.88-8.04,.39-.24,.8-.51,.98-.93,.2-.49,.04-1.04-.13-1.54-1.1-3.24-2.47-6.4-4.09-9.41-.38-.72-.89-1.51-1.69-1.65-.47-.08-.94,.08-1.39,.24-5.36,1.92-10.71,3.89-16.03,5.91-.95,.36-1.93,.74-2.7,1.4-2.94,2.52,.4,9.86,1.35,12.85,.14,.42,.31,.89,.7,1.1,.22,.12,.48,.14,.74,.12Z"></path></g><g><path class="cls-3" d="M950.27,353.75s27.21-16.64,15.36-31.94c-18.09-23.34-36.85-46.18-55.39-69.17-6.65-8.25-12.32-19.2-24.6-17.39-10.67,1.57-12.45-4.84-12.45-4.84l-16.64,12.4s3.72,2.4,1.52,11.77c-2.2,9.37,.61,15.73,7.87,23.86,16.79,18.78,32.39,38.57,48.34,58.06,5.46,6.67,10.52,14.56,18.13,19,2.7,1.58,5.8,2.88,8.99,2.8,4.29-.1,5.57-2.69,8.86-4.55Z"></path><path class="cls-3" d="M856.15,245.99c.12-.05,.23-.1,.34-.16,6.99-3.49,13.31-8.35,18.47-14.22,.3-.34,.62-.72,.66-1.18,.05-.52-.27-1-.58-1.43-2.02-2.76-4.27-5.36-6.72-7.76-.58-.57-1.3-1.17-2.1-1.07-.47,.06-.87,.36-1.25,.64-4.54,3.43-9.05,6.91-13.53,10.43-.8,.63-1.62,1.28-2.16,2.15-2.05,3.29,3.33,9.29,5.14,11.86,.26,.36,.56,.76,1,.84,.25,.05,.5-.01,.74-.11Z"></path></g><path class="cls-3" d="M706.78,294.81c2.74-7.73-.98-15.86-3.81-25.77-3.38-11.86-.21-15.64,4.52-19.1,4.73-3.46,22.69-2.32,26.85-.47,0,0,11.72,7.21,18.75,21.78,7.04,14.57,5.83,27.65,5.83,27.65l-1.6,10.85c5.22,6.59,10.84,13.59,13.07,16.78,4.34,6.21,12.51,32.5,17.21,48.43,4.7,15.93,14.81,18.9,17.45,36.35,2.65,17.45-13.63,21.75-13.63,21.75,0,0-37.1,17.41-50.48,23.4-13.38,5.99-22.39,7.14-32.05,7.73-9.66,.59-31,8.93-36.7,11.48-5.7,2.55-15.23,6.41-25.45-5.36-10.22-11.77-7.68-19.8-7.9-27.1-.21-7.3-6.67-21.54-12.95-35.09s-12.63-36.64-13.57-46.23c-.94-9.59-2.08-24.56-11.5-46.85-9.43-22.28-3.6-30.69-.64-33.43,2.95-2.74,19.9-3.15,19.9-3.15,6.04-.35,18.19,14.06,18.19,14.06,0,0,8.58,9.26,13.29,13.17,4.71,3.91,15.98-.79,19.53-2.22,3.55-1.43,35.32-8.35,35.32-8.35"></path><path class="cls-3" d="M784.67,245.39c-5.82-9.88-11.83-20.09-14.16-32.56l-4.67-25.02c-.44-2.34-2.27-3.96-4.1-3.62l-14.66,2.74c-1.83,.34-2.96,2.51-2.52,4.86l4.67,25.02c2.33,12.48,.4,24.17-1.46,35.48-1.71,10.37-3.33,20.17-1.53,29.82l18.69,100.09c2.3,12.29,10.96,15.29,16.22,14.31l24.44-4.56c5.26-.98,12.26-6.9,9.96-19.19l-18.69-100.09c-1.81-9.65-6.85-18.2-12.19-27.26Z"></path><path class="cls-3" d="M877.19,267.08s5.2,1.67,5.43,6.84c.22,5.17-3.63,22.75-8.78,32.99-5.15,10.24-12.41,22.65-17.33,23.59-4.92,.93-5.68,1.04-15.01-3.32-9.33-4.36-42.37-22.35-42.37-22.35l-18.06-54.59s-.04-8.73,2.21-10c0,0-3.45-10.72,6.59-18.38,10.04-7.66,20.4-9.87,29.38-9.2,8.98,.66,19.49,4.77,22.33,10.14,2.84,5.37,6.89,27.33,6.89,27.33l24.41,9.71s4.55,2.55,4.3,7.25Z"></path><path class="cls-3" d="M813.21,258.63c-4.42-10.58-8.98-21.51-9.59-34.19l-1.21-25.43c-.11-2.38-1.71-4.23-3.57-4.15l-14.9,.71c-1.86,.09-3.27,2.09-3.16,4.47l1.21,25.43c.6,12.68-2.9,23.99-6.29,34.95-3.11,10.04-6.05,19.53-5.58,29.33l4.85,101.7c.6,12.49,8.77,16.64,14.11,16.39l24.83-1.18c5.35-.25,13.08-5.16,12.49-17.65l-4.85-101.7c-.47-9.8-4.3-18.96-8.35-28.66Z"></path><g><path class="cls-3" d="M500.43,390.76s23.63,5.3,25.25-9.3c2.47-22.28,4.3-44.65,6.33-66.98,.73-8.01,3.42-16.98-4.23-22.47-6.65-4.78-4.23-9.21-4.23-9.21l-15.62-2.03s.76,3.27-5.39,7.22c-6.15,3.95-7.98,8.9-8.31,17.17-.76,19.11-2.71,38.14-4.31,57.2-.55,6.52-1.95,13.5-.15,19.94,.64,2.29,1.64,4.64,3.42,6.28,2.4,2.21,4.46,1.48,7.24,2.2Z"></path><path class="cls-3" d="M506.02,282.28c.09,.04,.18,.07,.27,.09,5.66,1.79,11.67,2.47,17.59,2,.35-.03,.72-.07,.98-.3,.3-.26,.38-.69,.44-1.09,.36-2.58,.5-5.18,.43-7.78-.02-.62-.09-1.32-.58-1.69-.29-.21-.66-.27-1.02-.31-4.29-.53-8.59-1.01-12.89-1.45-.77-.08-1.56-.16-2.31,.03-2.86,.71-3.09,6.82-3.46,9.18-.05,.33-.09,.71,.1,.98,.11,.16,.28,.26,.46,.33Z"></path></g><g><path class="cls-3" d="M613.12,446.32s31.12,6.98,33.25-12.25c3.25-29.35,5.67-58.81,8.34-88.22,.96-10.55,4.51-22.36-5.57-29.6-8.76-6.29-5.58-12.14-5.58-12.14l-20.58-2.67s1,4.31-7.1,9.51c-8.1,5.2-10.51,11.73-10.94,22.61-1.01,25.17-3.57,50.24-5.67,75.33-.72,8.59-2.57,17.78-.2,26.26,.84,3.02,2.16,6.11,4.51,8.27,3.15,2.91,5.87,1.95,9.53,2.89Z"></path><path class="cls-3" d="M620.49,303.43c.12,.05,.24,.09,.35,.12,7.46,2.36,15.37,3.26,23.16,2.64,.46-.04,.95-.09,1.29-.39,.4-.34,.5-.91,.57-1.43,.47-3.39,.66-6.82,.57-10.25-.02-.81-.12-1.74-.77-2.23-.38-.28-.88-.35-1.35-.41-5.65-.69-11.31-1.33-16.97-1.92-1.01-.1-2.05-.21-3.05,.04-3.76,.93-4.07,8.99-4.56,12.09-.07,.44-.12,.93,.13,1.3,.15,.21,.37,.34,.61,.43Z"></path></g><path class="cls-3" d="M566.01,312.39c5.74-6.79,11.67-13.81,20.29-17.81l17.28-8.02c1.62-.75,2.32-2.67,1.57-4.29l-6.02-12.96c-.75-1.62-2.67-2.32-4.29-1.57l-17.28,8.02c-8.61,4-17.8,4-26.7,4-8.15,0-15.86,0-22.52,3.09l-69.11,32.09c-8.49,3.94-8.35,12.29-6.2,16.94l10.03,21.6c2.16,4.65,8.45,10.14,16.94,6.2l69.11-32.09c6.66-3.1,11.63-8.98,16.89-15.21Z"></path><path class="cls-3" d="M390.97,340.01c-7.41-12.41-15.06-25.25-16.66-40.61l-3.2-30.81c-.3-2.88-2.88-4.98-5.76-4.68l-23.1,2.4c-2.88,.3-4.98,2.88-4.68,5.76l3.2,30.81c1.6,15.36-3.26,29.49-7.96,43.17-4.31,12.54-8.38,24.38-7.15,36.26l12.8,123.25c1.57,15.14,14.48,19.34,22.77,18.48l38.51-4c8.29-.86,20.06-7.63,18.48-22.77l-12.8-123.25c-1.24-11.88-7.66-22.63-14.46-34.02Z"></path><path class="cls-3" d="M512.27,296.22c-2.4-7.84-10.23-12.16-18.4-18.44-9.78-7.52-9.48-12.44-7.74-18.03,1.74-5.59,16.85-15.37,21.29-16.37,0,0,13.7-1.19,28.04,6.33,14.33,7.52,21.15,18.74,21.15,18.74l5.18,9.67c8.12,2.18,16.8,4.46,20.49,5.69,7.18,2.41,29.41,18.66,42.67,28.66,13.26,10,23.15,6.37,35.67,18.81,12.52,12.44,2,25.59,2,25.59,0,0-19.44,36.07-26.62,48.85-7.18,12.78-13.74,19.07-21.14,25.3-7.41,6.22-19.59,25.63-22.65,31.08-3.06,5.45-8.42,14.22-23.64,10.85-15.22-3.37-17.96-11.33-22.48-17.07-4.52-5.74-18.19-13.33-31.3-20.47-13.11-7.15-31.96-21.92-38.43-29.07-6.47-7.15-16.29-18.5-37.14-30.79-20.84-12.29-21.16-22.51-20.42-26.48s14.11-14.38,14.11-14.38c4.65-3.88,22.98,.47,22.98,.47,0,0,12.41,2.33,18.52,2.66,6.11,.33,12.37-10.15,14.37-13.41,2-3.26,23.4-27.74,23.4-27.74"></path><g><path class="cls-3" d="M443.41,351.9s31.12,6.98,33.25-12.25c3.25-29.35,5.67-58.81,8.34-88.22,.96-10.55,4.51-22.36-5.57-29.6-8.76-6.29-5.58-12.14-5.58-12.14l-20.58-2.67s1,4.31-7.1,9.51c-8.1,5.2-10.51,11.73-10.94,22.61-1.01,25.17-3.57,50.24-5.67,75.33-.72,8.59-2.57,17.78-.2,26.26,.84,3.02,2.16,6.11,4.51,8.27,3.15,2.91,5.87,1.95,9.53,2.89Z"></path><path class="cls-3" d="M450.78,209.01c.12,.05,.24,.09,.35,.12,7.46,2.36,15.37,3.26,23.16,2.64,.46-.04,.95-.09,1.29-.39,.4-.34,.5-.91,.57-1.43,.47-3.39,.66-6.82,.57-10.25-.02-.81-.12-1.74-.77-2.23-.38-.28-.88-.35-1.35-.41-5.65-.69-11.31-1.33-16.97-1.92-1.01-.1-2.05-.21-3.05,.04-3.76,.93-4.07,8.99-4.56,12.09-.07,.44-.12,.93,.13,1.3,.15,.21,.37,.34,.61,.43Z"></path></g><g><path class="cls-3" d="M422.08,349.62s31.79-2.65,28.06-21.65c-5.69-28.98-12.2-57.81-18.45-86.67-2.24-10.36-2.39-22.68-14.18-26.58-10.24-3.38-8.95-9.91-8.95-9.91l-20.43,3.61s2.25,3.81-3.92,11.2c-6.17,7.39-6.52,14.33-3.67,24.85,6.57,24.32,11.64,49,17.14,73.58,1.88,8.42,2.87,17.73,7.67,25.12,1.71,2.62,3.89,5.18,6.78,6.54,3.88,1.83,6.19,.1,9.96-.09Z"></path><path class="cls-3" d="M386.34,211.08c.13,.01,.25,.01,.38,.01,7.82,.02,15.64-1.49,22.89-4.42,.42-.17,.87-.37,1.12-.76,.28-.45,.21-1.02,.12-1.54-.57-3.38-1.41-6.71-2.52-9.95-.26-.77-.63-1.63-1.4-1.9-.45-.16-.94-.07-1.41,.01-5.6,1.03-11.19,2.11-16.77,3.25-1,.2-2.02,.42-2.89,.95-3.31,2.02-1.19,9.8-.73,12.9,.07,.44,.16,.93,.51,1.2,.2,.15,.45,.21,.71,.23Z"></path></g><path class="cls-3" d="M1723.98,220.21c-9.31-6.68-18.94-13.59-26.12-24.06l-14.39-21c-1.35-1.97-3.68-2.7-5.22-1.65l-12.3,8.43c-1.54,1.05-1.69,3.5-.34,5.46l14.39,21c7.17,10.47,10.14,21.94,13,33.04,2.63,10.18,5.11,19.79,10.66,27.89l57.55,84c7.07,10.32,16.2,9.56,20.62,6.53l20.51-14.05c4.42-3.02,8.42-11.27,1.35-21.58l-57.55-84c-5.55-8.09-13.62-13.88-22.16-20.01Z"></path><path class="cls-3" d="M395.68,239.37s3.9,3.83,1.78,8.55c-2.12,4.72-13.45,18.7-22.65,25.54-9.2,6.84-21.26,14.67-26.07,13.3-4.82-1.38-5.54-1.62-11.92-9.7-6.38-8.08-27.83-38.99-27.83-38.99l8.37-56.89s3.88-7.83,6.47-7.95c0,0,1.73-11.13,14.14-13.47,12.41-2.34,22.66,.34,30.39,4.96,7.73,4.62,15.28,13.01,15.41,19.08,.13,6.07-6.11,27.52-6.11,27.52l17.46,19.63s2.93,4.32,.58,8.41Z"></path><path class="cls-3" d="M1768.34,230.48c-5.39-10.12-10.95-20.58-12.73-33.15l-3.58-25.2c-.33-2.36-2.1-4.06-3.94-3.79l-14.77,2.1c-1.84,.26-3.06,2.38-2.73,4.74l3.58,25.2c1.78,12.56-.65,24.16-3,35.38-2.16,10.29-4.2,20.01-2.82,29.72l14.32,100.81c1.76,12.38,10.28,15.75,15.58,15l24.62-3.5c5.3-.75,12.55-6.36,10.79-18.74l-14.32-100.81c-1.39-9.72-6.05-18.48-10.99-27.76Z"></path><path class="cls-3" d="M563.69,265.44s-3.82-.17-8.17-5.71c-4.35-5.54-12.95-21.98-12.95-21.98,0,0,.35-3.75,9.81,10.44,0,0,6.13,4.28-5.01-12.27,0,0-3.08-8.29,10.54,11.36,0,0,5.71,3.69-6.23-13.6,0,0-1.23-6.94,10.58,9,11.8,15.94,5.68,18.99,6.07,20.22,.39,1.23,32.33,46.86,31.6,50.46s-7.12,6.77-25.48-26.99l-10.76-20.93Z"></path><g><path class="cls-3" d="M1551.34,322.78s19.44,14.21,26.71,1.54c11.09-19.34,5.06-9.23,15.78-28.78,3.84-7.02,9.86-14.12,5.06-22.17-4.17-6.99-.2-10.08-.2-10.08l-13.44-8.05s-.6,3.28-7.78,4.44c-7.17,1.16-10.81,4.95-14.39,12.35-8.28,17.12-1.03,3.93-10.05,20.67-3.09,5.73-7.14,11.53-8.05,18.12-.32,2.34-.34,4.88,.63,7.08,1.31,2.97,3.48,3.12,5.73,4.88Z"></path><path class="cls-3" d="M1582.91,255.86c.07,.07,.14,.13,.21,.19,4.45,3.88,9.66,6.89,15.24,8.8,.33,.11,.68,.22,1.01,.12,.38-.12,.62-.48,.83-.82,1.35-2.21,2.51-4.52,3.48-6.92,.23-.57,.45-1.24,.14-1.77-.18-.31-.5-.51-.81-.69-3.7-2.18-7.43-4.33-11.17-6.44-.67-.38-1.36-.76-2.12-.89-2.89-.49-5.53,5-6.8,6.99-.18,.28-.37,.61-.3,.94,.04,.19,.15,.34,.29,.48Z"></path></g><g><path class="cls-3" d="M1610.04,236.29c6.48,8.98,12.97,17.95,19.45,26.93,2.39,3.3,4.7,6.66,7.17,9.91,1.73,2.28,3.27,3.87,6.24,4.22,4.84,.57,9.9-1.89,14.04-4.12,6.01-3.24,12.32-7.62,10.93-15.26-.86-4.73-15.11-43.86-15.11-43.86"></path><path class="cls-3" d="M1653.44,213.74c-.24-.47-.58-.88-.99-1.22-.52-.43-1.14-.76-1.84-.99-1.23-.41-2.71-.56-4.39-.5-2.52,.09-5.51,.67-8.77,1.67-3.25,1.01-6.77,2.45-10.34,4.31-3.32,1.73-6.33,3.62-8.91,5.56-2.58,1.94-4.72,3.91-6.31,5.81-1.26,1.51-2.18,2.97-2.66,4.36-.24,.7-.38,1.38-.37,2.04,0,.66,.14,1.31,.45,1.89,.24,.47,.58,.88,.99,1.22,.52,.43,1.14,.76,1.84,.99,1.23,.41,2.71,.56,4.39,.5,2.52-.09,5.51-.67,8.77-1.67,3.25-1.01,6.77-2.45,10.34-4.31,3.32-1.73,6.33-3.63,8.91-5.56,2.58-1.94,4.72-3.91,6.31-5.81,1.26-1.51,2.18-2.97,2.66-4.36,.24-.7,.38-1.38,.37-2.04,0-.66-.14-1.31-.45-1.89"></path></g><path class="cls-3" d="M1590.51,329.89c8.16-.78,13.96-7.6,21.74-14.35,9.32-8.08,14.09-6.81,19.22-3.98,5.13,2.82,11.7,19.58,11.79,24.13,0,0-1.57,13.66-11.8,26.21-10.23,12.54-22.58,16.98-22.58,16.98l-10.51,3.14c-3.76,7.52-7.73,15.57-9.67,18.94-3.79,6.56-24.16,25.09-36.6,36.08-12.44,10.99-10.86,21.41-25.55,31.19-14.69,9.78-25.47-3.15-25.47-3.15,0,0-31.46-26.25-42.55-35.84-11.08-9.59-15.95-17.27-20.56-25.77-4.62-8.5-21.2-24.31-25.93-28.4-4.73-4.09-12.25-11.09-5.91-25.33,6.34-14.24,14.69-15.34,21.22-18.62,6.53-3.28,16.69-15.16,26.32-26.57,9.62-11.42,27.86-26.94,36.16-31.85,8.3-4.91,21.38-12.27,37.59-30.24,16.21-17.97,26.29-16.24,30.02-14.72,3.73,1.52,11.27,16.7,11.27,16.7,2.87,5.33-5.05,22.43-5.05,22.43,0,0-4.76,11.69-6.31,17.61-1.55,5.92,7.47,14.15,10.27,16.76,2.79,2.61,22.51,28.47,22.51,28.47"></path><path class="cls-3" d="M1618.84,257.29s1.9-2.97,5.17-2.26c3.26,.71,13.6,6.02,19.14,10.93,5.54,4.91,12.09,11.49,11.86,14.71-.23,3.23-.29,3.72-4.55,8.82-4.26,5.1-20.95,22.75-20.95,22.75l-37.05,2.25s-5.46-1.42-5.88-3.03c0,0-7.26,.38-10.38-7.15-3.12-7.53-2.79-14.36-.89-19.86,1.9-5.5,6.2-11.38,10.01-12.26,3.82-.89,18.2,.21,18.2,.21l10.09-13.63s2.34-2.42,5.24-1.48Z"></path><path class="cls-3" d="M1703.28,237.36c-6.13-8-12.46-16.26-14.8-26.77l-4.69-21.07c-.44-1.97-2.39-3.21-4.36-2.77l-15.8,3.52c-1.97,.44-3.21,2.39-2.77,4.36l4.69,21.07c2.34,10.5,.11,20.67-2.04,30.52-1.97,9.02-3.84,17.55-2.03,25.67l18.77,84.27c2.31,10.35,11.58,12.22,17.25,10.96l26.33-5.87c5.67-1.26,13.27-6.89,10.96-17.24l-18.77-84.27c-1.82-8.12-7.12-15.05-12.74-22.38Z"></path><path class="cls-3" d="M1743.1,345.34c8.08,1.38,15.46-3.67,24.74-8.15,11.11-5.35,15.38-2.87,19.59,1.19,4.21,4.07,6.15,21.96,5.05,26.38,0,0-5.1,12.77-18.26,22.19-13.16,9.42-26.25,10.46-26.25,10.46l-10.97,.28c-5.6,6.27-11.54,13-14.3,15.74-5.38,5.34-29.89,17.87-44.78,25.22-14.89,7.35-16.1,17.81-32.84,23.4-16.74,5.59-23.76-9.72-23.76-9.72,0,0-23.48-33.58-31.66-45.74-8.18-12.16-10.86-20.85-13.09-30.26-2.23-9.41-14.08-29.02-17.57-34.2s-8.92-13.91,.94-25.99c9.85-12.08,18.2-10.95,25.36-12.4,7.16-1.46,20.08-10.25,32.36-18.75,12.28-8.5,33.95-18.69,43.24-21.25,9.29-2.56,23.85-6.24,44.2-19.32,20.35-13.09,29.63-8.78,32.83-6.33s6.5,19.07,6.5,19.07c1.37,5.89-10.75,20.32-10.75,20.32,0,0-7.66,10.03-10.71,15.34-3.04,5.31,3.5,15.61,5.52,18.86,2.01,3.25,14.25,33.38,14.25,33.38"></path><path class="cls-3" d="M1706.54,194.61s5.92-1.41,8.7-4.22c2.78-2.82,12.23-19.29,6.49-24.39-5.74-5.1-19.4,10.86-19.4,10.86,0,0-3.27,5.3-2.23,12.39,1.04,7.08-7.52,16.44-18.99,32.54-11.48,16.09-4.51,16.38-4.51,16.38,0,0,4.24,2.44,10.76-10.96,6.51-13.4,12.54-29.93,19.2-32.59Z"></path><g><path class="cls-3" d="M1438.72,390.3s29.82,12.71,36.05-11.47c9.5-36.9,18.2-74.04,27.14-111.08,3.21-13.29,9.29-27.86,.69-38.3-7.47-9.07-3.03-16.11-3.03-16.11l-20.13-5.93s.09,5.6-9.16,11.21c-9.25,5.61-13.06,13.61-15.81,27.39-6.36,31.86-14.26,63.41-21.71,95.04-2.55,10.83-6.37,22.27-5.78,33.35,.21,3.94,.88,8.03,2.78,11.07,2.55,4.09,5.49,3.2,8.98,4.85Z"></path><path class="cls-3" d="M1476.49,209.62c.11,.07,.22,.14,.33,.2,7,3.91,14.77,6.03,22.74,6.21,.47,.01,.97,0,1.38-.34,.47-.39,.7-1.09,.88-1.75,1.19-4.25,2.12-8.59,2.75-12.95,.15-1.04,.25-2.23-.3-2.93-.32-.41-.81-.55-1.27-.68-5.54-1.58-11.09-3.09-16.67-4.53-1-.26-2.02-.51-3.07-.32-3.98,.72-6,10.92-7.16,14.8-.16,.55-.32,1.17-.14,1.66,.1,.28,.3,.47,.52,.63Z"></path></g><g><path class="cls-3" d="M1461.22,314.42s25.08-2.85,21.69-17.78c-5.18-22.79-11.01-45.44-16.63-68.12-2.02-8.14-2.42-17.89-11.84-20.69-8.18-2.43-7.32-7.63-7.32-7.63l-16.08,3.34s1.87,2.96-2.84,8.95c-4.71,5.99-4.82,11.49-2.32,19.74,5.77,19.08,10.36,38.49,15.28,57.8,1.69,6.61,2.68,13.96,6.66,19.69,1.41,2.04,3.2,4.01,5.51,5.02,3.11,1.36,4.9-.07,7.88-.31Z"></path><path class="cls-3" d="M1429.7,205.67c.1,0,.2,0,.3,0,6.19-.17,12.34-1.55,18-4.03,.33-.15,.68-.31,.87-.63,.21-.36,.14-.81,.06-1.22-.53-2.66-1.27-5.27-2.23-7.81-.23-.6-.54-1.27-1.15-1.47-.36-.11-.75-.03-1.11,.04-4.41,.95-8.8,1.94-13.19,2.97-.79,.18-1.59,.38-2.27,.82-2.57,1.67-.71,7.78-.28,10.22,.06,.35,.15,.73,.44,.94,.16,.12,.36,.16,.57,.17Z"></path></g><path class="cls-3" d="M1406.92,266.32c5.63-5.96,5.5-14.91,6.91-25.12,1.69-12.22,6.12-14.4,11.84-15.65,5.72-1.26,21.7,7.03,24.76,10.4,0,0,7.81,11.32,8.38,27.49,.56,16.17-5.81,27.65-5.81,27.65l-5.84,9.28c2.12,8.13,4.44,16.81,5.19,20.62,1.46,7.43-1.66,34.79-3.79,51.26-2.13,16.47,5.92,23.26,1.31,40.3-4.62,17.04-21.25,14.41-21.25,14.41,0,0-40.97,.96-55.62,1.04-14.66,.08-23.37-2.5-32.45-5.85-9.07-3.36-31.96-4.34-38.21-4.3-6.25,.04-16.52-.28-21.13-15.17-4.61-14.89,.96-21.22,3.71-27.98,2.75-6.77,2.58-22.4,2.3-37.33-.28-14.93,3.23-38.62,6.24-47.78,3.01-9.16,8.01-23.31,8.37-47.51,.37-24.19,9.09-29.53,12.9-30.85,3.81-1.32,19.48,5.14,19.48,5.14,5.67,2.12,10.97,20.2,10.97,20.2,0,0,4.11,11.93,6.85,17.41,2.74,5.47,14.94,5.72,18.76,5.85,3.82,.12,35.69,6.61,35.69,6.61"></path><polygon class="cls-3" points="-53.71 353.14 210.06 298.48 340.88 243.3 418.59 263.88 542.57 374.5 646.47 374.5 755.41 331.26 839.11 283.27 965.63 321.82 1084.85 317.74 1182.18 283.27 1356.98 294.54 1504.7 344.55 1600.66 344.55 1733.69 277.47 1938.9 351.5 1938.9 666.21 -53.71 666.21 -53.71 353.14"></polygon><polygon class="cls-3" points="622.94 232.86 595.83 289.63 634.38 312.53 670.48 261.1 673.75 263.04 676.85 257.81 676.04 251.2 628.73 223.1 622.71 225.65 619.49 231.07 622.94 232.86"></polygon><polygon class="cls-3" points="1355.97 200.09 1328.86 256.86 1367.41 279.75 1403.51 228.32 1406.78 230.27 1409.88 225.03 1409.07 218.43 1361.76 190.33 1355.74 192.87 1352.52 198.3 1355.97 200.09"></polygon><polygon class="cls-3" points="974.83 214.02 1011.35 265.24 1050.06 242.62 1022.57 186.12 1025.85 184.21 1022.78 178.95 1016.61 176.46 969.1 204.22 968.41 210.73 971.59 216.17 974.83 214.02"></polygon><polygon class="cls-3" points="981.51 222.16 954.41 278.93 992.96 301.83 1029.05 250.4 1032.32 252.34 1035.43 247.11 1034.61 240.5 987.3 212.41 981.28 214.95 978.06 220.37 981.51 222.16"></polygon><polygon class="cls-3" points="62.18 216.14 83.57 275.3 126.95 263.93 115.67 202.12 119.35 201.15 117.8 195.27 112.53 191.21 59.3 205.16 56.89 211.24 58.49 217.34 62.18 216.14"></polygon><polygon class="cls-3" points="1835.69 218.88 1784.19 182.76 1755.23 217 1799.99 261.1 1797.53 264 1802.18 267.93 1808.83 268.22 1844.36 226.21 1842.85 219.84 1838.03 215.77 1835.69 218.88"></polygon><g><path class="cls-3" d="M1909,372.21s31.12,6.98,33.25-12.25c3.25-29.35,5.67-58.81,8.34-88.22,.96-10.55,4.51-22.36-5.57-29.6-8.76-6.29-5.58-12.14-5.58-12.14l-20.58-2.67s1,4.31-7.1,9.51c-8.1,5.2-10.51,11.73-10.94,22.61-1.01,25.17-3.57,50.24-5.67,75.33-.72,8.59-2.57,17.78-.2,26.26,.84,3.02,2.16,6.11,4.51,8.27,3.15,2.91,5.87,1.95,9.53,2.89Z"></path><path class="cls-3" d="M1916.37,229.32c.12,.05,.24,.09,.35,.12,7.46,2.36,15.37,3.26,23.16,2.64,.46-.04,.95-.09,1.29-.39,.4-.34,.5-.91,.57-1.43,.47-3.39,.66-6.82,.57-10.25-.02-.81-.12-1.74-.77-2.23-.38-.28-.88-.35-1.35-.41-5.65-.69-11.31-1.33-16.97-1.92-1.01-.1-2.05-.21-3.05,.04-3.76,.93-4.07,8.99-4.56,12.09-.07,.44-.12,.93,.13,1.3,.15,.21,.37,.34,.61,.43Z"></path></g><g><path class="cls-3" d="M1895.68,357.93s31.79-2.65,28.06-21.65c-5.69-28.98-12.2-57.81-18.45-86.67-2.24-10.36-2.39-22.68-14.18-26.58-10.24-3.38-8.95-9.91-8.95-9.91l-20.43,3.61s2.25,3.81-3.92,11.2c-6.17,7.39-6.52,14.33-3.67,24.85,6.57,24.32,11.64,49,17.14,73.58,1.88,8.42,2.87,17.73,7.67,25.12,1.71,2.62,3.89,5.18,6.78,6.54,3.88,1.83,6.19,.1,9.96-.09Z"></path><path class="cls-3" d="M1859.93,219.39c.13,.01,.25,.01,.38,.01,7.82,.02,15.64-1.49,22.89-4.42,.42-.17,.87-.37,1.12-.76,.28-.45,.21-1.02,.12-1.54-.57-3.38-1.41-6.71-2.52-9.95-.26-.77-.63-1.63-1.4-1.9-.45-.16-.94-.07-1.41,.01-5.6,1.03-11.19,2.11-16.77,3.25-1,.2-2.02,.42-2.89,.95-3.31,2.02-1.19,9.8-.73,12.9,.07,.44,.16,.93,.51,1.2,.2,.15,.45,.21,.71,.23Z"></path></g><path class="cls-3" d="M1886.28,319.68s3.9,3.83,1.78,8.55c-2.12,4.72-13.45,18.7-22.65,25.54-9.2,6.84-21.26,14.67-26.07,13.3-4.82-1.38-5.54-1.62-11.92-9.7-6.38-8.08-27.83-38.99-27.83-38.99l8.37-56.89s3.88-7.83,6.47-7.95c0,0,1.73-11.13,14.14-13.47,12.41-2.34,22.66,.34,30.39,4.96,7.73,4.62,15.28,13.01,15.41,19.08,.13,6.07-6.11,27.52-6.11,27.52l17.46,19.63s2.93,4.32,.58,8.41Z"></path><g><path class="cls-3" d="M.98,365.72s31.12,6.98,33.25-12.25c3.25-29.35,5.67-58.81,8.34-88.22,.96-10.55,4.51-22.36-5.57-29.6-8.76-6.29-5.58-12.14-5.58-12.14l-20.58-2.67s1,4.31-7.1,9.51c-8.1,5.2-10.51,11.73-10.94,22.61-1.01,25.17-3.57,50.24-5.67,75.33-.72,8.59-2.57,17.78-.2,26.26,.84,3.02,2.16,6.11,4.51,8.27,3.15,2.91,5.87,1.95,9.53,2.89Z"></path><path class="cls-3" d="M8.35,222.83c.12,.05,.24,.09,.35,.12,7.46,2.36,15.37,3.26,23.16,2.64,.46-.04,.95-.09,1.29-.39,.4-.34,.5-.91,.57-1.43,.47-3.39,.66-6.82,.57-10.25-.02-.81-.12-1.74-.77-2.23-.38-.28-.88-.35-1.35-.41-5.65-.69-11.31-1.33-16.97-1.92-1.01-.1-2.05-.21-3.05,.04-3.76,.93-4.07,8.99-4.56,12.09-.07,.44-.12,.93,.13,1.3,.15,.21,.37,.34,.61,.43Z"></path></g><polygon class="cls-3" points="475.46 249.59 448.36 306.36 486.91 329.26 523.01 277.83 526.27 279.77 529.38 274.54 528.57 267.93 481.26 239.83 475.23 242.38 472.01 247.8 475.46 249.59"></polygon><g><path class="cls-3" d="M680.42,364.54s27.21-16.64,15.36-31.94c-18.09-23.34-36.85-46.18-55.39-69.17-6.65-8.25-12.32-19.2-24.6-17.39-10.67,1.57-12.45-4.84-12.45-4.84l-16.64,12.4s3.72,2.4,1.52,11.77c-2.2,9.37,.61,15.73,7.87,23.86,16.79,18.78,32.39,38.57,48.34,58.06,5.46,6.67,10.52,14.56,18.13,19,2.7,1.58,5.8,2.88,8.99,2.8,4.29-.1,5.57-2.69,8.86-4.55Z"></path><path class="cls-3" d="M586.3,256.78c.12-.05,.23-.1,.34-.16,6.99-3.49,13.31-8.35,18.47-14.22,.3-.34,.62-.72,.66-1.18,.05-.52-.27-1-.58-1.43-2.02-2.76-4.27-5.36-6.72-7.76-.58-.57-1.3-1.17-2.1-1.07-.47,.06-.87,.36-1.25,.64-4.54,3.43-9.05,6.91-13.53,10.43-.8,.63-1.62,1.28-2.16,2.15-2.05,3.29,3.33,9.29,5.14,11.86,.26,.36,.56,.76,1,.84,.25,.05,.5-.01,.74-.11Z"></path></g></g></g></svg>